<?xml version="1.0" encoding="UTF-8" standalone="no"?>
<!-- Created with Inkscape (http://www.inkscape.org/) -->

<svg
   xmlns:dc="http://purl.org/dc/elements/1.1/"
   xmlns:cc="http://creativecommons.org/ns#"
   xmlns:rdf="http://www.w3.org/1999/02/22-rdf-syntax-ns#"
   xmlns:svg="http://www.w3.org/2000/svg"
   xmlns="http://www.w3.org/2000/svg"
   xmlns:sodipodi="http://sodipodi.sourceforge.net/DTD/sodipodi-0.dtd"
   xmlns:inkscape="http://www.inkscape.org/namespaces/inkscape"
   width="60"
   height="60"
   id="svg2"
   version="1.1"
   inkscape:version="0.48.2 r9819"
   sodipodi:docname="flame.svg">
  <defs
     id="defs4" />
  <sodipodi:namedview
     id="base"
     pagecolor="#ffffff"
     bordercolor="#666666"
     borderopacity="1.0"
     inkscape:pageopacity="0.0"
     inkscape:pageshadow="2"
     inkscape:zoom="4.7714286"
     inkscape:cx="49.773968"
     inkscape:cy="14.492778"
     inkscape:document-units="px"
     inkscape:current-layer="layer1"
     showgrid="false"
     inkscape:window-width="1366"
     inkscape:window-height="688"
     inkscape:window-x="0"
     inkscape:window-y="25"
     inkscape:window-maximized="1" />
  <metadata
     id="metadata7">
    <rdf:RDF>
      <cc:Work
         rdf:about="">
        <dc:format>image/svg+xml</dc:format>
        <dc:type
           rdf:resource="http://purl.org/dc/dcmitype/StillImage" />
        <dc:title></dc:title>
      </cc:Work>
    </rdf:RDF>
  </metadata>
  <g
     inkscape:label="Layer 1"
     inkscape:groupmode="layer"
     id="layer1"
     transform="translate(0,-992.36218)">
    <path
       style="fill:#ff1a00;fill-opacity:1;stroke:#000000;stroke-width:0.49587029;stroke-miterlimit:4;stroke-opacity:1;stroke-dasharray:none"
       d="m 58.751924,1031.355 c -1.124238,1.4465 -1.235413,2.0224 -0.676765,3.5051 0.626979,1.6646 0.511937,1.8987 -1.861399,3.7869 -1.391314,1.1068 -2.534792,2.3823 -2.541139,2.8344 -0.01587,1.1155 -7.760683,4.8011 -10.138582,4.8245 l -1.911482,0.019 1.563679,0.7061 c 1.519645,0.6861 1.468669,0.7247 -1.804474,1.3644 -1.852473,0.3621 -4.096487,0.5094 -4.986574,0.3273 -1.911384,-0.3908 -2.190162,0.5468 -0.477425,1.6057 0.977956,0.6047 0.815708,0.632 -1.136734,0.1913 -3.486367,-0.7869 -5.828563,-0.619 -7.650094,0.5483 -0.911708,0.5843 -2.425006,1.0551 -3.362697,1.0463 -1.485827,-0.014 -1.556539,-0.086 -0.550318,-0.5639 1.423248,-0.6751 0.875509,-1.5447 -0.972898,-1.5447 -2.263352,0 -8.410066,-1.757 -7.590392,-2.1697 0.47316,-0.2383 -0.06942,-0.7308 -1.461132,-1.3262 l -2.213864,-0.9472 1.629926,-0.3628 1.629927,-0.3628 -2.073731,-0.7518 c -2.3502288,-0.8521 -7.3798451,-5.2534 -7.3798451,-6.4578 0,-0.4372 -1.0104853,-2.0182 -2.2455999,-3.5135 -1.74844008,-2.1168 -1.9328048,-2.5402 -0.8328644,-1.9125 2.098128,1.1973 2.4390886,0.9899 1.335578,-0.8124 -0.5547801,-0.9059 -0.8180874,-2.1799 -0.5981192,-2.8938 0.2282989,-0.7413 -0.15491,-2.4075 -0.9149805,-3.9787 -0.71931007,-1.4869 -1.29610684,-3.4713 -1.28172659,-4.41 l 0.0257853,-1.7068 0.97269989,1.4608 c 1.2280733,1.8444 2.088409,1.8559 2.6492387,0.036 0.241489,-0.7839 0.8319718,-2.0389 1.3122722,-2.7887 0.4803003,-0.7499 0.8751125,-2.1262 0.8772944,-3.0585 0,-0.9322 0.2974232,-1.8427 0.6560369,-2.0233 0.3586136,-0.1805 0.6519707,-0.8064 0.6519707,-1.3906 0,-0.6177 0.2912745,-0.9158 0.6958058,-0.7121 0.3828121,0.1928 0.8561703,-0.149 1.0521384,-0.7595 0.1958689,-0.6104 0.5918712,-0.9911 0.8799724,-0.846 0.288101,0.145 1.010585,-0.9306 1.605629,-2.3901 1.184437,-2.9053 2.081765,-3.7184 2.686528,-2.4344 0.927775,1.9699 1.630423,0.5905 1.457464,-2.8611 -0.101654,-2.0304 0.02579,-3.86304 0.282646,-4.0725 0.257059,-0.20955 0.467408,0.26837 0.467408,1.06196 0,1.77402 1.340636,3.96544 3.288416,5.37534 1.135643,0.8221 1.535612,0.8982 1.775217,0.338 0.170083,-0.3977 0.983708,-1.2009 1.808043,-1.7849 0.824236,-0.5839 1.677332,-1.64139 1.895615,-2.34999 0.218282,-0.7085 1.122056,-1.5129 2.008573,-1.78751 1.214189,-0.37617 1.611679,-0.88781 1.611679,-2.07462 0,-0.86648 0.263903,-1.70827 0.586417,-1.87072 0.322613,-0.16245 1.055312,1.92289 1.485926,0.46027 1.045692,-0.95227 0.404928,-1.48603 1.37376,-1.26874 4.148256,0.93055 0.671607,3.07341 1.769663,3.83943 0.717228,0.50023 1.303942,1.27051 1.303942,1.71164 0,1.17898 1.369892,0.97706 1.767085,-0.26043 0.187538,-0.58433 0.609623,-1.06235 0.937989,-1.06235 0.328266,0 0.86222,-0.53792 1.186519,-1.19525 0.557557,-1.13009 0.591871,-1.13574 0.630946,-0.10393 0.04661,1.21924 3.139555,5.4188 4.819764,6.5433 0.59921,0.401 1.089328,1.4169 1.089328,2.2576 0,1.9535 1.288074,2.0181 1.351545,0.067 0.03769,-1.1646 0.557161,-0.6202 2.561073,2.6852 1.970095,3.2493 2.434834,4.5416 2.149104,5.9758 -0.29425,1.4773 -0.153522,1.8301 0.730229,1.8301 0.602086,0 1.466885,0.7211 1.921697,1.6024 0.960204,1.8605 1.855747,1.5372 1.346289,-0.4861 -0.335903,-1.334 -0.309126,-1.3267 0.771277,0.2117 0.683211,0.9727 1.223512,3.1457 1.386752,5.5774 0.147175,2.1912 0.661591,4.8363 1.143081,5.878 0.792104,1.7133 0.747377,2.059 -0.46949,3.6248 z m -2.81367,-7.7085 c -0.832567,0.2603 -0.932336,0 -0.579375,-1.5367 0.474747,-2.0621 0.216596,-2.2539 -1.333297,-0.9911 -0.580565,0.473 -1.242057,0.7081 -1.470058,0.5223 -0.228002,-0.1857 -0.06744,-0.6205 0.357027,-0.9662 0.424366,-0.3458 0.771475,-1.075 0.771475,-1.6205 0,-0.7285 -0.324993,-0.908 -1.223114,-0.6757 -1.437539,0.3717 -2.228056,-1.2977 -1.592152,-3.3623 0.256663,-0.8331 0.155208,-1.1684 -0.286018,-0.9462 -0.380333,0.1915 -0.979444,-0.3473 -1.350454,-1.2147 -0.390746,-0.9131 -1.564869,-1.9338 -2.834496,-2.4639 -2.606495,-1.0882 -3.087291,-1.6197 -2.662528,-2.9431 0.337093,-1.0503 -0.82136,-2.5944 -1.946392,-2.5944 -0.358614,0 -0.251704,0.3932 0.237721,0.8735 0.788434,0.774 0.729624,0.832 -0.517293,0.5096 -0.796566,-0.206 -1.597398,-0.1129 -1.845928,0.2147 -0.621524,0.8194 -2.278724,-0.3868 -2.278724,-1.6586 0,-0.6267 -0.90189,-1.3392 -2.444841,-1.9311 -1.344702,-0.5158 -2.481634,-1.2348 -2.526461,-1.5977 -0.04463,-0.3629 -0.118216,-0.8229 -0.162943,-1.0224 -0.04463,-0.1993 -2.313733,1.474 -5.041914,3.7184 -2.728181,2.2444 -5.368693,4.0808 -5.867737,4.0808 -0.499143,0 -0.907443,0.2135 -0.907443,0.4744 0,0.2609 -0.406912,0.6015 -0.904171,0.757 -0.634318,0.1984 -0.806186,-0.023 -0.575904,-0.7399 0.180497,-0.5625 0.64602,-1.0227 1.034485,-1.0227 0.470483,0 0.448664,-0.2099 -0.06545,-0.6286 -0.424267,-0.3457 -0.878683,-0.525 -1.009692,-0.3983 -0.13091,0.1266 -1.559315,1.8198 -3.174267,3.7628 -2.092078,2.5169 -3.185076,3.4073 -3.801642,3.0968 -1.137329,-0.5726 -3.8426015,3.8365 -3.8708661,6.3088 -0.015868,1.4181 -0.2354394,1.716 -1.0707831,1.4548 -0.8244346,-0.2578 -0.9773611,-0.071 -0.7102852,0.8727 1.3331979,4.7063 1.3306194,4.788 -0.1308107,4.1508 -1.7362416,-0.7571 -1.7756137,0.038 -0.064463,1.2999 0.9566337,0.7054 1.3039416,1.6361 1.3039416,3.4944 0,1.9267 0.3900518,2.9105 1.6300261,4.111 1.9962764,1.933 2.0082764,2.1035 0.1629431,2.3194 -1.4354465,0.168 -1.424934,0.2039 0.4890276,1.6709 3.7926177,2.9071 8.2393877,5.6681 9.1287807,5.6681 1.314851,0 1.940144,1.1085 0.91627,1.6241 -1.304636,0.6569 -0.513226,1.0034 2.884976,1.263 2.342989,0.1789 3.043356,0.056 3.043356,-0.5305 0,-1.0778 1.789796,-0.9465 3.688485,0.2703 1.540174,0.987 1.70996,0.993 3.789047,0.1328 1.19723,-0.4953 1.911581,-0.9802 1.58748,-1.0776 -1.319214,-0.3964 -0.449259,-1.1241 1.744672,-1.4595 1.283611,-0.1962 2.479155,-0.6652 2.656676,-1.0422 0.177621,-0.3768 1.775812,-0.8481 3.551724,-1.0471 2.822198,-0.3162 3.338895,-0.5727 4.102536,-2.0363 0.480499,-0.921 1.615249,-2.3172 2.521602,-3.1025 0.906352,-0.7854 1.49019,-1.5565 1.297495,-1.7136 -0.192795,-0.1571 0.02083,-0.6499 0.474251,-1.0952 0.536135,-0.5263 0.5764,-0.8096 0.114943,-0.8096 -0.769988,0 2.495925,-4.2029 4.118513,-5.3001 0.54754,-0.3702 0.986088,-1.0621 0.974683,-1.5376 -0.01785,-0.7674 -0.118116,-0.7601 -0.886815,0.064 -0.476432,0.5113 -1.053824,0.9297 -1.283214,0.9297 -0.865691,0 -0.36139,-1.0549 1.192172,-2.4937 1.845333,-1.7088 2.102889,-2.5422 0.64493,-2.0864 z m -7.101274,-1.7406 c -0.155704,0.1268 -0.367143,2.5284 -0.469887,5.3368 l -0.186646,5.106 -1.479777,-0.8659 c -0.927378,-0.5426 -1.445464,-1.3617 -1.387744,-2.1939 0.171968,-2.4806 -0.102745,-3.782 -0.731608,-3.4653 -0.395804,0.1993 -0.401655,0.7987 -0.01587,1.6249 0.831873,1.7828 0.144398,1.645 -2.589238,-0.5188 -1.29095,-1.0218 -3.171985,-1.9201 -4.26538,-2.0367 -1.075742,-0.1147 -1.926557,-0.4872 -1.890656,-0.8279 0.0357,-0.3406 0.109191,-0.8774 0.162943,-1.1927 0.06546,-0.386 1.461033,-0.4547 4.267066,-0.2098 3.613212,0.3153 4.337183,0.2269 5.428594,-0.6623 1.691613,-1.3782 3.44164,-1.8952 3.44164,-1.0167 0,0.3803 -0.127339,0.7954 -0.283142,0.9223 z m -0.76265,15.7382 c -0.216695,-0.1765 -0.239803,-0.6347 -0.05157,-1.0181 0.208067,-0.4238 0.362581,-0.2979 0.39392,0.3209 0.02777,0.56 -0.125852,0.8737 -0.342548,0.6972 z m -0.941757,-18.4478 c -0.644533,0 -2.074624,-0.7355 -3.178035,-1.6345 -1.270421,-1.0351 -2.005996,-1.3511 -2.005996,-0.8618 0,0.4249 0.447077,1.075 0.993626,1.4445 0.546549,0.3696 0.842484,0.7952 0.657624,0.9458 -0.184762,0.1506 -0.01984,0.5841 0.366349,0.9634 1.243049,1.2202 0.156199,1.5521 -5.050443,1.5424 -4.455497,-0.01 -5.128393,-0.1347 -5.333486,-1.002 -0.150744,-0.6376 0.03074,-0.8587 0.50807,-0.6184 0.408597,0.2057 1.75796,-0.2569 2.998728,-1.0279 2.10983,-1.3111 2.229236,-1.5462 1.844341,-3.631 -0.457391,-2.4781 -1.548703,-3.9366 -1.548703,-2.0699 0,1.2699 -0.644632,1.4933 -1.738225,0.6023 -0.382316,-0.3115 -1.687944,-0.6575 -2.901339,-0.769 l -2.206129,-0.2027 2.118855,0.5803 c 1.165495,0.3191 2.118955,0.8881 2.118955,1.2643 0,0.3764 0.588896,0.8365 1.308702,1.0226 1.236701,0.3199 1.201792,0.4255 -0.634318,1.9214 -1.47462,1.2015 -2.222195,1.4691 -3.101572,1.1103 -0.637293,-0.26 -2.729173,-0.3825 -4.64849,-0.2723 -1.919416,0.1103 -3.865609,-0.053 -4.324786,-0.364 -1.073064,-0.7257 -1.639051,0.3877 -1.639051,3.2244 0,2.2331 -0.33501,2.4451 -2.118954,1.3418 -0.918849,-0.5682 -1.060668,-1.1827 -0.728732,-3.1562 0.302283,-1.797 0.134877,-2.7956 -0.62807,-3.7443 -1.002948,-1.2471 -0.964964,-1.3406 1.054618,-2.5936 1.152304,-0.7148 2.755256,-1.4697 3.562137,-1.6776 0.806781,-0.2078 1.466884,-0.561 1.466884,-0.785 0,-0.2239 1.781069,-0.3316 3.957743,-0.2393 2.779652,0.1178 4.553679,0.5134 5.959473,1.329 1.818357,1.055 2.072243,1.0825 2.773999,0.3006 1.619316,-1.8043 7.745203,1.2548 10.022638,5.0052 1.185428,1.9519 1.188998,2.0512 0.07339,2.0512 z m -24.455846,-5.8432 c -0.158183,0 -0.287506,0.239 -0.287506,0.5312 0,0.2922 0.310713,0.5312 0.69045,0.5312 0.379738,0 0.50916,-0.239 0.287506,-0.5312 -0.221654,-0.2922 -0.532267,-0.5312 -0.69045,-0.5312 z m 23.105689,21.9761 c -0.76255,0.4352 -1.721365,1.3385 -2.130756,2.0075 -0.409292,0.6689 -1.736837,1.7612 -2.950034,2.4273 -3.874932,2.1275 -9.507229,1.2882 -6.229127,-0.9283 0.891178,-0.6026 0.866385,-0.7971 -0.228894,-1.7915 -0.675674,-0.6135 -1.409661,-1.5337 -1.631117,-2.045 -0.266977,-0.6161 -1.087445,-0.9296 -2.433436,-0.9296 -2.626726,0 -2.232211,-1.3035 0.420498,-1.3892 3.720816,-0.1202 3.951098,-0.1894 2.663024,-0.7996 -0.653458,-0.3097 -1.888672,-0.4198 -2.744842,-0.2446 -2.140872,0.4377 -3.246069,-1.1919 -1.883416,-2.777 1.419777,-1.6516 -0.0119,-3.4355 -2.524974,-3.1451 -2.167847,0.2505 -2.597569,-0.1665 -2.039218,-1.9789 0.292167,-0.9487 1.297396,-1.6705 3.362697,-2.4148 1.620208,-0.584 3.338301,-1.0618 3.818006,-1.0618 1.089428,0 2.071152,1.4598 2.747421,4.085 0.425457,1.6518 0.814517,2.0344 2.116872,2.0814 3.029472,0.1093 3.22544,0.2138 3.22544,1.7191 0,0.8389 0.582747,1.941 1.309496,2.4768 1.205263,0.8887 1.229957,1.0643 0.31101,2.2071 -1.179379,1.4664 -1.153891,1.4725 1.864771,0.4448 2.930992,-0.9978 2.853339,-1.0027 3.665873,0.2342 0.543474,0.8274 0.403341,1.1872 -0.709294,1.8222 z m -13.14206,3.9196 c -0.368928,0.6573 -0.992634,1.2055 -1.386058,1.2183 -0.393523,0.013 -1.98507,0.223 -3.536748,0.4673 -2.73681,0.431 -2.966497,0.356 -7.660706,-2.5007 -2.661636,-1.6197 -4.8394,-3.2349 -4.8394,-3.5895 0,-0.3544 -0.447077,-0.9469 -0.993626,-1.3164 -0.546549,-0.3696 -0.842484,-0.7952 -0.657723,-0.9457 0.184861,-0.1507 0.01984,-0.5843 -0.366349,-0.9635 -0.950783,-0.9333 -0.181191,-1.7985 1.599877,-1.7985 0.803509,0 1.813101,-0.2868 2.243418,-0.6374 0.608533,-0.4958 0.782385,-0.3876 0.782385,0.4869 0,1.6858 1.255743,1.7016 3.293474,0.042 1.84692,-1.5048 3.878204,-1.557 3.878204,-0.1 0,0.407 0.298713,0.74 0.663773,0.74 0.373787,0 0.587507,0.9865 0.489027,2.2576 -0.172463,2.2266 -0.146381,2.2565 1.901764,2.1829 2.450989,-0.088 3.238233,0.9804 1.666224,2.2611 -1.0207,0.8317 -0.953658,0.873 1.034386,0.6352 2.494924,-0.2984 2.792942,-0.052 1.888078,1.5606 z m -6.764569,-2.9216 c -1.406983,0 -1.52748,0.092 -0.646814,0.4936 0.595343,0.2714 1.373463,0.3469 1.729201,0.1678 1.018915,-0.5131 0.776236,-0.6614 -1.082387,-0.6614 z m -7.095116,-3.4273 c 0.364167,-1.0819 0.32658,-1.1106 -0.330944,-0.2526 -0.855179,1.1157 -0.262811,3.7561 0.730318,3.2559 0.442416,-0.2227 0.418019,-0.5766 -0.0724,-1.0586 -0.405622,-0.3982 -0.552598,-1.2733 -0.326481,-1.9447 z m 10.454342,-27.3249 c -0.53792,0.4382 -0.977956,1.002 -0.977956,1.2529 0,0.2508 -0.627177,0.4946 -1.393595,0.5416 -1.307115,0.08 -1.277065,-0.02 0.483871,-1.6134 1.032601,-0.9343 2.099913,-1.9259 2.371551,-2.2034 0.275407,-0.2813 0.494086,-0.1218 0.494086,0.3604 0,0.4758 -0.440135,1.2237 -0.977957,1.6619 z m -8.160345,20.2665 c -0.364465,0.1835 -0.473557,0.5829 -0.242481,0.8875 0.628963,0.8292 -1.188998,1.5342 -2.197599,0.8522 -0.631343,-0.4268 -1.068007,-0.4187 -1.619217,0.031 -1.034485,0.8429 -2.6658,0.7771 -2.256905,-0.091 0.182778,-0.3882 0.06546,-1.8689 -0.260233,-3.2905 -0.995709,-4.3424 1.465099,-10.4942 2.942794,-7.3566 0.224034,0.4755 0.219274,2.019 -0.0099,3.4301 -0.414151,2.544 -0.397688,2.5735 1.944508,3.4834 2.424311,0.9419 2.860876,1.4697 1.699646,2.0544 z m -10.162969,-9.4451 c -0.216596,-0.1764 -0.239803,-0.6346 -0.05157,-1.0181 0.208166,-0.4237 0.36258,-0.2979 0.393919,0.3209 0.02876,0.56 -0.125752,0.8737 -0.342448,0.6972 z m -1.9937969,7.7133 c -0.1807945,-0.3651 -0.1807945,-0.9627 0,-1.3279 0.1808936,-0.3652 0.3288614,-0.066 0.3288614,0.664 0,0.7304 -0.1479678,1.0292 -0.3288614,0.6639 z m 44.4016589,8.8975 c -0.559044,0 -0.835145,0.239 -0.613491,0.5312 0.221654,0.2922 0.679045,0.5312 1.016436,0.5312 0.33739,0 0.613491,-0.239 0.613491,-0.5312 0,-0.2922 -0.457391,-0.5312 -1.016436,-0.5312 z m -2.899961,5.0487 c -0.855575,0.4308 -2.787388,3.4775 -2.403386,3.7904 0.309523,0.2521 2.911951,-2.9437 3.005869,-3.6912 0.02975,-0.2365 -0.24139,-0.281 -0.602483,-0.099 z m -7.819087,-36.1232 c -0.358613,-0.1806 -0.651971,-0.2143 -0.651971,-0.074 0,0.1394 -0.163637,0.6008 -0.363473,1.0251 -0.199935,0.4244 0.09322,0.9145 0.651971,1.0892 1.150718,0.3598 1.47829,-1.4781 0.363473,-2.0394 z m -3.259953,2.3902 c -0.490713,-0.6187 -0.634218,-0.4633 -0.641954,0.6954 -0.0099,0.861 0.265787,1.3532 0.641954,1.1638 0.809559,-0.4076 0.809559,-0.8387 0,-1.8592 z m -1.930424,-2.6405 c -0.333622,-0.4298 -0.766121,-0.6513 -0.961196,-0.4925 -0.195175,0.159 0.07339,0.7497 0.595739,1.3127 1.03994,1.1198 1.343214,0.4394 0.365457,-0.8202 z m -8.501108,-1.3434 c -0.358614,0.1806 -0.651971,0.5674 -0.651971,0.8595 0,0.2921 0.293357,0.3835 0.651971,0.2029 0.358514,-0.1805 0.651971,-0.5673 0.651971,-0.8595 0,-0.2921 -0.293457,-0.3835 -0.651971,-0.2029 z m -13.912842,6.1087 c -0.855377,0 -2.386626,2.1203 -2.386626,3.3047 0,0.3293 0.733492,0.038 1.629927,-0.6488 1.773928,-1.3577 2.143649,-2.6559 0.756699,-2.6559 z m -2.726594,4.5538 c -0.522747,-0.5629 -1.157263,-0.8551 -1.409959,-0.6492 -0.252696,0.2059 0.184265,0.8989 0.971212,1.5401 1.602158,1.3053 1.90573,0.689 0.438747,-0.8909 z"
       id="path3050"
       inkscape:connector-curvature="0"
       sodipodi:nodetypes="ccsccccsscscssssscccsssssssccssscsssssssccsccsscsccssscscccscsssssccccccccccsccccccscccssccsssccsccsscssssssssssssscssssssccscccsscccscssccssscssscccccccssssscscccsssscsssscscsccscssssccsssscsscssscsscscscssssssssssccssssscscsssssscsccsccsscccssssccssccssssccscccccccssssscssscsccsssssccscccccssssssscsssss" />
    <path
       style="fill:#ffff00;fill-opacity:1;fill-rule:evenodd;stroke:#000000;stroke-width:0.0261976;stroke-linecap:round;stroke-linejoin:round;stroke-miterlimit:4;stroke-opacity:1;stroke-dasharray:none"
       d="M 11.221398,47.46002 C 10.043004,46.603848 8.6239715,45.495626 8.5950763,45.40894 8.5827863,45.37207 8.8096728,45.32004 9.2260743,45.264238 10.498124,45.093773 10.811406,44.935839 10.801433,44.470056 10.794533,44.146393 10.559981,43.819601 9.7597572,43.018548 8.6373964,41.895023 8.3342849,41.51287 8.0417881,40.852591 7.8227469,40.358129 7.7447797,39.895586 7.6892195,38.760964 7.6256242,37.462256 7.5615976,36.948213 7.399653,36.436152 7.1798331,35.741094 6.8932164,35.368276 6.0484819,34.678614 5.5049476,34.23486 5.1297011,33.836446 5.1943733,33.771773 c 0.018156,-0.01816 0.2508827,0.04423 0.5171697,0.138626 0.266287,0.0944 0.6546751,0.232091 0.8630847,0.305978 0.337455,0.119639 0.4019335,0.127449 0.589141,0.07136 C 7.4706328,34.195798 7.5543546,34.00575 7.514674,33.491182 7.4742867,32.96745 7.3935399,32.615895 6.9018543,30.82309 6.6766101,30.001795 6.4760065,29.24141 6.4560684,29.133345 c -0.033,-0.178862 -0.025834,-0.196482 0.079906,-0.196482 0.063886,0 0.2610278,0.03767 0.4380916,0.08372 0.1859608,0.04836 0.4312108,0.07334 0.5806604,0.05914 0.2131081,-0.02025 0.2886484,-0.05723 0.4284317,-0.20976 0.2218736,-0.242106 0.2765392,-0.448579 0.3360257,-1.269177 0.061965,-0.854785 0.081947,-0.988451 0.2369956,-1.585302 0.3681529,-1.417187 1.4063138,-3.324174 2.3056936,-4.235305 0.508068,-0.514706 0.596262,-0.55433 1.140673,-0.512483 0.40159,0.03087 0.465573,0.02203 0.735808,-0.101692 0.805984,-0.368991 1.667203,-1.241883 4.067722,-4.122853 1.124998,-1.350161 2.255017,-2.672156 2.284113,-2.672156 0.06447,0 0.536638,0.271146 0.675872,0.388124 0.140145,0.117744 0.145517,0.132264 0.04955,0.133944 -0.162926,0.0029 -0.557391,0.273949 -0.747046,0.513408 -0.374624,0.473001 -0.573371,1.183361 -0.428761,1.532478 0.149398,0.360681 0.655131,0.404066 1.272963,0.109202 0.389173,-0.185736 0.770206,-0.562815 0.770206,-0.762215 0,-0.165372 0.194901,-0.272415 0.581252,-0.319231 0.777536,-0.09422 2.585479,-1.326472 6.256323,-4.264171 2.602147,-2.0824444 4.440685,-3.4717428 4.50229,-3.4021742 0.0092,0.010444 0.04505,0.1840261 0.07956,0.3857384 0.03451,0.2017123 0.109472,0.4423524 0.166581,0.5347557 0.23537,0.3808367 1.100505,0.9029461 2.472519,1.4921661 0.964028,0.414007 1.42888,0.658078 1.756913,0.922469 0.487402,0.392838 0.567481,0.518717 0.635619,0.999158 0.02981,0.210209 0.113181,0.506862 0.185262,0.659228 0.186105,0.393395 0.686078,0.918922 1.067801,1.122379 0.564038,0.300629 1.030513,0.274305 1.423022,-0.0803 0.109327,-0.09877 0.277029,-0.202025 0.372671,-0.229455 0.298611,-0.08564 0.84496,-0.05504 1.448108,0.08112 0.587031,0.132514 0.830775,0.155365 1.044966,0.09796 0.09943,-0.02665 0.117889,-0.06741 0.117889,-0.26039 0,-0.212452 -0.03042,-0.262689 -0.425874,-0.703244 -0.234231,-0.260946 -0.411591,-0.488731 -0.394132,-0.50619 0.01746,-0.01746 0.137998,0.0088 0.267867,0.05843 0.346358,0.132276 0.865489,0.658524 1.06575,1.080361 0.234135,0.493193 0.251744,0.685284 0.115686,1.261963 -0.306404,1.298675 0.157514,1.849013 2.424395,2.876015 1.10679,0.501427 1.252381,0.583016 1.84514,1.034016 0.595233,0.452881 0.984773,0.915834 1.341443,1.59425 0.473806,0.901219 1.007469,1.361838 1.487536,1.283934 0.228829,-0.03713 0.229325,-0.02871 0.04104,0.697108 -0.12299,0.474113 -0.142896,0.655151 -0.144031,1.30988 -0.0015,0.85055 0.06054,1.12054 0.36862,1.604976 0.19431,0.305538 0.419794,0.494269 0.745409,0.623913 0.226987,0.09038 0.532087,0.08876 1.386446,-0.0074 0.19593,-0.02204 0.326313,-0.01304 0.37307,0.02577 0.112508,0.09337 0.13689,0.458972 0.05228,0.783903 -0.104693,0.402052 -0.287956,0.703822 -0.672902,1.108029 -0.535573,0.562371 -0.633736,1.038315 -0.276202,1.33916 0.148841,0.125241 0.198109,0.137501 0.456676,0.113644 0.368214,-0.03397 0.859647,-0.268004 1.365957,-0.650494 0.21502,-0.162436 0.532402,-0.387269 0.705292,-0.499628 0.313208,-0.20355 0.314459,-0.203852 0.345627,-0.0832 0.03963,0.153424 0.02113,0.285884 -0.194997,1.395908 -0.199234,1.023261 -0.215044,1.300911 -0.08918,1.566149 0.140971,0.297073 0.351748,0.356353 0.875106,0.24612 0.23416,-0.04932 0.493868,-0.101175 0.577129,-0.115234 l 0.151384,-0.02556 -0.125186,0.229697 c -0.06885,0.126334 -0.598054,0.713044 -1.176005,1.3038 -1.219684,1.246708 -1.429703,1.493005 -1.67597,1.965473 -0.188905,0.362418 -0.237443,0.713168 -0.127197,0.919165 0.09264,0.173094 0.354646,0.272927 0.651649,0.248297 0.347331,-0.0288 0.719937,-0.272291 1.37496,-0.898497 0.461582,-0.441276 0.486748,-0.457604 0.485657,-0.31511 -0.0028,0.368768 -0.374121,0.900397 -0.935584,1.339585 -1.229918,0.962065 -2.91256,2.865779 -3.817264,4.31879 -0.315934,0.50741 -0.433127,0.796745 -0.433127,1.069336 0,0.177452 0.02448,0.224179 0.160916,0.30715 l 0.160917,0.09786 -0.288686,0.323536 c -0.491556,0.550897 -0.677907,0.969092 -0.564616,1.26707 0.08048,0.211676 -0.05995,0.395261 -1.057168,1.382046 -0.495074,0.489896 -1.055885,1.067553 -1.246245,1.283683 -0.400617,0.45485 -1.056307,1.328798 -1.267753,1.689745 l -0.145794,0.248878 -3.468974,-0.0035 c -2.557065,-0.0026 -3.43454,-0.0186 -3.337986,-0.06081 1.818155,-0.794899 3.285037,-1.881179 4.19238,-3.104615 0.492401,-0.663939 1.182015,-1.305505 1.945289,-1.809756 0.885319,-0.584879 1.089156,-0.793037 1.16256,-1.187209 0.06915,-0.371309 -0.282694,-1.115752 -0.81099,-1.715927 -0.272264,-0.309309 -0.467407,-0.396575 -0.886805,-0.396575 -0.431144,0 -0.665994,0.06446 -2.791538,0.766184 -1.004345,0.331574 -1.836531,0.592412 -1.849302,0.579641 -0.01277,-0.01277 0.159039,-0.255968 0.381802,-0.540437 0.552651,-0.705735 0.695866,-0.948762 0.746002,-1.265918 0.07157,-0.452746 -0.09051,-0.708494 -0.811192,-1.279995 -0.961037,-0.762102 -1.4289,-1.646193 -1.435763,-2.713068 -0.008,-1.245868 -0.505964,-1.564251 -2.582041,-1.650922 -1.470687,-0.0614 -1.861143,-0.153199 -2.161012,-0.508083 -0.211998,-0.250891 -0.360384,-0.618531 -0.630844,-1.562975 -0.514834,-1.797797 -0.965626,-2.754262 -1.630089,-3.458628 -0.778498,-0.825248 -1.286059,-0.850574 -3.52708,-0.175994 -1.577433,0.474831 -2.964267,1.022045 -3.735407,1.473909 -0.585334,0.342987 -1.178966,0.932925 -1.385326,1.376705 -0.210195,0.452025 -0.344836,1.036022 -0.350198,1.518956 -0.0036,0.328281 0.01724,0.431212 0.126057,0.621286 0.278795,0.48698 0.890215,0.637554 2.144432,0.528106 0.390292,-0.03406 0.880822,-0.04745 1.090069,-0.02976 0.717055,0.06061 1.3531,0.359328 1.670802,0.784685 0.432884,0.579566 0.370898,1.15607 -0.205372,1.910072 -0.504339,0.659884 -0.700395,1.176818 -0.645506,1.701974 0.09102,0.870836 0.687391,1.421146 1.700046,1.568742 0.347966,0.05072 0.513412,0.04609 1.011803,-0.02831 0.731791,-0.10924 1.182344,-0.111143 1.820254,-0.0077 0.540929,0.08773 1.058904,0.277118 0.939957,0.343684 -0.03939,0.02204 -0.695752,0.06614 -1.458578,0.09798 -2.099528,0.08765 -2.711905,0.188608 -3.262297,0.537834 -0.660757,0.419254 -0.491767,1.032262 0.357015,1.295064 0.274455,0.08498 0.594283,0.125005 1.282549,0.160516 0.925639,0.04776 1.361054,0.126062 1.717541,0.308877 0.245548,0.125923 0.369794,0.265082 0.589525,0.660288 0.299523,0.538719 0.776567,1.126159 1.499881,1.846978 0.762736,0.760106 0.874764,0.899286 0.826043,1.026252 -0.01791,0.04667 -0.201172,0.208786 -0.407252,0.360261 -0.576638,0.423846 -0.927607,0.774845 -1.062824,1.062916 -0.149245,0.317955 -0.155668,0.518258 -0.02485,0.77485 l 0.09914,0.194462 -0.818136,0 c -0.777328,0 -0.811674,-0.0043 -0.688588,-0.08634 0.441506,-0.294241 0.867349,-0.844599 1.216436,-1.572116 0.372162,-0.775606 0.326072,-1.257811 -0.141875,-1.48434 -0.288754,-0.139784 -1.170815,-0.141486 -2.438277,-0.0047 -0.504304,0.05442 -0.92147,0.0946 -0.927036,0.08928 -0.0056,-0.0053 0.132188,-0.126937 0.306118,-0.270261 0.390855,-0.322077 0.757001,-0.799763 0.834975,-1.089337 0.294339,-1.093092 -0.850396,-1.744072 -2.886213,-1.641311 -0.715062,0.03609 -1.235147,-0.02549 -1.372125,-0.162463 -0.122058,-0.122058 -0.137571,-0.484527 -0.07569,-1.768676 0.04988,-1.035253 -0.0014,-1.599974 -0.182976,-2.015301 -0.140816,-0.322078 -0.237834,-0.415136 -0.502202,-0.481705 -0.301982,-0.07604 -0.406586,-0.224377 -0.481916,-0.683395 -0.08276,-0.50431 -0.25177,-0.750353 -0.658195,-0.958206 -0.278423,-0.142391 -0.354963,-0.15747 -0.783814,-0.154415 -0.273662,0.0019 -0.619727,0.04187 -0.815831,0.0941 -0.561686,0.149604 -1.336545,0.569244 -2.095808,1.135027 -1.439181,1.072438 -2.2039,1.36631 -2.551179,0.980387 -0.155377,-0.172667 -0.178863,-0.263735 -0.250162,-0.970008 -0.05543,-0.549131 -0.08276,-0.662302 -0.186595,-0.77283 -0.202996,-0.216079 -0.487623,-0.180932 -0.917297,0.113272 -0.606088,0.414998 -1.26649,0.612646 -2.251205,0.673749 -0.719228,0.04463 -1.096074,0.120845 -1.476578,0.29863 -0.487572,0.227811 -0.750162,0.591469 -0.749414,1.037854 3.67e-4,0.212821 0.225521,0.634299 0.516493,0.966809 0.29533,0.337491 0.368648,0.510733 0.26765,0.632427 -0.102996,0.124103 -0.02803,0.483246 0.145954,0.699241 0.08431,0.104663 0.341122,0.343552 0.570699,0.530865 0.608491,0.496469 0.871844,0.825005 0.936168,1.167878 0.04692,0.250095 0.292577,0.526529 0.907402,1.021076 1.2803,1.029835 4.486415,3.100253 6.7659,4.369225 l 0.548944,0.305593 -5.452139,0 -5.45214,0 -1.043661,-0.75828 z M 48.43677,45.519784 c 0.06184,-0.04332 0.140179,-0.162809 0.174083,-0.26554 0.08986,-0.272285 0.07822,-1.009001 -0.01965,-1.243235 -0.08644,-0.206875 -0.287583,-0.325043 -0.460089,-0.270292 -0.2814,0.08931 -0.55264,0.779438 -0.488794,1.243655 0.0658,0.478412 0.478621,0.756629 0.794453,0.535412 z m 0.01598,-5.357248 c 5.29e-4,-0.424211 0.205889,-5.745935 0.263351,-6.824476 0.1172,-2.199769 0.263699,-3.504099 0.417894,-3.720645 0.126074,-0.177055 0.261559,-0.680534 0.261559,-0.971986 0,-0.246426 -0.163903,-0.531504 -0.36834,-0.64066 -0.188714,-0.100761 -0.94697,-0.04761 -1.298809,0.09105 -0.698057,0.275093 -1.308744,0.633484 -2.108087,1.237162 -0.987745,0.745962 -1.277964,0.833688 -2.747968,0.830641 -0.636058,-0.0013 -1.624489,-0.05101 -2.51497,-0.126431 -1.895556,-0.160551 -3.625903,-0.175873 -4.079149,-0.03612 -0.439165,0.135412 -0.529273,0.246434 -0.605669,0.746245 -0.035,0.228989 -0.07738,0.587979 -0.09417,0.797755 -0.02816,0.351823 -0.02079,0.391941 0.09504,0.517123 0.323613,0.349747 0.764569,0.519683 1.872554,0.721643 1.542552,0.281171 2.947073,0.981477 4.697625,2.342273 1.535962,1.193983 2.326092,1.607286 2.695139,1.409779 0.088,-0.0471 0.09633,-0.0108 0.117952,0.51401 0.02026,0.491647 0.04381,0.608326 0.182124,0.902096 0.202906,0.430971 0.518639,0.827377 0.870727,1.093206 0.329058,0.248441 2.183023,1.357847 2.277397,1.362785 0.04364,0.0023 0.0656,-0.0796 0.0658,-0.24545 l 0,0 z M 16.03232,36.033171 c 0.40089,-0.103882 0.707066,-0.252242 1.156893,-0.560585 0.533264,-0.365536 0.615965,-0.367905 1.271498,-0.03643 0.49632,0.250969 0.588143,0.279477 0.971729,0.301682 0.921281,0.05333 1.639744,-0.30407 1.768716,-0.879853 0.04628,-0.206609 0.03645,-0.271543 -0.08058,-0.532321 -0.08184,-0.182362 -0.120122,-0.338495 -0.09918,-0.404486 0.01876,-0.05911 0.172933,-0.191808 0.342603,-0.294877 0.444454,-0.269991 0.576463,-0.445419 0.576463,-0.766066 0,-0.236175 -0.02181,-0.283512 -0.236163,-0.512677 -0.29611,-0.316566 -1.084882,-0.7273 -2.430335,-1.265537 -0.53001,-0.212027 -1.083299,-0.45723 -1.229531,-0.544898 -0.508243,-0.304695 -0.60934,-0.650745 -0.475164,-1.626461 0.256591,-1.865908 0.282443,-2.136515 0.283381,-2.966277 5.4e-4,-0.478757 -0.02269,-0.995306 -0.05163,-1.147886 -0.069,-0.363825 -0.287868,-0.788718 -0.54312,-1.054359 -1.020579,-1.062119 -2.305823,0.296127 -2.934296,3.100967 -0.40184,1.793388 -0.420383,3.339055 -0.06301,5.252015 0.0981,0.525119 0.203965,1.153028 0.235253,1.395353 0.07211,0.558491 0.07336,1.36929 0.0024,1.555927 -0.136829,0.359888 -0.05311,0.710896 0.214223,0.898142 0.255442,0.178917 0.824046,0.217098 1.319845,0.08862 l -1e-6,0 z M 9.3378939,32.040273 c 0.2575191,-0.43315 0.2388991,-1.655729 -0.029606,-1.943935 -0.060054,-0.06446 -0.1683276,-0.111571 -0.256422,-0.111571 -0.542492,0 -0.7290591,1.543994 -0.248709,2.058268 0.1220839,0.130705 0.1713103,0.149826 0.3128514,0.121518 0.092384,-0.01848 0.1922327,-0.0744 0.221886,-0.12428 l 0,0 z M 21.629556,31.045875 c 0.243593,-0.272627 0.310755,-0.609051 0.363506,-1.820839 0.06616,-1.519782 0.09685,-1.869401 0.21032,-2.395566 0.110045,-0.5103 0.161296,-0.631267 0.355829,-0.839838 0.16978,-0.182032 0.27991,-0.180835 0.638736,0.0069 0.625185,0.327164 1.56546,0.434032 3.641467,0.413874 3.454413,-0.03354 4.540245,0.01771 5.356085,0.252805 0.622694,0.179437 0.929593,0.204442 1.310745,0.106796 0.692033,-0.177291 1.352732,-0.599452 2.635896,-1.684234 0.838271,-0.708672 1.045328,-0.961295 1.045328,-1.275367 0,-0.286725 -0.192795,-0.438002 -0.801931,-0.629239 -0.680607,-0.213675 -0.834248,-0.285903 -1.079521,-0.507493 -0.148161,-0.133854 -0.234033,-0.265596 -0.272376,-0.417871 -0.0724,-0.287513 -0.371468,-0.579477 -0.885094,-0.86406 l -0.392964,-0.217729 0.235778,0.03176 c 0.458301,0.06173 1.227703,0.334643 1.520864,0.539461 0.539565,0.376972 0.793518,0.494712 1.128437,0.523175 0.684905,0.05821 0.979482,-0.371714 1.03137,-1.50524 0.0073,-0.158496 0.03677,-0.288174 0.06559,-0.288174 0.08168,0 0.430639,0.734696 0.602713,1.268955 0.223658,0.694418 0.419436,1.685984 0.455319,2.30608 0.03984,0.688445 -0.02981,0.887427 -0.451362,1.28952 -0.594676,0.567224 -2.170066,1.504966 -3.095442,1.842543 -0.412046,0.150314 -0.799714,0.17882 -1.420484,0.104449 -0.27756,-0.03325 -0.300314,-0.02718 -0.407202,0.108707 -0.160832,0.204465 -0.18496,0.351843 -0.120897,0.738452 0.143039,0.863208 0.575215,1.134604 2.034447,1.277578 0.94931,0.09301 6.200203,0.09894 7.118477,0.008 1.513957,-0.14987 2.0447,-0.341902 2.21936,-0.803001 0.05442,-0.143662 0.01483,-0.412995 -0.0893,-0.607571 -0.0334,-0.06242 -0.192575,-0.262272 -0.353714,-0.444127 -0.383256,-0.432524 -0.45036,-0.58248 -0.350359,-0.782936 0.044,-0.0882 0.06205,-0.211997 0.04333,-0.297232 -0.04588,-0.208896 -0.363999,-0.576562 -0.783329,-0.905334 -0.19906,-0.156071 -0.448354,-0.392606 -0.553988,-0.525632 -0.199113,-0.250746 -0.35033,-0.552768 -0.301306,-0.601792 0.05802,-0.05802 0.476378,0.206494 1.297898,0.820626 1.020845,0.76314 1.435625,1.032844 2.092343,1.360514 0.65915,0.328884 1.131871,0.470461 1.565657,0.468903 0.732288,-0.0026 1.041363,-0.190189 0.985463,-0.598022 -0.07533,-0.549617 -0.996925,-2.096694 -1.867808,-3.135492 -1.898813,-2.264922 -5.337468,-4.24758 -7.582145,-4.37171 -0.951521,-0.05262 -1.44398,0.114584 -2.070471,0.70298 -0.35857,0.336767 -0.368937,0.342188 -0.609098,0.318526 -0.269264,-0.02653 -0.731265,-0.23484 -1.606596,-0.724395 -1.669614,-0.933782 -3.267955,-1.288385 -6.375993,-1.41456 -0.917777,-0.03726 -1.667959,-0.03781 -2.357784,-0.0017 -1.170006,0.06119 -1.52062,0.139097 -1.636771,0.363707 -0.09978,0.192945 -0.535768,0.417185 -1.287386,0.662131 -0.818322,0.266685 -1.363548,0.493631 -2.200599,0.915984 -1.779906,0.898092 -2.970053,1.708339 -3.196534,2.176186 -0.196497,0.405907 -0.09704,0.691804 0.53164,1.52824 0.797937,1.061628 0.915482,1.727903 0.643422,3.647072 -0.169142,1.193164 -0.16434,2.11706 0.01303,2.506118 0.164671,0.361209 0.449355,0.643864 0.977582,0.970612 0.766479,0.474124 1.09542,0.599631 1.521658,0.580589 0.328499,-0.01468 0.372716,-0.03052 0.508181,-0.182135 l 0,-1e-6 z m -10.23363,-6.915812 c 0.13355,-0.203823 0.133075,-1.238692 -6.6e-4,-1.442801 -0.203896,-0.311185 -0.549845,-0.229417 -0.760397,0.179728 -0.320884,0.623538 -0.169055,1.351507 0.30343,1.45484 0.216224,0.04729 0.33308,-0.0017 0.457629,-0.191767 l -2e-6,0 z M 27.005797,15.25804 c 0.910309,-0.101505 1.437086,-0.341807 1.512481,-0.689952 0.05374,-0.248141 0.179696,-0.409943 0.89059,-1.144019 0.516441,-0.533284 0.676211,-0.736174 0.838844,-1.06524 0.324806,-0.6572 0.300289,-1.298981 -0.05759,-1.507414 -0.269421,-0.156916 -0.448533,-0.06409 -1.153699,0.597914 -1.015927,0.953742 -2.538518,2.359088 -2.736232,2.525531 -0.256789,0.216175 -0.639673,0.751199 -0.639673,0.893848 0,0.253842 0.269867,0.424388 0.696301,0.440037 0.08038,0.003 0.372422,-0.01987 0.648974,-0.05071 l 0,0 z"
       id="path3867"
       inkscape:connector-curvature="0"
       transform="translate(0,992.36218)" />
    <path
       style="fill:#ffff00;fill-opacity:1;fill-rule:evenodd;stroke:#000000;stroke-width:0.0261976;stroke-linecap:round;stroke-linejoin:round;stroke-miterlimit:4;stroke-opacity:1;stroke-dasharray:none"
       d="m 12.471591,19.645943 c -0.625856,-0.421482 -1.376938,-1.190716 -1.376938,-1.410217 0,-0.173896 0.761406,0.351318 1.129188,0.778909 0.320875,0.373055 0.625716,0.797064 0.595077,0.827703 -0.01233,0.01233 -0.168626,-0.07605 -0.347327,-0.196395 l 0,0 z"
       id="path3871"
       inkscape:connector-curvature="0"
       transform="translate(0,992.36218)" />
    <path
       style="fill:#ffff00;fill-opacity:1;fill-rule:evenodd;stroke:#000000;stroke-width:0.0261976;stroke-linecap:round;stroke-linejoin:round;stroke-miterlimit:4;stroke-opacity:1;stroke-dasharray:none"
       d="m 12.945038,17.013847 c 0.04312,-0.265749 0.501611,-1.192153 0.764217,-1.544156 0.307998,-0.412847 0.784691,-0.880623 1.022997,-1.003862 0.224123,-0.115903 0.591716,-0.110952 0.737373,0.0099 0.428899,0.355955 -0.919034,1.901366 -2.247467,2.576728 l -0.308873,0.157029 0.03175,-0.195671 z"
       id="path3873"
       inkscape:connector-curvature="0"
       transform="translate(0,992.36218)" />
    <path
       style="fill:#ffff00;fill-opacity:1;fill-rule:evenodd;stroke:#000000;stroke-width:0.0261976;stroke-linecap:round;stroke-linejoin:round;stroke-miterlimit:4;stroke-opacity:1;stroke-dasharray:none"
       d="m 22.790443,21.677155 c -0.125983,-0.08824 -0.161536,-0.337598 -0.04813,-0.337598 0.06996,0 0.403243,0.316022 0.403243,0.38236 0,0.06769 -0.237264,0.03778 -0.355109,-0.04476 z"
       id="path3875"
       inkscape:connector-curvature="0"
       transform="translate(0,992.36218)" />
    <path
       style="fill:#ffff00;fill-opacity:1;fill-rule:evenodd;stroke:#000000;stroke-width:0.0261976;stroke-linecap:round;stroke-linejoin:round;stroke-miterlimit:4;stroke-opacity:1;stroke-dasharray:none"
       d=""
       id="path3877"
       inkscape:connector-curvature="0"
       transform="translate(0,992.36218)" />
    <path
       style="fill:#ffff00;fill-opacity:1;fill-rule:evenodd;stroke:#000000;stroke-width:0.0261976;stroke-linecap:round;stroke-linejoin:round;stroke-miterlimit:4;stroke-opacity:1;stroke-dasharray:none"
       d="m 44.82407,34.974539 c -0.265852,-0.671205 -0.325146,-1.088794 -0.17258,-1.215412 0.107868,-0.08952 0.163842,-0.03708 0.259231,0.24287 0.08338,0.244696 0.214164,1.341169 0.180222,1.510903 -0.0099,0.04949 -0.129991,-0.192768 -0.266873,-0.538361 z"
       id="path3879"
       inkscape:connector-curvature="0"
       transform="translate(0,992.36218)" />
    <path
       style="fill:#ffff00;fill-opacity:1;fill-rule:evenodd;stroke:#000000;stroke-width:0.0261976;stroke-linecap:round;stroke-linejoin:round;stroke-miterlimit:4;stroke-opacity:1;stroke-dasharray:none"
       d="m 30.611869,55.337602 c -0.144087,-0.05203 -0.568488,-0.278961 -0.943114,-0.504299 -1.301406,-0.782795 -2.036472,-1.065265 -2.893897,-1.112061 -0.43109,-0.02353 -0.582006,-0.01173 -0.770388,0.06021 -0.264147,0.100879 -0.537278,0.38006 -0.581599,0.594483 -0.12827,0.620548 -0.118731,0.61659 -1.465194,0.607989 -1.460034,-0.0093 -3.413335,-0.205637 -4.176378,-0.419736 -0.166877,-0.04682 -0.303157,-0.09971 -0.302845,-0.117526 3.15e-4,-0.01781 0.144321,-0.114914 0.320019,-0.215775 0.5698,-0.327098 0.793236,-0.71331 0.672366,-1.16219 -0.155678,-0.578143 -0.643773,-0.884371 -1.643617,-1.031195 -0.70475,-0.103491 -2.457163,-1.075062 -5.051825,-2.800829 l -1.432281,-0.952642 5.445443,-0.01334 5.445442,-0.01334 0.492827,0.230072 c 0.936711,0.437297 1.669001,0.591368 2.536239,0.533614 0.288173,-0.01919 1.231287,-0.138184 2.095808,-0.26443 0.864521,-0.126246 1.925524,-0.269257 2.357784,-0.317802 0.432261,-0.04854 0.831261,-0.112132 0.886667,-0.141303 0.05851,-0.0308 0.462483,-0.04899 0.96361,-0.04338 0.818721,0.0092 0.871205,0.016 1.025758,0.133539 0.895519,0.681055 3.445272,0.665498 5.564197,-0.03395 0.452992,-0.149531 0.572839,-0.169669 0.838323,-0.140864 0.170373,0.01849 1.706756,0.03617 3.414185,0.0393 1.707429,0.0031 3.104416,0.01783 3.104416,0.03268 0,0.09291 -0.369756,0.653906 -0.589364,0.894192 -0.493172,0.539608 -1.081397,0.727322 -3.104498,0.990705 -2.28035,0.296873 -3.320441,0.603463 -3.896305,1.148524 -0.162421,0.153733 -0.366046,0.315285 -0.452498,0.359005 -0.386512,0.195461 -1.136553,0.412582 -2.115559,0.61241 -1.466138,0.299258 -2.07509,0.528119 -2.384906,0.896314 -0.243086,0.288892 -0.16259,0.673026 0.185377,0.884637 0.189145,0.115027 0.173925,0.129578 -0.470467,0.449774 -0.615449,0.305815 -1.556556,0.684217 -2.024769,0.814124 -0.450244,0.12492 -0.709443,0.125684 -1.048957,0.0031 l 0,0 z"
       id="path3881"
       inkscape:connector-curvature="0"
       transform="translate(0,992.36218)" />
    <path
       style="fill:#ffff00;fill-opacity:1;fill-rule:evenodd;stroke:#000000;stroke-width:0.0261976;stroke-linecap:round;stroke-linejoin:round;stroke-miterlimit:4;stroke-opacity:1;stroke-dasharray:none"
       d="m 25.768118,44.349383 c -0.156952,-0.04219 -0.296454,-0.08779 -0.310005,-0.101342 -0.03417,-0.03417 0.295276,-0.03078 0.95951,0.0099 0.501995,0.03072 0.55029,0.042 0.440411,0.102934 -0.163099,0.09044 -0.733108,0.08445 -1.089916,-0.01145 z"
       id="path3883"
       inkscape:connector-curvature="0"
       transform="translate(0,992.36218)" />
    <path
       style="fill:#ffff00;fill-opacity:1;fill-rule:evenodd;stroke:#000000;stroke-width:0.0261976;stroke-linecap:round;stroke-linejoin:round;stroke-miterlimit:4;stroke-opacity:1;stroke-dasharray:none"
       d="m 18.702521,43.145549 c -0.08484,-0.102924 -0.194482,-0.30923 -0.243652,-0.458458 -0.108763,-0.330095 -0.161705,-1.189101 -0.09099,-1.476412 0.05048,-0.20512 0.05169,-0.202255 0.05684,0.134577 0.0068,0.445282 0.11887,0.81396 0.343713,1.130817 0.09916,0.139736 0.2454,0.345296 0.324981,0.456798 l 0.144693,0.202731 -0.121693,0.09854 c -0.171425,0.138812 -0.238234,0.124512 -0.413893,-0.08859 l 0,0 z"
       id="path3885"
       inkscape:connector-curvature="0"
       transform="translate(0,992.36218)" />
    <path
       style="fill:#ffff00;fill-opacity:1;fill-rule:evenodd;stroke:#000000;stroke-width:0.0261976;stroke-linecap:round;stroke-linejoin:round;stroke-miterlimit:4;stroke-opacity:1;stroke-dasharray:none"
       d="m 48.477363,48.729391 c 0.04773,-0.183546 0.528807,-0.98721 0.918107,-1.53375 0.526344,-0.738936 1.077602,-1.295591 1.283028,-1.295591 0.04343,0 -0.183826,0.390706 -0.518086,0.890718 -0.58355,0.872923 -1.757581,2.225234 -1.683049,1.938623 z"
       id="path3887"
       inkscape:connector-curvature="0"
       transform="translate(0,992.36218)" />
    <path
       style="fill:#ffff00;fill-opacity:1;fill-rule:evenodd;stroke:#000000;stroke-width:0.0261976;stroke-linecap:round;stroke-linejoin:round;stroke-miterlimit:4;stroke-opacity:1;stroke-dasharray:none"
       d="m 53.479265,41.361481 c -0.129679,-0.03854 -0.306512,-0.128939 -0.392965,-0.20089 -0.13211,-0.109949 -0.144648,-0.139247 -0.07859,-0.18365 0.162973,-0.109554 0.749377,-0.03835 0.961484,0.116745 0.120573,0.08817 0.06586,0.226679 -0.114263,0.289262 -0.09525,0.03309 -0.215125,0.02624 -0.375664,-0.02147 z"
       id="path3889"
       inkscape:connector-curvature="0"
       transform="translate(0,992.36218)" />
    <path
       style="fill:#ffff00;fill-opacity:1;fill-rule:evenodd;stroke:#000000;stroke-width:0.0261976;stroke-linecap:round;stroke-linejoin:round;stroke-miterlimit:4;stroke-opacity:1;stroke-dasharray:none"
       d="m 28.539145,8.8033195 c 0,-0.01584 0.03534,-0.097143 0.07854,-0.1806747 0.135258,-0.2615599 0.654996,-0.5829571 0.654996,-0.4050386 0,0.105504 -0.263513,0.4331393 -0.427246,0.5312119 -0.136028,0.081477 -0.306287,0.1117737 -0.306287,0.054501 z"
       id="path3891"
       inkscape:connector-curvature="0"
       transform="translate(0,992.36218)" />
    <path
       style="fill:#ffff00;fill-opacity:1;fill-rule:evenodd;stroke:#000000;stroke-width:0.0261976;stroke-linecap:round;stroke-linejoin:round;stroke-miterlimit:4;stroke-opacity:1;stroke-dasharray:none"
       d=""
       id="path3893"
       inkscape:connector-curvature="0"
       transform="translate(0,992.36218)" />
    <path
       style="fill:#ffff00;fill-opacity:1;fill-rule:evenodd;stroke:#000000;stroke-width:0.0261976;stroke-linecap:round;stroke-linejoin:round;stroke-miterlimit:4;stroke-opacity:1;stroke-dasharray:none"
       d="m 39.072652,13.377404 c -0.08396,-0.236029 -0.128145,-0.815027 -0.08443,-1.106515 l 0.03644,-0.24301 0.129472,0.15387 c 0.2185,0.259672 0.492797,0.750407 0.492797,0.881645 0,0.180505 -0.08664,0.315029 -0.260927,0.405159 -0.214081,0.110705 -0.244713,0.101795 -0.31335,-0.09115 z"
       id="path3895"
       inkscape:connector-curvature="0"
       transform="translate(0,992.36218)" />
    <path
       style="fill:#ffff00;fill-opacity:1;fill-rule:evenodd;stroke:#000000;stroke-width:0.0261976;stroke-linecap:round;stroke-linejoin:round;stroke-miterlimit:4;stroke-opacity:1;stroke-dasharray:none"
       d="M 37.444214,10.123667 C 37.110376,9.8266302 36.656289,9.1855338 36.728552,9.1132703 c 0.04227,-0.042274 0.356302,0.2544349 0.557242,0.5265094 0.202623,0.2743544 0.390842,0.6044153 0.360882,0.6328433 -0.0093,0.0089 -0.100437,-0.05818 -0.202462,-0.148956 z"
       id="path3897"
       inkscape:connector-curvature="0"
       transform="translate(0,992.36218)" />
    <path
       style="fill:#ffff00;fill-opacity:1;fill-rule:evenodd;stroke:#000000;stroke-width:0.0261976;stroke-linecap:round;stroke-linejoin:round;stroke-miterlimit:4;stroke-opacity:1;stroke-dasharray:none"
       d="m 42.217362,11.283338 c -0.127991,-0.0658 -0.279884,-0.184374 -0.33754,-0.263504 -0.100273,-0.137619 -0.101148,-0.154696 -0.02014,-0.392964 0.110958,-0.326352 0.316125,-0.8716259 0.338945,-0.9008156 0.0099,-0.01264 0.122757,0.027931 0.250835,0.090156 0.308899,0.1500748 0.509181,0.4538556 0.539389,0.8181266 0.04896,0.590429 -0.305459,0.888579 -0.77149,0.649001 l 0,0 z"
       id="path3899"
       inkscape:connector-curvature="0"
       transform="translate(0,992.36218)"
       inkscape:export-filename="/home/marcin/programs/bomberman/images/flame.png"
       inkscape:export-xdpi="90"
       inkscape:export-ydpi="90" />
  </g>
</svg>
