<?xml version="1.0" encoding="UTF-8" standalone="no"?>
<!-- Created with Inkscape (http://www.inkscape.org/) -->

<svg
   xmlns:dc="http://purl.org/dc/elements/1.1/"
   xmlns:cc="http://creativecommons.org/ns#"
   xmlns:rdf="http://www.w3.org/1999/02/22-rdf-syntax-ns#"
   xmlns:svg="http://www.w3.org/2000/svg"
   xmlns="http://www.w3.org/2000/svg"
   xmlns:sodipodi="http://sodipodi.sourceforge.net/DTD/sodipodi-0.dtd"
   xmlns:inkscape="http://www.inkscape.org/namespaces/inkscape"
   width="60"
   height="60"
   id="svg2"
   version="1.1"
   inkscape:version="0.48.2 r9819"
   sodipodi:docname="flamepass.svg"
   inkscape:export-filename="/home/marcin/programs/bomberman/images/detonator.png"
   inkscape:export-xdpi="90"
   inkscape:export-ydpi="90">
  <defs
     id="defs4" />
  <sodipodi:namedview
     id="base"
     pagecolor="#ffffff"
     bordercolor="#666666"
     borderopacity="1.0"
     inkscape:pageopacity="0.0"
     inkscape:pageshadow="2"
     inkscape:zoom="6.0693332"
     inkscape:cx="60.108742"
     inkscape:cy="33.076085"
     inkscape:document-units="px"
     inkscape:current-layer="layer1"
     showgrid="false"
     inkscape:window-width="1366"
     inkscape:window-height="688"
     inkscape:window-x="0"
     inkscape:window-y="25"
     inkscape:window-maximized="1"
     showguides="true"
     inkscape:guide-bbox="true" />
  <metadata
     id="metadata7">
    <rdf:RDF>
      <cc:Work
         rdf:about="">
        <dc:format>image/svg+xml</dc:format>
        <dc:type
           rdf:resource="http://purl.org/dc/dcmitype/StillImage" />
        <dc:title></dc:title>
      </cc:Work>
    </rdf:RDF>
  </metadata>
  <g
     inkscape:label="Layer 1"
     inkscape:groupmode="layer"
     id="layer1"
     transform="translate(0,-992.36218)">
    <rect
       style="fill:#ffff00;fill-opacity:1;fill-rule:evenodd;stroke:#ffb60d;stroke-width:3.07504582000000015;stroke-linecap:round;stroke-linejoin:round;stroke-miterlimit:4;stroke-opacity:1;stroke-dasharray:none"
       id="rect2985"
       width="56.924953"
       height="56.924953"
       x="1.5375229"
       y="993.89972" />
    <path
       style="fill:#ffb60d;fill-opacity:1;stroke:none"
       d="m 52.54291,1029.3836 c -0.865858,1.1141 -0.951478,1.5576 -0.52122,2.6996 0.482879,1.282 0.394272,1.4624 -1.433616,2.9166 -1.071569,0.8524 -1.952253,1.8348 -1.957137,2.183 -0.01221,0.8592 -5.977125,3.6977 -7.808535,3.7157 l -1.472184,0.015 1.204315,0.5438 c 1.170396,0.5284 1.13114,0.5582 -1.389774,1.0509 -1.426735,0.2789 -3.155026,0.3923 -3.840556,0.252 -1.47211,-0.3009 -1.68682,0.4212 -0.367707,1.2367 0.753205,0.4657 0.628243,0.4867 -0.875487,0.1474 -2.68513,-0.6061 -4.489042,-0.4768 -5.891949,0.4222 -0.702179,0.45 -1.867691,0.8127 -2.589881,0.8058 -1.144354,-0.011 -1.198815,-0.067 -0.423843,-0.4342 1.096156,-0.52 0.674299,-1.1898 -0.749307,-1.1898 -1.743189,0 -6.477264,-1.3531 -5.845967,-1.6709 0.364418,-0.1836 -0.05346,-0.563 -1.125335,-1.0215 l -1.705073,-0.7295 1.255336,-0.2794 1.255337,-0.2794 -1.597146,-0.5791 c -1.810099,-0.6563 -5.683809,-4.0461 -5.683809,-4.9737 0,-0.3366 -0.778255,-1.5543 -1.729515,-2.7059 -1.3466135,-1.6304 -1.488607,-1.9565 -0.6414557,-1.473 1.6159357,0.9221 1.8785367,0.7624 1.0286347,-0.6257 -0.42728,-0.6978 -0.630074,-1.6789 -0.460659,-2.2288 0.175832,-0.5709 -0.119308,-1.8542 -0.7046995,-3.0643 -0.5539972,-1.1452 -0.9982354,-2.6735 -0.9871595,-3.3965 l 0.019852,-1.3145 0.7491538,1.125 c 0.9458387,1.4206 1.6084507,1.4294 2.0403912,0.028 0.18599,-0.6037 0.640768,-1.5703 1.010686,-2.1478 0.369917,-0.5775 0.673993,-1.6376 0.675674,-2.3555 0,-0.718 0.229069,-1.4193 0.505266,-1.5584 0.276198,-0.139 0.502135,-0.6211 0.502135,-1.071 0,-0.4757 0.224334,-0.7053 0.535896,-0.5484 0.294834,0.1485 0.659405,-0.1148 0.810335,-0.585 0.150855,-0.4701 0.455848,-0.7633 0.677738,-0.6516 0.22189,0.1117 0.778332,-0.7167 1.236623,-1.8409 0.91223,-2.2375 1.603333,-2.8638 2.06911,-1.8748 0.714553,1.5171 1.255718,0.4548 1.122509,-2.2036 -0.07829,-1.5637 0.01986,-2.9753 0.217689,-3.1366 0.197981,-0.1613 0.359988,0.2067 0.359988,0.8179 0,1.3663 1.032531,3.0541 2.532672,4.14 0.874649,0.6331 1.182697,0.6918 1.367236,0.2603 0.130994,-0.3062 0.757632,-0.9249 1.392518,-1.3747 0.634811,-0.4497 1.291847,-1.2641 1.459965,-1.8098 0.168117,-0.5458 0.864185,-1.1653 1.546963,-1.3768 0.935143,-0.2897 1.241282,-0.6837 1.241282,-1.5978 0,-0.6674 0.203253,-1.3157 0.451647,-1.4408 0.24847,-0.1251 0.81278,1.4809 1.14443,0.3545 0.805371,-0.73351 0.311868,-1.14461 1.058042,-0.97711 3.194907,0.71661 0.517258,2.36701 1.36296,2.95701 0.552394,0.3852 1.004266,0.9785 1.004266,1.3183 0,0.908 1.055069,0.7524 1.360976,-0.2006 0.14444,-0.4501 0.469518,-0.8182 0.722422,-0.8182 0.252827,0 0.664064,-0.4143 0.913834,-0.9206 0.429421,-0.8703 0.455846,-0.8747 0.485945,-0.08 0.03589,0.939 2.418018,4.1734 3.712081,5.0395 0.4615,0.3088 0.838981,1.0912 0.838981,1.7388 0,1.5045 0.992045,1.5542 1.040928,0.051 0.02903,-0.897 0.429114,-0.4777 1.972494,2.068 1.517317,2.5026 1.875255,3.4979 1.655188,4.6026 -0.22662,1.1378 -0.118237,1.4094 0.562416,1.4094 0.463704,0 1.12976,0.5555 1.480046,1.2342 0.739532,1.4329 1.429255,1.1839 1.036879,-0.3744 -0.258702,-1.0274 -0.238076,-1.0218 0.594031,0.163 0.526191,0.7492 0.942321,2.4229 1.068047,4.2956 0.113353,1.6877 0.509545,3.7249 0.880379,4.5272 0.610067,1.3195 0.575618,1.5858 -0.361601,2.7917 z m -2.167033,-5.9369 c -0.641223,0.2005 -0.718067,0 -0.446218,-1.1835 0.365634,-1.5882 0.166814,-1.7359 -1.026872,-0.7633 -0.447145,0.3642 -0.956613,0.5453 -1.132213,0.4023 -0.175601,-0.1431 -0.05189,-0.478 0.274978,-0.7443 0.326836,-0.2663 0.594172,-0.8278 0.594172,-1.248 0,-0.5611 -0.250308,-0.6993 -0.942016,-0.5204 -1.107172,0.2863 -1.716007,-0.9995 -1.226249,-2.5896 0.197676,-0.6416 0.119535,-0.8999 -0.220296,-0.7287 -0.292922,0.1475 -0.754336,-0.2675 -1.040084,-0.9356 -0.300947,-0.7032 -1.205232,-1.4893 -2.183075,-1.8976 -2.007466,-0.8381 -2.377769,-1.2474 -2.05062,-2.2668 0.25962,-0.8089 -0.632594,-1.9982 -1.499078,-1.9982 -0.276193,0 -0.193854,0.3029 0.183095,0.6728 0.607234,0.5961 0.561939,0.6408 -0.398414,0.3924 -0.613494,-0.1586 -1.230285,-0.087 -1.421697,0.1654 -0.478683,0.6311 -1.755025,-0.2979 -1.755025,-1.2774 0,-0.4826 -0.694617,-1.0314 -1.882968,-1.4873 -1.035663,-0.3973 -1.911305,-0.9511 -1.94583,-1.2306 -0.03437,-0.2794 -0.09105,-0.6337 -0.125495,-0.7874 -0.03437,-0.1535 -1.78199,1.1353 -3.88318,2.8639 -2.10119,1.7286 -4.13486,3.143 -4.519214,3.143 -0.384429,0 -0.698894,0.1644 -0.698894,0.3655 0,0.2009 -0.313395,0.4632 -0.696375,0.583 -0.488538,0.1527 -0.620908,-0.018 -0.443549,-0.57 0.139015,-0.4332 0.497552,-0.7877 0.79674,-0.7877 0.362356,0 0.345551,-0.1617 -0.05041,-0.4841 -0.326762,-0.2663 -0.676744,-0.4044 -0.777644,-0.3068 -0.100828,0.097 -1.200954,1.4017 -2.444757,2.8981 -1.611276,1.9385 -2.453081,2.6242 -2.927948,2.3852 -0.875948,-0.4411 -2.959495,2.9547 -2.981263,4.8589 -0.01222,1.0922 -0.181331,1.3215 -0.824695,1.1204 -0.634964,-0.1985 -0.752745,-0.055 -0.547049,0.6722 1.026803,3.6246 1.024817,3.6875 -0.100751,3.1968 -1.337219,-0.5831 -1.367543,0.03 -0.04964,1.0011 0.736779,0.5433 1.004269,1.2601 1.004269,2.6914 0,1.4839 0.30041,2.2416 1.255414,3.1662 1.537491,1.4888 1.546734,1.62 0.125495,1.7863 -1.105551,0.1294 -1.097456,0.1571 0.376639,1.2869 2.920999,2.2391 6.345811,4.3655 7.030804,4.3655 1.012671,0 1.49426,0.8537 0.705693,1.2508 -1.004805,0.506 -0.395277,0.7728 2.22195,0.9728 1.804523,0.1378 2.343931,0.044 2.343931,-0.4086 0,-0.8301 1.378465,-0.729 2.840798,0.2082 1.186211,0.7601 1.316976,0.7647 2.918248,0.1025 0.922082,-0.3815 1.47226,-0.755 1.222645,-0.83 -1.016032,-0.3053 -0.346011,-0.8658 1.343712,-1.124 0.98861,-0.1512 1.909399,-0.5124 2.046121,-0.8027 0.136799,-0.2903 1.367693,-0.6532 2.735464,-0.8065 2.1736,-0.2435 2.571553,-0.441 3.159693,-1.5683 0.370071,-0.7093 1.244033,-1.7846 1.942085,-2.3894 0.698057,-0.605 1.14772,-1.1989 0.999297,-1.3199 -0.148478,-0.121 0.01602,-0.5005 0.365263,-0.8434 0.412925,-0.4055 0.44394,-0.6236 0.08852,-0.6236 -0.593028,0 1.922306,-3.237 3.171993,-4.082 0.421701,-0.2851 0.759471,-0.8181 0.750685,-1.1843 -0.01374,-0.591 -0.09092,-0.5854 -0.683009,0.049 -0.366931,0.3938 -0.811634,0.716 -0.988303,0.716 -0.666743,0 -0.278335,-0.8124 0.918185,-1.9206 1.421233,-1.316 1.619606,-1.9579 0.496714,-1.6069 z m -5.469258,-1.3406 c -0.119917,0.098 -0.282764,1.9474 -0.361892,4.1103 l -0.143754,3.9326 -1.139697,-0.667 c -0.714249,-0.4178 -1.113264,-1.0487 -1.068809,-1.6897 0.132447,-1.9105 -0.07913,-2.9127 -0.563472,-2.6689 -0.304837,0.1535 -0.309342,0.6152 -0.01224,1.2515 0.640689,1.3732 0.111213,1.267 -1.99418,-0.3995 -0.994265,-0.787 -2.442996,-1.4789 -3.28511,-1.5686 -0.828514,-0.088 -1.483798,-0.3753 -1.456149,-0.6377 0.02749,-0.2624 0.08411,-0.6757 0.125501,-0.9186 0.05045,-0.2973 1.125256,-0.3502 3.286411,-0.1616 2.782822,0.2429 3.340409,0.1748 4.180991,-0.5101 1.302845,-1.0614 2.650682,-1.4596 2.650682,-0.783 0,0.2929 -0.09808,0.6127 -0.218068,0.7103 z m -0.587377,12.1212 c -0.166891,-0.1359 -0.184689,-0.4888 -0.03975,-0.784 0.160251,-0.3265 0.279251,-0.2295 0.303389,0.2471 0.02141,0.4313 -0.09692,0.6729 -0.263825,0.5369 z m -0.725318,-14.208 c -0.496412,0 -1.597838,-0.5665 -2.447662,-1.2589 -0.978452,-0.7973 -1.544981,-1.0406 -1.544981,-0.6637 0,0.3272 0.344332,0.828 0.765274,1.1125 0.420941,0.2846 0.648861,0.6124 0.506486,0.7284 -0.142299,0.116 -0.01525,0.4499 0.282155,0.742 0.957372,0.9398 0.120303,1.1954 -3.889747,1.1879 -3.431535,-0.011 -3.949786,-0.1036 -4.107745,-0.7717 -0.1161,-0.491 0.02368,-0.6613 0.391306,-0.4763 0.314693,0.1585 1.353943,-0.1979 2.309559,-0.7917 1.624948,-1.0098 1.716916,-1.1908 1.420473,-2.7965 -0.352272,-1.9085 -1.192777,-3.0318 -1.192777,-1.5941 0,0.978 -0.496481,1.1501 -1.33875,0.4638 -0.294448,-0.2399 -1.300018,-0.5063 -2.234549,-0.5922 l -1.699117,-0.1562 1.631899,0.447 c 0.897642,0.2457 1.631977,0.684 1.631977,0.9737 0,0.2899 0.453555,0.6443 1.007938,0.7876 0.952481,0.2464 0.925594,0.3277 -0.488541,1.4798 -1.135723,0.9254 -1.711489,1.1315 -2.388768,0.8551 -0.490831,-0.2002 -2.101954,-0.2945 -3.580174,-0.2096 -1.478295,0.085 -2.977214,-0.041 -3.330863,-0.2804 -0.826452,-0.5589 -1.262364,0.2986 -1.262364,2.4833 0,1.72 -0.258018,1.8833 -1.631976,1.0335 -0.707679,-0.4376 -0.816905,-0.9109 -0.561254,-2.4309 0.232812,-1.3839 0.10388,-2.153 -0.483728,-2.8838 -0.77245,-0.9604 -0.743195,-1.0324 0.812246,-1.9974 0.887481,-0.5506 2.122043,-1.132 2.743486,-1.2921 0.621367,-0.1601 1.129765,-0.4321 1.129765,-0.6046 0,-0.1724 1.371744,-0.2554 3.048174,-0.1843 2.140832,0.091 3.507152,0.3954 4.589866,1.0235 1.400465,0.8126 1.595997,0.8338 2.136479,0.2316 1.247168,-1.3896 5.965197,0.9664 7.719236,3.8548 0.912994,1.5033 0.915743,1.5799 0.05654,1.5799 z m -18.835405,-4.5004 c -0.121829,0 -0.221431,0.1842 -0.221431,0.4092 0,0.225 0.239305,0.4091 0.531771,0.4091 0.292466,0 0.392145,-0.1841 0.221431,-0.4091 -0.170713,-0.225 -0.409941,-0.4092 -0.531771,-0.4092 z m 17.795539,16.9256 c -0.5873,0.3351 -1.325764,1.0309 -1.641068,1.5462 -0.315227,0.5151 -1.337672,1.3563 -2.272054,1.8693 -2.984393,1.6386 -7.322279,0.9922 -4.79755,-0.7149 0.686369,-0.464 0.667268,-0.6138 -0.17629,-1.3798 -0.52039,-0.4724 -1.085692,-1.1811 -1.256254,-1.575 -0.20562,-0.4744 -0.837527,-0.7159 -1.874183,-0.7159 -2.023052,0 -1.719204,-1.0039 0.323859,-1.07 2.865698,-0.093 3.043057,-0.1458 2.051008,-0.6158 -0.503281,-0.2385 -1.454617,-0.3233 -2.114022,-0.1884 -1.648857,0.3371 -2.500057,-0.918 -1.45057,-2.1387 1.093484,-1.2721 -0.0092,-2.646 -1.944684,-2.4223 -1.669632,0.1929 -2.000595,-0.1283 -1.570565,-1.5242 0.225021,-0.7307 0.999229,-1.2866 2.589883,-1.8598 1.247851,-0.4497 2.571091,-0.8178 2.940551,-0.8178 0.839056,0 1.595159,1.1243 2.116008,3.1462 0.327678,1.2722 0.627325,1.5668 1.630371,1.603 2.333237,0.084 2.484169,0.1648 2.484169,1.3241 0,0.646 0.448823,1.4949 1.008551,1.9076 0.928267,0.6845 0.94729,0.8196 0.239533,1.6998 -0.908334,1.1294 -0.888703,1.1341 1.436209,0.3425 2.257389,-0.7684 2.197585,-0.7722 2.823379,0.1805 0.418578,0.6373 0.310645,0.9144 -0.546281,1.4034 z m -10.121752,3.0188 c -0.284141,0.5062 -0.764506,0.9284 -1.067514,0.9383 -0.303083,0.011 -1.528861,0.1717 -2.723932,0.3599 -2.107836,0.3319 -2.284737,0.2742 -5.900122,-1.926 -2.049938,-1.2474 -3.727208,-2.4914 -3.727208,-2.7646 0,-0.273 -0.34433,-0.7292 -0.765271,-1.0138 -0.420942,-0.2847 -0.648865,-0.6125 -0.506565,-0.7283 0.142376,-0.1161 0.01528,-0.4501 -0.282155,-0.7421 -0.732273,-0.7188 -0.13955,-1.3852 1.232193,-1.3852 0.618847,0 1.396414,-0.2209 1.727835,-0.4909 0.468681,-0.3819 0.602578,-0.2985 0.602578,0.375 0,1.2983 0.967148,1.3105 2.536567,0.033 1.422461,-1.159 2.986915,-1.1992 2.986915,-0.077 0,0.3135 0.230062,0.5699 0.511225,0.5699 0.287883,0 0.452486,0.7598 0.376638,1.7388 -0.132827,1.7149 -0.112739,1.7379 1.464701,1.6812 1.887702,-0.068 2.494021,0.7551 1.283292,1.7415 -0.786123,0.6406 -0.734489,0.6723 0.796663,0.4892 1.921541,-0.2298 2.151067,-0.04 1.45416,1.2019 z m -5.209935,-2.2501 c -1.08363,0 -1.176434,0.071 -0.498164,0.3801 0.458522,0.209 1.057814,0.2672 1.331797,0.1292 0.784747,-0.3952 0.597841,-0.5093 -0.833633,-0.5093 z m -5.464516,-2.6397 c 0.280474,-0.8333 0.251526,-0.8553 -0.254886,-0.1946 -0.658642,0.8594 -0.202412,2.8929 0.562477,2.5077 0.34074,-0.1715 0.321949,-0.4442 -0.05576,-0.8154 -0.312402,-0.3066 -0.425599,-0.9806 -0.251449,-1.4977 z m 8.051724,-21.0451 c -0.414294,0.3375 -0.753202,0.7717 -0.753202,0.9649 0,0.1931 -0.483038,0.381 -1.073319,0.4172 -1.006713,0.062 -0.98357,-0.015 0.372668,-1.2427 0.795289,-0.7196 1.617311,-1.4833 1.826521,-1.697 0.212112,-0.2166 0.380535,-0.094 0.380535,0.2776 0,0.3664 -0.338983,0.9425 -0.753203,1.28 z m -6.284934,15.6089 c -0.280703,0.1413 -0.364724,0.4489 -0.186753,0.6835 0.484414,0.6386 -0.915742,1.1816 -1.692547,0.6564 -0.486248,-0.3288 -0.822557,-0.3225 -1.247088,0.024 -0.796739,0.6491 -2.053146,0.5984 -1.738223,-0.07 0.140771,-0.299 0.05042,-1.4394 -0.200426,-2.5343 -0.766875,-3.3444 1.12839,-8.0824 2.266481,-5.6659 0.172546,0.3662 0.16888,1.555 -0.0076,2.6418 -0.318971,1.9593 -0.306292,1.9821 1.497622,2.6828 1.867154,0.7255 2.203389,1.1319 1.309032,1.5822 z m -7.827314,-7.2745 c -0.166817,-0.1358 -0.184691,-0.4888 -0.03971,-0.7841 0.160325,-0.3263 0.279253,-0.2295 0.30339,0.2471 0.02215,0.4313 -0.09685,0.673 -0.263748,0.537 z m -1.535582,5.9407 c -0.139245,-0.2813 -0.139245,-0.7415 0,-1.0228 0.139321,-0.2812 0.253282,-0.051 0.253282,0.5114 0,0.5626 -0.113961,0.7927 -0.253282,0.5114 z m 34.197274,6.8526 c -0.430575,0 -0.643218,0.1842 -0.472502,0.4092 0.170706,0.225 0.522986,0.4091 0.782833,0.4091 0.259858,0 0.472501,-0.1841 0.472501,-0.4091 0,-0.225 -0.352269,-0.4092 -0.782832,-0.4092 z m -2.233499,3.8885 c -0.658946,0.3317 -2.146794,2.6782 -1.851038,2.9193 0.238386,0.1941 2.242727,-2.2672 2.315058,-2.8429 0.02289,-0.1822 -0.185913,-0.2165 -0.46402,-0.076 z m -6.022101,-27.8215 c -0.276202,-0.1391 -0.502142,-0.165 -0.502142,-0.057 0,0.1079 -0.126024,0.4628 -0.279937,0.7895 -0.153982,0.3269 0.07179,0.7043 0.502134,0.839 0.886262,0.2771 1.13855,-1.1385 0.279945,-1.5708 z m -2.510756,1.8409 c -0.377935,-0.4765 -0.488463,-0.3568 -0.494417,0.5356 -0.0077,0.6631 0.204707,1.0422 0.494417,0.8963 0.623507,-0.3139 0.623507,-0.646 0,-1.4319 z m -1.486771,-2.0336 c -0.256947,-0.3311 -0.590049,-0.5017 -0.740296,-0.3794 -0.150316,0.1224 0.05654,0.5774 0.458827,1.0111 0.800941,0.8624 1.03452,0.3384 0.281469,-0.6317 z m -6.547384,-1.0347 c -0.276197,0.139 -0.502135,0.4369 -0.502135,0.6619 0,0.225 0.225938,0.2954 0.502135,0.1563 0.27612,-0.139 0.502135,-0.437 0.502135,-0.662 0,-0.225 -0.226015,-0.2953 -0.502135,-0.1562 z m -10.71539,4.7047 c -0.658795,0 -1.838132,1.6332 -1.838132,2.5453 0,0.2537 0.56492,0.029 1.255337,-0.4996 1.366243,-1.0458 1.650995,-2.0457 0.582795,-2.0457 z m -2.099968,3.5074 c -0.40261,-0.4336 -0.891301,-0.6586 -1.085923,-0.5 -0.194621,0.1585 0.141917,0.6923 0.748008,1.1861 1.23395,1.0053 1.467755,0.5307 0.337915,-0.6861 z"
       id="path3050"
       inkscape:connector-curvature="0"
       sodipodi:nodetypes="ccsccccsscscssssscccsssssssccssscsssssssccsccsscsccssscscccscsssssccccccccccsccccccscccssccsssccsccsscssssssssssssscssssssccscccsscccscssccssscssscccccccssssscscccsssscsssscscsccscssssccsssscsscssscsscscscssssssssssccssssscscsssssscsccsccsscccssssccssccssssccscccccccssssscssscsccsssssccscccccssssssscsssss" />
    <path
       style="fill:none;fill-opacity:1;fill-rule:evenodd;stroke:none;stroke-width:0.02619760000000000;stroke-linecap:round;stroke-linejoin:round;stroke-miterlimit:4;stroke-opacity:1;stroke-dasharray:none"
       d="m 59.648465,1037.5284 c -1.178394,-0.8561 -2.597427,-1.9644 -2.626322,-2.051 -0.01229,-0.037 0.214597,-0.089 0.630998,-0.1447 1.27205,-0.1705 1.585332,-0.3284 1.575359,-0.7942 -0.0069,-0.3237 -0.241452,-0.6505 -1.041676,-1.4515 -1.122361,-1.1236 -1.425472,-1.5057 -1.717969,-2.166 -0.219041,-0.4945 -0.297009,-0.957 -0.352569,-2.0916 -0.06359,-1.2987 -0.127622,-1.8128 -0.289566,-2.3248 -0.21982,-0.6951 -0.506437,-1.0679 -1.351171,-1.7576 -0.543535,-0.4437 -0.918781,-0.8421 -0.854109,-0.9068 0.01816,-0.018 0.250883,0.044 0.51717,0.1386 0.266287,0.094 0.654675,0.2321 0.863084,0.306 0.337455,0.1196 0.401934,0.1274 0.589141,0.071 0.306865,-0.092 0.390586,-0.2819 0.350906,-0.7965 -0.04039,-0.5237 -0.121134,-0.8753 -0.61282,-2.6681 -0.225244,-0.8213 -0.425848,-1.5817 -0.445786,-1.6897 -0.033,-0.1789 -0.02583,-0.1965 0.07991,-0.1965 0.06389,0 0.261028,0.038 0.438092,0.084 0.185961,0.048 0.431211,0.073 0.58066,0.059 0.213108,-0.02 0.288649,-0.057 0.428432,-0.2097 0.221873,-0.2421 0.276539,-0.4486 0.336026,-1.2692 0.06197,-0.8548 0.08195,-0.9885 0.236995,-1.5853 0.368153,-1.4172 1.406314,-3.3242 2.305694,-4.2353 0.508068,-0.5147 0.596262,-0.5543 1.140673,-0.5125 0.40159,0.031 0.465573,0.022 0.735808,-0.1017 0.805984,-0.369 1.667203,-1.2419 4.067722,-4.1228 1.124998,-1.3502 2.255017,-2.6722 2.284113,-2.6722 0.06447,0 0.536638,0.2712 0.675872,0.3881 0.140145,0.1178 0.145517,0.1323 0.04955,0.134 -0.162926,0 -0.557391,0.2739 -0.747046,0.5134 -0.374624,0.473 -0.573371,1.1833 -0.428761,1.5325 0.149398,0.3606 0.655131,0.404 1.272963,0.1092 0.389173,-0.1858 0.770206,-0.5629 0.770206,-0.7623 0,-0.1653 0.194901,-0.2724 0.581252,-0.3192 0.777536,-0.094 2.585479,-1.3265 6.256323,-4.2642 2.602147,-2.08244 4.440685,-3.47174 4.50229,-3.40214 0.0092,0.01 0.04505,0.184 0.07956,0.3857 0.03451,0.2017 0.109472,0.4424 0.166581,0.5348 0.23537,0.3808 1.100505,0.90294 2.472519,1.49214 0.964028,0.414 1.42888,0.6581 1.756913,0.9225 0.487402,0.3928 0.567481,0.5187 0.635619,0.9992 0.02981,0.2102 0.113181,0.5068 0.185262,0.6592 0.186105,0.3934 0.686078,0.9189 1.067801,1.1224 0.564038,0.3006 1.030513,0.2743 1.423022,-0.08 0.109327,-0.099 0.277029,-0.2021 0.372671,-0.2295 0.298611,-0.086 0.84496,-0.055 1.448108,0.081 0.587031,0.1325 0.830775,0.1554 1.044966,0.098 0.09943,-0.027 0.117889,-0.067 0.117889,-0.2604 0,-0.2125 -0.03042,-0.2627 -0.425874,-0.7032 -0.234231,-0.261 -0.411591,-0.4888 -0.394132,-0.5062 0.01746,-0.018 0.137998,0.01 0.267867,0.058 0.346358,0.1323 0.865489,0.6585 1.06575,1.0804 0.234135,0.4932 0.251744,0.6852 0.115686,1.2619 -0.306404,1.2987 0.157514,1.849 2.424395,2.876 1.10679,0.5015 1.252381,0.5831 1.84514,1.0341 0.595233,0.4528 0.984773,0.9158 1.341443,1.5942 0.473806,0.9012 1.007469,1.3618 1.487536,1.2839 0.228829,-0.037 0.229325,-0.029 0.04104,0.6971 -0.12299,0.4742 -0.142896,0.6552 -0.144031,1.3099 -0.0015,0.8506 0.06054,1.1206 0.36862,1.605 0.19431,0.3055 0.419794,0.4943 0.745409,0.6239 0.226985,0.09 0.532085,0.089 1.386445,-0.01 0.19593,-0.022 0.32631,-0.013 0.37307,0.026 0.11251,0.093 0.13689,0.459 0.0523,0.7839 -0.10469,0.402 -0.28796,0.7038 -0.6729,1.108 -0.53557,0.5624 -0.63374,1.0383 -0.2762,1.3392 0.14884,0.1252 0.19811,0.1375 0.45667,0.1136 0.36822,-0.034 0.85965,-0.268 1.36596,-0.6505 0.21502,-0.1624 0.5324,-0.3872 0.70529,-0.4996 0.31321,-0.2036 0.31446,-0.2039 0.34563,-0.083 0.0396,0.1534 0.0211,0.2859 -0.195,1.3959 -0.19923,1.0233 -0.21504,1.3009 -0.0892,1.5662 0.14097,0.297 0.35175,0.3563 0.87511,0.2461 0.23416,-0.049 0.49387,-0.1012 0.57713,-0.1153 l 0.15138,-0.026 -0.12519,0.2297 c -0.0688,0.1263 -0.59805,0.713 -1.176,1.3038 -1.21968,1.2467 -1.4297,1.493 -1.67597,1.9655 -0.18891,0.3624 -0.23744,0.7131 -0.1272,0.9191 0.0926,0.1731 0.35465,0.2729 0.65165,0.2483 0.34733,-0.029 0.71994,-0.2723 1.37496,-0.8985 0.46158,-0.4413 0.48675,-0.4576 0.48566,-0.3151 -0.003,0.3688 -0.37412,0.9004 -0.93559,1.3396 -1.22991,0.9621 -2.91256,2.8658 -3.817259,4.3188 -0.315934,0.5074 -0.433127,0.7967 -0.433127,1.0693 0,0.1775 0.02448,0.2242 0.160916,0.3072 l 0.160917,0.098 -0.288686,0.3236 c -0.491556,0.5509 -0.677907,0.9691 -0.564616,1.267 0.08048,0.2117 -0.05995,0.3953 -1.057168,1.3821 -0.495074,0.4899 -1.055885,1.0675 -1.246245,1.2837 -0.400617,0.4548 -1.056307,1.3288 -1.267753,1.6897 l -0.145794,0.2489 -3.468974,0 c -2.557065,0 -3.43454,-0.019 -3.337986,-0.061 1.818155,-0.7949 3.285037,-1.8812 4.19238,-3.1046 0.492401,-0.664 1.182015,-1.3055 1.945289,-1.8098 0.885319,-0.5849 1.089156,-0.793 1.16256,-1.1872 0.06915,-0.3713 -0.282694,-1.1158 -0.81099,-1.7159 -0.272264,-0.3093 -0.467407,-0.3966 -0.886805,-0.3966 -0.431144,0 -0.665994,0.064 -2.791538,0.7662 -1.004345,0.3316 -1.836531,0.5924 -1.849302,0.5796 -0.01277,-0.013 0.159039,-0.256 0.381802,-0.5404 0.552651,-0.7058 0.695866,-0.9488 0.746002,-1.2659 0.07157,-0.4528 -0.09051,-0.7085 -0.811192,-1.28 -0.961037,-0.7621 -1.4289,-1.6462 -1.435763,-2.7131 -0.008,-1.2459 -0.505964,-1.5643 -2.582041,-1.6509 -1.470687,-0.061 -1.861143,-0.1532 -2.161012,-0.5081 -0.211998,-0.2509 -0.360384,-0.6185 -0.630844,-1.563 -0.514834,-1.7978 -0.965626,-2.7542 -1.630089,-3.4586 -0.778498,-0.8253 -1.286059,-0.8506 -3.52708,-0.176 -1.577433,0.4748 -2.964267,1.022 -3.735407,1.4739 -0.585334,0.343 -1.178966,0.9329 -1.385326,1.3767 -0.210195,0.452 -0.344836,1.036 -0.350198,1.519 -0.0036,0.3282 0.01724,0.4312 0.126057,0.6213 0.278795,0.4869 0.890215,0.6375 2.144432,0.5281 0.390292,-0.034 0.880822,-0.047 1.090069,-0.03 0.717055,0.061 1.3531,0.3593 1.670802,0.7847 0.432884,0.5796 0.370898,1.1561 -0.205372,1.9101 -0.504339,0.6598 -0.700395,1.1768 -0.645506,1.7019 0.09102,0.8709 0.687391,1.4212 1.700046,1.5688 0.347966,0.051 0.513412,0.046 1.011803,-0.028 0.731791,-0.1093 1.182344,-0.1112 1.820254,-0.01 0.540929,0.088 1.058904,0.2771 0.939957,0.3436 -0.03939,0.022 -0.695752,0.066 -1.458578,0.098 -2.099528,0.088 -2.711905,0.1886 -3.262297,0.5379 -0.660757,0.4192 -0.491767,1.0322 0.357015,1.295 0.274455,0.085 0.594283,0.125 1.282549,0.1605 0.925639,0.048 1.361054,0.1261 1.717541,0.3089 0.245548,0.1259 0.369794,0.2651 0.589525,0.6603 0.299523,0.5387 0.776567,1.1262 1.499881,1.847 0.762736,0.7601 0.874764,0.8993 0.826043,1.0262 -0.01791,0.047 -0.201172,0.2088 -0.407252,0.3603 -0.576638,0.4238 -0.927607,0.7748 -1.062824,1.0629 -0.149245,0.318 -0.155668,0.5183 -0.02485,0.7749 l 0.09914,0.1944 -0.818136,0 c -0.777328,0 -0.811674,0 -0.688588,-0.086 0.441506,-0.2943 0.867349,-0.8446 1.216436,-1.5721 0.372162,-0.7756 0.326072,-1.2578 -0.141875,-1.4844 -0.288754,-0.1398 -1.170815,-0.1415 -2.438277,0 -0.504304,0.054 -0.92147,0.095 -0.927036,0.089 -0.0056,-0.01 0.132188,-0.1269 0.306118,-0.2703 0.390855,-0.322 0.757001,-0.7997 0.834975,-1.0893 0.294339,-1.0931 -0.850396,-1.7441 -2.886213,-1.6413 -0.715062,0.036 -1.235147,-0.025 -1.372125,-0.1625 -0.122058,-0.122 -0.137571,-0.4845 -0.07569,-1.7686 0.04988,-1.0353 -0.0014,-1.6 -0.182976,-2.0153 -0.140816,-0.3221 -0.237834,-0.4152 -0.502202,-0.4817 -0.301982,-0.076 -0.406586,-0.2244 -0.481916,-0.6834 -0.08276,-0.5044 -0.25177,-0.7504 -0.658195,-0.9582 -0.278423,-0.1424 -0.354963,-0.1575 -0.783814,-0.1545 -0.273662,0 -0.619727,0.042 -0.815831,0.094 -0.561686,0.1496 -1.336545,0.5693 -2.095808,1.1351 -1.439181,1.0724 -2.2039,1.3663 -2.551179,0.9804 -0.155377,-0.1727 -0.178863,-0.2638 -0.250162,-0.9701 -0.05543,-0.5491 -0.08276,-0.6623 -0.186595,-0.7728 -0.202996,-0.2161 -0.487623,-0.1809 -0.917297,0.1133 -0.606088,0.415 -1.26649,0.6126 -2.251205,0.6737 -0.719228,0.045 -1.096074,0.1209 -1.476578,0.2987 -0.487572,0.2278 -0.750162,0.5914 -0.749414,1.0378 3.67e-4,0.2128 0.225521,0.6343 0.516493,0.9668 0.29533,0.3375 0.368648,0.5108 0.26765,0.6325 -0.102996,0.1241 -0.02803,0.4832 0.145954,0.6992 0.08431,0.1047 0.341122,0.3435 0.570699,0.5309 0.608491,0.4964 0.871844,0.825 0.936168,1.1678 0.04692,0.2501 0.292577,0.5266 0.907402,1.0211 1.2803,1.0299 4.486415,3.1003 6.7659,4.3692 l 0.548944,0.3056 -5.452139,0 -5.45214,0 -1.043661,-0.7582 z m 37.215372,-1.9402 c 0.06184,-0.043 0.140179,-0.1628 0.174083,-0.2655 0.08986,-0.2723 0.07822,-1.009 -0.01965,-1.2433 -0.08644,-0.2069 -0.287583,-0.325 -0.460089,-0.2703 -0.2814,0.089 -0.55264,0.7795 -0.488794,1.2437 0.0658,0.4784 0.478621,0.7566 0.794453,0.5354 z m 0.01598,-5.3573 c 5.29e-4,-0.4242 0.205889,-5.7459 0.263351,-6.8244 0.1172,-2.1998 0.263699,-3.5041 0.417894,-3.7207 0.126074,-0.177 0.261559,-0.6805 0.261559,-0.972 0,-0.2464 -0.163903,-0.5315 -0.36834,-0.6406 -0.188714,-0.1008 -0.94697,-0.048 -1.298809,0.091 -0.698057,0.2751 -1.308744,0.6335 -2.108087,1.2372 -0.987745,0.746 -1.277964,0.8337 -2.747968,0.8306 -0.636058,0 -1.624489,-0.051 -2.51497,-0.1264 -1.895556,-0.1605 -3.625903,-0.1759 -4.079149,-0.036 -0.439165,0.1354 -0.529273,0.2464 -0.605669,0.7462 -0.035,0.229 -0.07738,0.588 -0.09417,0.7978 -0.02816,0.3518 -0.02079,0.3919 0.09504,0.5171 0.323613,0.3498 0.764569,0.5197 1.872554,0.7216 1.542552,0.2812 2.947073,0.9815 4.697625,2.3423 1.535962,1.194 2.326092,1.6073 2.695139,1.4098 0.088,-0.047 0.09633,-0.011 0.117952,0.514 0.02026,0.4917 0.04381,0.6083 0.182124,0.9021 0.202906,0.431 0.518639,0.8274 0.870727,1.0932 0.329058,0.2485 2.183023,1.3579 2.277397,1.3628 0.04364,0 0.0656,-0.08 0.0658,-0.2455 l 0,0 z m -32.42043,-4.1293 c 0.40089,-0.1039 0.707066,-0.2523 1.156893,-0.5606 0.533264,-0.3655 0.615965,-0.3679 1.271498,-0.036 0.49632,0.2509 0.588143,0.2794 0.971729,0.3017 0.921281,0.053 1.639744,-0.3041 1.768716,-0.8799 0.04628,-0.2066 0.03645,-0.2715 -0.08058,-0.5323 -0.08184,-0.1824 -0.120122,-0.3385 -0.09918,-0.4045 0.01876,-0.059 0.172933,-0.1918 0.342603,-0.2949 0.444454,-0.27 0.576463,-0.4454 0.576463,-0.7661 0,-0.2361 -0.02181,-0.2835 -0.236163,-0.5126 -0.29611,-0.3166 -1.084882,-0.7273 -2.430335,-1.2656 -0.53001,-0.212 -1.083299,-0.4572 -1.229531,-0.5449 -0.508243,-0.3047 -0.60934,-0.6507 -0.475164,-1.6264 0.256591,-1.8659 0.282443,-2.1365 0.283381,-2.9663 5.4e-4,-0.4788 -0.02269,-0.9953 -0.05163,-1.1479 -0.069,-0.3638 -0.287868,-0.7887 -0.54312,-1.0543 -1.020579,-1.0622 -2.305823,0.2961 -2.934296,3.1009 -0.40184,1.7934 -0.420383,3.3391 -0.06301,5.252 0.0981,0.5252 0.203965,1.1531 0.235253,1.3954 0.07211,0.5585 0.07336,1.3693 0.0024,1.5559 -0.136829,0.3599 -0.05311,0.7109 0.214223,0.8982 0.255442,0.1789 0.824046,0.2171 1.319845,0.089 l -1e-6,0 z m -6.694426,-3.9929 c 0.257519,-0.4332 0.238899,-1.6557 -0.02961,-1.9439 -0.06005,-0.064 -0.168328,-0.1116 -0.256422,-0.1116 -0.542492,0 -0.729059,1.544 -0.248709,2.0582 0.122084,0.1308 0.17131,0.1499 0.312851,0.1216 0.09238,-0.018 0.192233,-0.074 0.221886,-0.1243 l 0,0 z m 12.291662,-0.9944 c 0.243593,-0.2726 0.310755,-0.6091 0.363506,-1.8209 0.06616,-1.5197 0.09685,-1.8694 0.21032,-2.3955 0.110045,-0.5103 0.161296,-0.6313 0.355829,-0.8399 0.16978,-0.182 0.27991,-0.1808 0.638736,0.01 0.625185,0.3272 1.56546,0.4341 3.641467,0.4139 3.454413,-0.034 4.540245,0.018 5.356085,0.2528 0.622694,0.1795 0.929593,0.2045 1.310745,0.1068 0.692033,-0.1773 1.352732,-0.5994 2.635896,-1.6842 0.838271,-0.7087 1.045328,-0.9613 1.045328,-1.2754 0,-0.2867 -0.192795,-0.438 -0.801931,-0.6292 -0.680607,-0.2137 -0.834248,-0.2859 -1.079521,-0.5075 -0.148161,-0.1339 -0.234033,-0.2656 -0.272376,-0.4179 -0.0724,-0.2875 -0.371468,-0.5795 -0.885094,-0.864 l -0.392964,-0.2178 0.235778,0.032 c 0.458301,0.062 1.227703,0.3346 1.520864,0.5394 0.539565,0.377 0.793518,0.4948 1.128437,0.5232 0.684905,0.058 0.979482,-0.3717 1.03137,-1.5052 0.0073,-0.1585 0.03677,-0.2882 0.06559,-0.2882 0.08168,0 0.430639,0.7347 0.602713,1.269 0.223658,0.6944 0.419436,1.6859 0.455319,2.306 0.03984,0.6885 -0.02981,0.8875 -0.451362,1.2896 -0.594676,0.5672 -2.170066,1.5049 -3.095442,1.8425 -0.412046,0.1503 -0.799714,0.1788 -1.420484,0.1045 -0.27756,-0.033 -0.300314,-0.027 -0.407202,0.1087 -0.160832,0.2044 -0.18496,0.3518 -0.120897,0.7384 0.143039,0.8632 0.575215,1.1346 2.034447,1.2776 0.94931,0.093 6.200203,0.099 7.118477,0.01 1.513957,-0.1499 2.0447,-0.3419 2.21936,-0.803 0.05442,-0.1437 0.01483,-0.413 -0.0893,-0.6076 -0.0334,-0.062 -0.192575,-0.2623 -0.353714,-0.4441 -0.383256,-0.4325 -0.45036,-0.5825 -0.350359,-0.7829 0.044,-0.088 0.06205,-0.212 0.04333,-0.2973 -0.04588,-0.2089 -0.363999,-0.5765 -0.783329,-0.9053 -0.19906,-0.1561 -0.448354,-0.3926 -0.553988,-0.5256 -0.199113,-0.2508 -0.35033,-0.5528 -0.301306,-0.6018 0.05802,-0.058 0.476378,0.2065 1.297898,0.8206 1.020845,0.7631 1.435625,1.0328 2.092343,1.3605 0.65915,0.3289 1.131871,0.4705 1.565657,0.4689 0.732288,0 1.041363,-0.1902 0.985463,-0.598 -0.07533,-0.5496 -0.996925,-2.0967 -1.867808,-3.1355 -1.898813,-2.2649 -5.337468,-4.2476 -7.582145,-4.3717 -0.951521,-0.053 -1.44398,0.1146 -2.070471,0.703 -0.35857,0.3367 -0.368937,0.3422 -0.609098,0.3185 -0.269264,-0.026 -0.731265,-0.2348 -1.606596,-0.7244 -1.669614,-0.9338 -3.267955,-1.2884 -6.375993,-1.4146 -0.917777,-0.037 -1.667959,-0.038 -2.357784,0 -1.170006,0.061 -1.52062,0.1391 -1.636771,0.3637 -0.09978,0.193 -0.535768,0.4172 -1.287386,0.6622 -0.818322,0.2667 -1.363548,0.4936 -2.200599,0.916 -1.779906,0.8981 -2.970053,1.7083 -3.196534,2.1761 -0.196497,0.406 -0.09704,0.6918 0.53164,1.5283 0.797937,1.0616 0.915482,1.7279 0.643422,3.6471 -0.169142,1.1931 -0.16434,2.117 0.01303,2.5061 0.164671,0.3612 0.449355,0.6438 0.977582,0.9706 0.766479,0.4741 1.09542,0.5996 1.521658,0.5806 0.328499,-0.015 0.372716,-0.03 0.508181,-0.1822 l 0,0 z m -10.23363,-6.9158 c 0.13355,-0.2038 0.133075,-1.2387 -6.6e-4,-1.4428 -0.203896,-0.3112 -0.549845,-0.2294 -0.760397,0.1797 -0.320884,0.6235 -0.169055,1.3515 0.30343,1.4548 0.216224,0.047 0.33308,0 0.457629,-0.1917 l -2e-6,0 z m 15.609871,-8.872 c 0.910309,-0.1016 1.437086,-0.3419 1.512481,-0.69 0.05374,-0.2481 0.179696,-0.4099 0.89059,-1.144 0.516441,-0.5333 0.676211,-0.7362 0.838844,-1.0653 0.324806,-0.6572 0.300289,-1.2989 -0.05759,-1.5074 -0.269421,-0.1569 -0.448533,-0.064 -1.153699,0.5979 -1.015927,0.9538 -2.538518,2.3591 -2.736232,2.5256 -0.256789,0.2161 -0.639673,0.7512 -0.639673,0.8938 0,0.2539 0.269867,0.4244 0.696301,0.4401 0.08038,0 0.372422,-0.02 0.648974,-0.051 l 0,0 z"
       id="path3867"
       inkscape:connector-curvature="0" />
    <path
       sodipodi:type="arc"
       style="fill:#2b0000;fill-opacity:1;fill-rule:evenodd;stroke:none"
       id="path4150"
       sodipodi:cx="30.64587"
       sodipodi:cy="20.127417"
       sodipodi:rx="5.6019335"
       sodipodi:ry="5.6019335"
       d="m 36.247804,20.127417 a 5.6019335,5.6019335 0 1 1 -11.203867,0 5.6019335,5.6019335 0 1 1 11.203867,0 z"
       transform="matrix(0.72058824,0,0,0.72058824,7.9861469,999.22173)" />
    <rect
       style="fill:#2b0000;fill-opacity:1;fill-rule:evenodd;stroke:none"
       id="rect4154"
       width="2.8009667"
       height="9.7210016"
       x="28.998243"
       y="1017.103" />
    <path
       style="fill:none;stroke:#000000;stroke-width:1px;stroke-linecap:butt;stroke-linejoin:miter;stroke-opacity:1"
       d="m 31.304922,33.637961 c 3.130492,3.130492 3.130492,3.130492 3.130492,3.130492 l 0,5.437171"
       id="path4158"
       inkscape:connector-curvature="0"
       transform="translate(0,992.36218)" />
    <path
       style="fill:none;stroke:#000000;stroke-width:1px;stroke-linecap:butt;stroke-linejoin:miter;stroke-opacity:1"
       d="m 29.327769,33.802724 -3.295255,3.295254 0,4.613357"
       id="path4160"
       inkscape:connector-curvature="0"
       transform="translate(0,992.36218)" />
    <path
       style="fill:none;stroke:#000000;stroke-width:1px;stroke-linecap:butt;stroke-linejoin:miter;stroke-opacity:1"
       d="m 31.304922,29.189367 5.931458,0.164762 0.329526,-5.43717"
       id="path4162"
       inkscape:connector-curvature="0"
       transform="translate(0,992.36218)" />
    <path
       style="fill:none;stroke:#000000;stroke-width:1px;stroke-linecap:butt;stroke-linejoin:miter;stroke-opacity:1"
       d="m 29.657294,29.189367 -6.260984,0 0.164763,-5.272408"
       id="path4164"
       inkscape:connector-curvature="0"
       transform="translate(0,992.36218)" />
  </g>
</svg>
