<?xml version="1.0" encoding="UTF-8" standalone="no"?>
<!-- Created with Inkscape (http://www.inkscape.org/) -->

<svg
   xmlns:dc="http://purl.org/dc/elements/1.1/"
   xmlns:cc="http://creativecommons.org/ns#"
   xmlns:rdf="http://www.w3.org/1999/02/22-rdf-syntax-ns#"
   xmlns:svg="http://www.w3.org/2000/svg"
   xmlns="http://www.w3.org/2000/svg"
   xmlns:sodipodi="http://sodipodi.sourceforge.net/DTD/sodipodi-0.dtd"
   xmlns:inkscape="http://www.inkscape.org/namespaces/inkscape"
   width="40"
   height="40"
   id="svg2"
   version="1.1"
   inkscape:version="0.48.2 r9819"
   sodipodi:docname="New document 1">
  <defs
     id="defs4" />
  <sodipodi:namedview
     id="base"
     pagecolor="#ffffff"
     bordercolor="#666666"
     borderopacity="1.0"
     inkscape:pageopacity="0.0"
     inkscape:pageshadow="2"
     inkscape:zoom="7.1830264"
     inkscape:cx="15.935229"
     inkscape:cy="8.8638091"
     inkscape:document-units="px"
     inkscape:current-layer="layer1"
     showgrid="false"
     inkscape:window-width="1366"
     inkscape:window-height="688"
     inkscape:window-x="0"
     inkscape:window-y="25"
     inkscape:window-maximized="1" />
  <metadata
     id="metadata7">
    <rdf:RDF>
      <cc:Work
         rdf:about="">
        <dc:format>image/svg+xml</dc:format>
        <dc:type
           rdf:resource="http://purl.org/dc/dcmitype/StillImage" />
        <dc:title></dc:title>
      </cc:Work>
    </rdf:RDF>
  </metadata>
  <g
     inkscape:label="Layer 1"
     inkscape:groupmode="layer"
     id="layer1"
     transform="translate(0,-1012.3622)">
    <path
       style="fill:#ff9f48;fill-opacity:1;fill-rule:evenodd;stroke:#000000;stroke-width:0.9813289;stroke-linecap:round;stroke-linejoin:miter;stroke-miterlimit:4;stroke-opacity:1;stroke-dasharray:none"
       d="m 20.018168,1012.8607 c -10.7728033,0 -19.52049337,5.4332 -19.52049337,12.1435 0,5.4104 5.68003687,9.9731 13.52601137,11.5462 3.481926,3.1608 5.907825,8.7945 6.21406,15.3287 l 0.285452,0 c 0.310992,-6.6944 2.837628,-12.4401 6.455596,-15.5526 2.389446,-0.571 4.559458,-1.4152 6.389723,-2.4884 3.77888,-2.216 6.148186,-5.346 6.148186,-8.8339 0,-6.7103 -8.725732,-12.1435 -19.498535,-12.1435 z"
       id="rect3008"
       inkscape:connector-curvature="0" />
    <path
       sodipodi:type="arc"
       style="fill:#000000;fill-opacity:1;fill-rule:evenodd;stroke:#000000;stroke-width:1;stroke-linecap:round;stroke-linejoin:miter;stroke-miterlimit:4;stroke-opacity:1;stroke-dasharray:none"
       id="path3788"
       sodipodi:cx="13.016797"
       sodipodi:cy="10.973238"
       sodipodi:rx="2.1578648"
       sodipodi:ry="2.1578648"
       d="m 15.174662,10.973238 a 2.1578648,2.1578648 0 1 1 -4.31573,0 2.1578648,2.1578648 0 1 1 4.31573,0 z"
       transform="matrix(0.94060465,0,0,0.94060465,0.25634015,1014.5407)" />
    <path
       sodipodi:type="arc"
       style="fill:#000000;fill-opacity:1;fill-rule:evenodd;stroke:#000000;stroke-width:1;stroke-linecap:round;stroke-linejoin:miter;stroke-miterlimit:4;stroke-opacity:1;stroke-dasharray:none"
       id="path3788-5"
       sodipodi:cx="13.016797"
       sodipodi:cy="10.973238"
       sodipodi:rx="2.1578648"
       sodipodi:ry="2.1578648"
       d="m 15.174662,10.973238 a 2.1578648,2.1578648 0 1 1 -4.31573,0 2.1578648,2.1578648 0 1 1 4.31573,0 z"
       transform="matrix(0.94060465,0,0,0.94060465,15.25634,1014.5407)" />
    <path
       sodipodi:type="arc"
       style="fill:#000000;fill-opacity:1;fill-rule:evenodd;stroke:#000000;stroke-width:1;stroke-linecap:round;stroke-linejoin:miter;stroke-miterlimit:4;stroke-opacity:1;stroke-dasharray:none"
       id="path3808"
       sodipodi:cx="21.857082"
       sodipodi:cy="20.231174"
       sodipodi:rx="4.7333808"
       sodipodi:ry="2.0882564"
       d="m 26.590463,20.231174 a 4.7333808,2.0882564 0 1 1 -9.466761,0 4.7333808,2.0882564 0 1 1 9.466761,0 z"
       transform="matrix(0.9719705,0,0,0.92702023,-1.1691181,1013.8387)" />
  </g>
</svg>
