<?xml version="1.0" encoding="UTF-8" standalone="no"?>
<!-- Created with Inkscape (http://www.inkscape.org/) -->

<svg
   xmlns:dc="http://purl.org/dc/elements/1.1/"
   xmlns:cc="http://creativecommons.org/ns#"
   xmlns:rdf="http://www.w3.org/1999/02/22-rdf-syntax-ns#"
   xmlns:svg="http://www.w3.org/2000/svg"
   xmlns="http://www.w3.org/2000/svg"
   xmlns:sodipodi="http://sodipodi.sourceforge.net/DTD/sodipodi-0.dtd"
   xmlns:inkscape="http://www.inkscape.org/namespaces/inkscape"
   width="40"
   height="40"
   id="svg2"
   version="1.1"
   inkscape:version="0.48.2 r9819"
   sodipodi:docname="goombaLevel1Killed.svg"
   inkscape:export-filename="/home/marcin/programs/bomberman/images/goombaLevel1Killed.png"
   inkscape:export-xdpi="90"
   inkscape:export-ydpi="90">
  <defs
     id="defs4" />
  <sodipodi:namedview
     id="base"
     pagecolor="#ffffff"
     bordercolor="#666666"
     borderopacity="1.0"
     inkscape:pageopacity="0.0"
     inkscape:pageshadow="2"
     inkscape:zoom="7.9195959"
     inkscape:cx="11.784797"
     inkscape:cy="15.435091"
     inkscape:document-units="px"
     inkscape:current-layer="layer1"
     showgrid="true"
     inkscape:window-width="1366"
     inkscape:window-height="688"
     inkscape:window-x="0"
     inkscape:window-y="25"
     inkscape:window-maximized="1">
    <inkscape:grid
       type="xygrid"
       id="grid3760"
       empspacing="5"
       visible="true"
       enabled="true"
       snapvisiblegridlinesonly="true" />
  </sodipodi:namedview>
  <metadata
     id="metadata7">
    <rdf:RDF>
      <cc:Work
         rdf:about="">
        <dc:format>image/svg+xml</dc:format>
        <dc:type
           rdf:resource="http://purl.org/dc/dcmitype/StillImage" />
        <dc:title></dc:title>
      </cc:Work>
    </rdf:RDF>
  </metadata>
  <g
     inkscape:label="Layer 1"
     inkscape:groupmode="layer"
     id="layer1"
     transform="translate(0,-1012.3622)">
    <path
       style="fill:#323232;fill-opacity:1;fill-rule:evenodd;stroke:#000000;stroke-width:0.97561025999999995;stroke-linecap:round;stroke-linejoin:miter;stroke-miterlimit:4;stroke-opacity:1;stroke-dasharray:none"
       d="m 33.906323,1041.1899 c -2.260842,3.4649 8.067157,7.454 4.827846,10.0623 -3.239312,2.6086 -3.686332,-5.5459 -11.219781,-3.1379 -3.979142,1.2719 -2.535057,3.5065 -6.715308,3.7449 -4.180251,0.2383 -2.614017,-2.3774 -6.664631,-3.4204 -4.050614,-1.0431 -9.3551495,5.0621 -12.8796257,2.8395 -3.5244739,-2.2226 8.4410516,-5.3714 5.7877154,-8.5558 -2.6533365,-3.1845 -4.6378622,1.8795 -6.16033239,-1.955 -1.52247076,-3.8348 2.66577359,-3.3482 2.42319939,-7.4577 -0.2425746,-4.1096 -3.67571517,-1.9138 -2.61464938,-5.896 1.06106608,-3.9819 2.95835338,-0.4137 5.21919558,-3.8784 2.260843,-3.4648 -7.8072491,-7.3236 -4.5679369,-9.9319 3.2393106,-2.6084 8.6186206,5.0258 12.519314,3.5291 3.900694,-1.4967 3.444733,-4.0281 7.624983,-4.2665 4.18025,-0.2384 3.653647,2.2469 7.704261,3.2899 4.050613,1.0432 5.976356,-4.6707 9.500832,-2.4482 3.524473,2.2226 -6.23184,4.7194 -3.578503,7.9039 2.653336,3.1843 2.558604,-0.1844 4.081074,3.6501 1.52247,3.8347 -2.92568,2.0443 -2.683106,6.1537 0.242574,4.1095 3.675717,1.9138 2.614648,5.8961 -1.061064,3.9818 -2.958351,0.4136 -5.219195,3.8783 z"
       id="path2985"
       inkscape:connector-curvature="0"
       sodipodi:nodetypes="ccscccscscccsccsscscc" />
    <path
       sodipodi:type="arc"
       style="fill:#000000;fill-opacity:1;fill-rule:evenodd;stroke:#000000;stroke-width:0;stroke-linecap:round;stroke-linejoin:miter;stroke-miterlimit:4;stroke-opacity:1;stroke-dasharray:none"
       id="path3756"
       sodipodi:cx="11.174812"
       sodipodi:cy="12.915285"
       sodipodi:rx="1.9571706"
       sodipodi:ry="2.3359778"
       d="m 13.131983,12.915285 a 1.9571706,2.3359778 0 1 1 -3.9143413,0 1.9571706,2.3359778 0 1 1 3.9143413,0 z"
       transform="matrix(2.0437666,0,0,1.712345,-11.838708,1005.2468)" />
    <path
       sodipodi:type="arc"
       style="fill:#000000;fill-opacity:1;fill-rule:evenodd;stroke:#000000;stroke-width:0;stroke-linecap:round;stroke-linejoin:miter;stroke-miterlimit:4;stroke-opacity:1;stroke-dasharray:none"
       id="path3758"
       sodipodi:cx="27.463522"
       sodipodi:cy="14.556783"
       sodipodi:rx="3.3461304"
       sodipodi:ry="2.841054"
       d="m 30.809652,14.556783 a 3.3461304,2.841054 0 1 1 -6.69226,0 3.3461304,2.841054 0 1 1 6.69226,0 z"
       transform="matrix(1.1954107,0,0,1.4079282,-3.830188,1006.8673)" />
    <path
       sodipodi:type="arc"
       style="fill:#929292;fill-opacity:1;fill-rule:evenodd;stroke:#000000;stroke-width:1;stroke-linecap:round;stroke-linejoin:miter;stroke-miterlimit:4;stroke-opacity:1;stroke-dasharray:none"
       id="path3762"
       sodipodi:cx="22.5"
       sodipodi:cy="35"
       sodipodi:rx="2.5"
       sodipodi:ry="10"
       d="m 25,35 a 2.5,10 0 1 1 -5,0 l 2.5,0 z"
       transform="matrix(1,0,0,-1,-2.5,1082.3622)"
       sodipodi:start="0"
       sodipodi:end="3.1415927" />
  </g>
</svg>
