<?xml version="1.0" encoding="UTF-8" standalone="no"?>
<!-- Created with Inkscape (http://www.inkscape.org/) -->

<svg
   xmlns:dc="http://purl.org/dc/elements/1.1/"
   xmlns:cc="http://creativecommons.org/ns#"
   xmlns:rdf="http://www.w3.org/1999/02/22-rdf-syntax-ns#"
   xmlns:svg="http://www.w3.org/2000/svg"
   xmlns="http://www.w3.org/2000/svg"
   xmlns:sodipodi="http://sodipodi.sourceforge.net/DTD/sodipodi-0.dtd"
   xmlns:inkscape="http://www.inkscape.org/namespaces/inkscape"
   width="40"
   height="40"
   id="svg2"
   version="1.1"
   inkscape:version="0.48.2 r9819"
   sodipodi:docname="goombaLevel5.svg"
   inkscape:export-filename="/home/marcin/programs/bomberman/images/goombaLevel5Killed.png"
   inkscape:export-xdpi="90"
   inkscape:export-ydpi="90">
  <defs
     id="defs4" />
  <sodipodi:namedview
     id="base"
     pagecolor="#ffffff"
     bordercolor="#666666"
     borderopacity="1.0"
     inkscape:pageopacity="0.0"
     inkscape:pageshadow="2"
     inkscape:zoom="7.9195959"
     inkscape:cx="-3.24317"
     inkscape:cy="26.945514"
     inkscape:document-units="px"
     inkscape:current-layer="layer1"
     showgrid="false"
     inkscape:window-width="1366"
     inkscape:window-height="688"
     inkscape:window-x="0"
     inkscape:window-y="25"
     inkscape:window-maximized="1" />
  <metadata
     id="metadata7">
    <rdf:RDF>
      <cc:Work
         rdf:about="">
        <dc:format>image/svg+xml</dc:format>
        <dc:type
           rdf:resource="http://purl.org/dc/dcmitype/StillImage" />
        <dc:title></dc:title>
      </cc:Work>
    </rdf:RDF>
  </metadata>
  <g
     inkscape:label="Layer 1"
     inkscape:groupmode="layer"
     id="layer1"
     transform="translate(0,-1012.3622)">
    <path
       style="fill:#00f5ff;fill-opacity:1;fill-rule:evenodd;stroke:#000000;stroke-width:1.9505614;stroke-linecap:round;stroke-linejoin:miter;stroke-miterlimit:4;stroke-opacity:1;stroke-dasharray:none"
       d="m 15.191225,1013.3375 c -7.8512196,0 -14.2159443,6.3647 -14.2159443,14.2159 0,1.6887 0.3012037,3.3062 0.8415358,4.8088 -0.5403321,1.5026 -0.8415358,3.1201 -0.8415358,4.8088 0,7.8512 6.3647247,14.2159 14.2159443,14.2159 1.688665,0 3.306186,-0.3011 4.808776,-0.8415 1.50259,0.5404 3.120111,0.8415 4.808776,0.8415 7.851219,0 14.215944,-6.3647 14.215944,-14.2159 0,-1.6887 -0.301203,-3.3062 -0.841536,-4.8088 0.540333,-1.5026 0.841536,-3.1201 0.841536,-4.8088 0,-7.8512 -6.364725,-14.2159 -14.215944,-14.2159 -1.688665,0 -3.306186,0.3011 -4.808776,0.8415 -1.50259,-0.5404 -3.120111,-0.8415 -4.808776,-0.8415 z"
       id="path2985"
       inkscape:connector-curvature="0" />
    <path
       sodipodi:type="arc"
       style="fill:#000000;fill-opacity:1;fill-rule:evenodd;stroke:#000000;stroke-width:0.20000000000000001;stroke-linecap:round;stroke-linejoin:miter;stroke-miterlimit:4;stroke-opacity:1;stroke-dasharray:none"
       id="path3806"
       sodipodi:cx="-40.406101"
       sodipodi:cy="4.7709298"
       sodipodi:rx="3.9143412"
       sodipodi:ry="3.9143412"
       d="m -36.49176,4.7709298 a 3.9143412,3.9143412 0 1 1 -7.828682,0 3.9143412,3.9143412 0 1 1 7.828682,0 z"
       transform="translate(67.680221,1021.201)" />
    <path
       transform="translate(60.735421,1037.8686)"
       sodipodi:type="arc"
       style="fill:#ff0000;fill-opacity:1;fill-rule:evenodd;stroke:#000000;stroke-width:1;stroke-linecap:round;stroke-linejoin:miter;stroke-miterlimit:4;stroke-opacity:1;stroke-dasharray:none"
       id="path3806-3"
       sodipodi:cx="-40.406101"
       sodipodi:cy="4.7709298"
       sodipodi:rx="3.9143412"
       sodipodi:ry="3.9143412"
       d="m -36.49176,4.7709298 a 3.9143412,3.9143412 0 1 1 -7.828682,0 3.9143412,3.9143412 0 1 1 7.828682,0 z" />
    <path
       transform="translate(53.664354,1021.201)"
       sodipodi:type="arc"
       style="fill:#000000;fill-opacity:1;fill-rule:evenodd;stroke:#000000;stroke-width:0.20000000000000001;stroke-linecap:round;stroke-linejoin:miter;stroke-miterlimit:4;stroke-opacity:1;stroke-dasharray:none"
       id="path3806-0"
       sodipodi:cx="-40.406101"
       sodipodi:cy="4.7709298"
       sodipodi:rx="3.9143412"
       sodipodi:ry="3.9143412"
       d="m -36.49176,4.7709298 a 3.9143412,3.9143412 0 1 1 -7.828682,0 3.9143412,3.9143412 0 1 1 7.828682,0 z" />
  </g>
</svg>
