<?xml version="1.0" encoding="UTF-8" standalone="no"?>
<!-- Created with Inkscape (http://www.inkscape.org/) -->

<svg
   xmlns:dc="http://purl.org/dc/elements/1.1/"
   xmlns:cc="http://creativecommons.org/ns#"
   xmlns:rdf="http://www.w3.org/1999/02/22-rdf-syntax-ns#"
   xmlns:svg="http://www.w3.org/2000/svg"
   xmlns="http://www.w3.org/2000/svg"
   xmlns:sodipodi="http://sodipodi.sourceforge.net/DTD/sodipodi-0.dtd"
   xmlns:inkscape="http://www.inkscape.org/namespaces/inkscape"
   width="40"
   height="40"
   id="svg2"
   version="1.1"
   inkscape:version="0.48.2 r9819"
   sodipodi:docname="New document 1">
  <defs
     id="defs4" />
  <sodipodi:namedview
     id="base"
     pagecolor="#ffffff"
     bordercolor="#666666"
     borderopacity="1.0"
     inkscape:pageopacity="0.0"
     inkscape:pageshadow="2"
     inkscape:zoom="7.9195959"
     inkscape:cx="-3.24317"
     inkscape:cy="26.945514"
     inkscape:document-units="px"
     inkscape:current-layer="layer1"
     showgrid="false"
     inkscape:window-width="1366"
     inkscape:window-height="688"
     inkscape:window-x="0"
     inkscape:window-y="25"
     inkscape:window-maximized="1" />
  <metadata
     id="metadata7">
    <rdf:RDF>
      <cc:Work
         rdf:about="">
        <dc:format>image/svg+xml</dc:format>
        <dc:type
           rdf:resource="http://purl.org/dc/dcmitype/StillImage" />
        <dc:title></dc:title>
      </cc:Work>
    </rdf:RDF>
  </metadata>
  <g
     inkscape:label="Layer 1"
     inkscape:groupmode="layer"
     id="layer1"
     transform="translate(0,-1012.3622)">
    <path
       style="fill:#cccccc;fill-opacity:1;fill-rule:evenodd;stroke:#000000;stroke-width:0.9861325;stroke-linecap:round;stroke-linejoin:miter;stroke-miterlimit:4;stroke-opacity:1;stroke-dasharray:none"
       d="m 15.069337,1012.8553 c -8.0502213,0 -14.57627075,6.526 -14.57627075,14.5762 0,1.7315 0.30883823,3.39 0.86286595,4.9307 -0.55402772,1.5407 -0.86286595,3.1992 -0.86286595,4.9307 0,8.0502 6.52604945,14.5762 14.57627075,14.5762 1.731468,0 3.389987,-0.3088 4.930663,-0.8628 1.540676,0.554 3.199195,0.8628 4.930663,0.8628 8.050221,0 14.576271,-6.526 14.576271,-14.5762 0,-1.7315 -0.308838,-3.39 -0.862866,-4.9307 0.554028,-1.5407 0.862866,-3.1992 0.862866,-4.9307 0,-8.0502 -6.52605,-14.5762 -14.576271,-14.5762 -1.731468,0 -3.389987,0.3088 -4.930663,0.8628 -1.540676,-0.554 -3.199195,-0.8628 -4.930663,-0.8628 z"
       id="path2985"
       inkscape:connector-curvature="0" />
    <path
       sodipodi:type="arc"
       style="fill:#000000;fill-opacity:1;fill-rule:evenodd;stroke:#000000;stroke-width:0.20000000000000001;stroke-linecap:round;stroke-linejoin:miter;stroke-miterlimit:4;stroke-opacity:1;stroke-dasharray:none"
       id="path3806"
       sodipodi:cx="-40.406101"
       sodipodi:cy="4.7709298"
       sodipodi:rx="3.9143412"
       sodipodi:ry="3.9143412"
       d="m -36.49176,4.7709298 a 3.9143412,3.9143412 0 1 1 -7.828682,0 3.9143412,3.9143412 0 1 1 7.828682,0 z"
       transform="translate(67.680221,1021.201)" />
    <path
       transform="translate(60.735421,1037.8686)"
       sodipodi:type="arc"
       style="fill:#000000;fill-opacity:1;fill-rule:evenodd;stroke:#000000;stroke-width:0.20000000000000001;stroke-linecap:round;stroke-linejoin:miter;stroke-miterlimit:4;stroke-opacity:1;stroke-dasharray:none"
       id="path3806-3"
       sodipodi:cx="-40.406101"
       sodipodi:cy="4.7709298"
       sodipodi:rx="3.9143412"
       sodipodi:ry="3.9143412"
       d="m -36.49176,4.7709298 a 3.9143412,3.9143412 0 1 1 -7.828682,0 3.9143412,3.9143412 0 1 1 7.828682,0 z" />
    <path
       transform="translate(53.664354,1021.201)"
       sodipodi:type="arc"
       style="fill:#000000;fill-opacity:1;fill-rule:evenodd;stroke:#000000;stroke-width:0.20000000000000001;stroke-linecap:round;stroke-linejoin:miter;stroke-miterlimit:4;stroke-opacity:1;stroke-dasharray:none"
       id="path3806-0"
       sodipodi:cx="-40.406101"
       sodipodi:cy="4.7709298"
       sodipodi:rx="3.9143412"
       sodipodi:ry="3.9143412"
       d="m -36.49176,4.7709298 a 3.9143412,3.9143412 0 1 1 -7.828682,0 3.9143412,3.9143412 0 1 1 7.828682,0 z" />
  </g>
</svg>
