<?xml version="1.0" encoding="UTF-8" standalone="no"?>
<!-- Created with Inkscape (http://www.inkscape.org/) -->

<svg
   xmlns:dc="http://purl.org/dc/elements/1.1/"
   xmlns:cc="http://creativecommons.org/ns#"
   xmlns:rdf="http://www.w3.org/1999/02/22-rdf-syntax-ns#"
   xmlns:svg="http://www.w3.org/2000/svg"
   xmlns="http://www.w3.org/2000/svg"
   xmlns:sodipodi="http://sodipodi.sourceforge.net/DTD/sodipodi-0.dtd"
   xmlns:inkscape="http://www.inkscape.org/namespaces/inkscape"
   width="120"
   height="120"
   id="svg2"
   version="1.1"
   inkscape:version="0.48.2 r9819"
   sodipodi:docname="goombaLevel6.svg"
   inkscape:export-filename="/home/marcin/programs/bomberman/images/goombaLevel6.png"
   inkscape:export-xdpi="90"
   inkscape:export-ydpi="90">
  <defs
     id="defs4" />
  <sodipodi:namedview
     id="base"
     pagecolor="#ffffff"
     bordercolor="#666666"
     borderopacity="1.0"
     inkscape:pageopacity="0.0"
     inkscape:pageshadow="2"
     inkscape:zoom="1.4"
     inkscape:cx="65.758602"
     inkscape:cy="95.663785"
     inkscape:document-units="px"
     inkscape:current-layer="layer1"
     showgrid="false"
     inkscape:window-width="1366"
     inkscape:window-height="688"
     inkscape:window-x="0"
     inkscape:window-y="25"
     inkscape:window-maximized="1" />
  <metadata
     id="metadata7">
    <rdf:RDF>
      <cc:Work
         rdf:about="">
        <dc:format>image/svg+xml</dc:format>
        <dc:type
           rdf:resource="http://purl.org/dc/dcmitype/StillImage" />
        <dc:title></dc:title>
      </cc:Work>
    </rdf:RDF>
  </metadata>
  <g
     inkscape:label="Layer 1"
     inkscape:groupmode="layer"
     id="layer1"
     transform="translate(0,-932.36218)">
    <path
       style="color:#000000;fill:#005500;fill-opacity:1;fill-rule:evenodd;stroke:none;stroke-width:2.57500005;marker:none;visibility:visible;display:inline;overflow:visible;enable-background:accumulate"
       d="m 92.903393,1016.6931 c 0,15.2026 13.260697,35.6079 6.565993,35.6079 -6.6947,0 -28.789345,-17.88 -28.789345,-33.0825 0,-15.2026 6.942357,-22.98108 13.637059,-22.98108 6.694702,0 8.586293,5.25308 8.586293,20.45568 z"
       id="path3014"
       inkscape:connector-curvature="0"
       sodipodi:nodetypes="sssss" />
    <path
       style="color:#000000;fill:#008000;fill-opacity:1;fill-rule:evenodd;stroke:none;stroke-width:2.57500005;marker:none;visibility:visible;display:inline;overflow:visible;enable-background:accumulate"
       d="m 90.150588,1018.8578 c 0,11.6984 10.204132,27.4004 5.052554,27.4004 -5.151591,0 -22.153466,-13.7587 -22.153466,-25.457 0,-11.6984 5.342161,-17.6839 10.493744,-17.6839 5.151582,0 6.607168,4.0421 6.607168,15.7405 z"
       id="path3014-2"
       inkscape:connector-curvature="0"
       sodipodi:nodetypes="sssss" />
    <path
       style="color:#000000;fill:#00aa00;fill-opacity:1;fill-rule:evenodd;stroke:none;stroke-width:2.57500005;marker:none;visibility:visible;display:inline;overflow:visible;enable-background:accumulate"
       d="m 91.269476,1036.0012 c 1.213888,4.5303 3.592643,5.8808 1.597659,6.4154 -1.994985,0.5346 -5.990006,-1.1478 -7.203867,-5.678 -1.213887,-4.5303 -0.229586,-5.3372 1.765399,-5.8718 1.994975,-0.5345 2.626922,0.6041 3.840809,5.1344 z"
       id="path3014-2-8"
       inkscape:connector-curvature="0"
       sodipodi:nodetypes="sssss" />
    <path
       style="color:#000000;fill:#005500;fill-opacity:1;fill-rule:evenodd;stroke:none;stroke-width:2.57500005;marker:none;visibility:visible;display:inline;overflow:visible;enable-background:accumulate"
       d="m 25.079607,1016.7504 c 0,15.2026 -13.26069,35.6079 -6.56599,35.6079 6.6947,0 28.78934,-17.88 28.78934,-33.0825 0,-15.2026 -6.94235,-22.98107 -13.63705,-22.98107 -6.69471,0 -8.5863,5.25307 -8.5863,20.45567 z"
       id="path3014-0"
       inkscape:connector-curvature="0"
       sodipodi:nodetypes="sssss" />
    <path
       style="color:#000000;fill:#005500;fill-opacity:1;fill-rule:evenodd;stroke:none;stroke-width:2.57500005;marker:none;visibility:visible;display:inline;overflow:visible;enable-background:accumulate"
       d="m 58.296982,1033.6122 c 0,10.0594 11.91062,18.9285 16.25,18.9285 4.339381,0 -0.535714,-8.8691 -0.535714,-18.9285 0,-10.0595 -3.517762,-18.2143 -7.857143,-18.2143 -4.33938,0 -7.857143,8.1548 -7.857143,18.2143 z"
       id="path3077-3"
       inkscape:connector-curvature="0"
       sodipodi:nodetypes="sssss" />
    <path
       style="color:#000000;fill:#005500;fill-opacity:1;fill-rule:evenodd;stroke:none;stroke-width:2.57500005;marker:none;visibility:visible;display:inline;overflow:visible;enable-background:accumulate"
       d="m 60,1033.7908 c 0,10.0594 -11.91062,18.9285 -16.25,18.9285 -4.339381,0 0.535714,-8.8691 0.535714,-18.9285 0,-10.0595 3.517762,-18.2143 7.857143,-18.2143 4.33938,0 7.857143,8.1548 7.857143,18.2143 z"
       id="path3077"
       inkscape:connector-curvature="0"
       sodipodi:nodetypes="sssss" />
    <path
       style="color:#000000;fill:#008000;fill-opacity:1;fill-rule:evenodd;stroke:none;stroke-width:2.57500005;marker:none;visibility:visible;display:inline;overflow:visible;enable-background:accumulate"
       d="m 27.653841,1019.0937 c 0,11.6984 -10.20413,27.4004 -5.05255,27.4004 5.15159,0 22.15346,-13.7587 22.15346,-25.457 0,-11.6984 -5.34216,-17.6839 -10.49374,-17.6839 -5.15158,0 -6.60717,4.0421 -6.60717,15.7405 z"
       id="path3014-2-4"
       inkscape:connector-curvature="0"
       sodipodi:nodetypes="sssss" />
    <path
       style="color:#000000;fill:#008000;fill-opacity:1;fill-rule:evenodd;stroke:none;stroke-width:2.57500005;marker:none;visibility:visible;display:inline;overflow:visible;enable-background:accumulate"
       d="m 57.774446,1035.3554 c 0,7.4717 -8.846759,14.0594 -12.069886,14.0594 -3.223128,0 0.397908,-6.5877 0.397908,-14.0594 0,-7.4718 2.612861,-13.5289 5.835989,-13.5289 3.223127,0 5.835989,6.0571 5.835989,13.5289 z"
       id="path3077-7"
       inkscape:connector-curvature="0"
       sodipodi:nodetypes="sssss" />
    <path
       style="color:#000000;fill:#008000;fill-opacity:1;fill-rule:evenodd;stroke:none;stroke-width:2.57500005;marker:none;visibility:visible;display:inline;overflow:visible;enable-background:accumulate"
       d="m 60.522536,1035.1768 c 0,7.4717 8.846759,14.0594 12.069886,14.0594 3.223128,0 -0.397908,-6.5877 -0.397908,-14.0594 0,-7.4718 -2.612861,-13.5289 -5.835989,-13.5289 -3.223127,0 -5.835989,6.0571 -5.835989,13.5289 z"
       id="path3077-7-1"
       inkscape:connector-curvature="0"
       sodipodi:nodetypes="sssss" />
    <path
       sodipodi:type="arc"
       style="color:#000000;fill:#005500;fill-opacity:1;fill-rule:evenodd;stroke:none;stroke-width:2.99978422999999994;marker:none;visibility:visible;display:inline;overflow:visible;enable-background:accumulate"
       id="path2985"
       sodipodi:cx="322.85715"
       sodipodi:cy="596.64789"
       sodipodi:rx="148.57143"
       sodipodi:ry="244.28572"
       d="m 471.42857,596.64789 a 148.57143,244.28572 0 1 1 -297.14285,0 148.57143,244.28572 0 1 1 297.14285,0 z"
       transform="matrix(0.34332134,0,0,0.20116141,-51.660673,861.48051)" />
    <path
       style="color:#000000;fill:#00aa00;fill-opacity:1;fill-rule:evenodd;stroke:none;stroke-width:2.57500005;marker:none;visibility:visible;display:inline;overflow:visible;enable-background:accumulate"
       d="m 26.356379,1036.4156 c -1.21388,4.5303 -3.59264,5.8808 -1.59766,6.4154 1.99499,0.5346 5.99001,-1.1478 7.20387,-5.678 1.21389,-4.5303 0.22959,-5.3372 -1.7654,-5.8718 -1.99497,-0.5345 -2.62692,0.6041 -3.84081,5.1344 z"
       id="path3014-2-8-9"
       inkscape:connector-curvature="0"
       sodipodi:nodetypes="sssss" />
    <path
       style="color:#000000;fill:#00aa00;fill-opacity:1;fill-rule:evenodd;stroke:none;stroke-width:2.57500005;marker:none;visibility:visible;display:inline;overflow:visible;enable-background:accumulate"
       d="m 66.689838,1042.8979 c 0,2.5641 3.440717,4.4643 4.821429,4.4643 1.380712,0 0.178571,-1.9002 0.178571,-4.4643 0,-2.5642 -1.119288,-4.6429 -2.5,-4.6429 -1.380712,0 -2.5,2.0787 -2.5,4.6429 z"
       id="path3098-4"
       inkscape:connector-curvature="0"
       sodipodi:nodetypes="sssss" />
    <path
       sodipodi:type="arc"
       style="color:#000000;fill:#008000;fill-opacity:1;fill-rule:evenodd;stroke:none;stroke-width:3;marker:none;visibility:visible;display:inline;overflow:visible;enable-background:accumulate"
       id="path2985-1"
       sodipodi:cx="322.85715"
       sodipodi:cy="596.64789"
       sodipodi:rx="148.57143"
       sodipodi:ry="244.28572"
       d="m 471.42857,596.64789 c 0,134.91528 -66.51769,244.28572 -148.57142,244.28572 -82.05374,0 -148.57143,-109.37044 -148.57143,-244.28572 0,-134.91528 66.51769,-244.28572 148.57143,-244.28572 82.05373,0 148.57142,109.37044 148.57142,244.28572 z"
       transform="matrix(0.30370734,0,0,0.1929013,-38.871013,865.34345)" />
    <path
       style="color:#000000;fill:#00aa00;fill-opacity:1;fill-rule:evenodd;stroke:none;stroke-width:3;marker:none;visibility:visible;display:inline;overflow:visible;enable-background:accumulate"
       d="m 88.610617,954.74313 c 0,7.62679 -14.25865,-4.28571 -29.42754,-4.28571 -15.16889,0 -27.46571,10.00774 -27.46571,2.38095 0,-7.62679 12.29682,-19.52381 27.46571,-19.52381 15.16889,0 29.42754,13.80178 29.42754,21.42857 z"
       id="path3005"
       inkscape:connector-curvature="0"
       sodipodi:nodetypes="sssss" />
    <path
       sodipodi:type="arc"
       style="color:#000000;fill:#165016;fill-opacity:1;fill-rule:evenodd;stroke:none;stroke-width:3;marker:none;visibility:visible;display:inline;overflow:visible;enable-background:accumulate"
       id="path3008"
       sodipodi:cx="-48.57143"
       sodipodi:cy="578.07648"
       sodipodi:rx="85.714287"
       sodipodi:ry="85.714287"
       d="m 37.142857,578.07648 a 85.714287,85.714287 0 1 1 -171.428577,0 85.714287,85.714287 0 1 1 171.428577,0 z"
       transform="matrix(0.29754516,0,0,0.28888888,108.94832,826.3147)" />
    <path
       sodipodi:type="arc"
       style="color:#000000;fill:#008000;fill-opacity:1;fill-rule:evenodd;stroke:none;stroke-width:3;marker:none;visibility:visible;display:inline;overflow:visible;enable-background:accumulate"
       id="path3008-53"
       sodipodi:cx="-48.57143"
       sodipodi:cy="578.07648"
       sodipodi:rx="85.714287"
       sodipodi:ry="85.714287"
       d="m 37.142857,578.07648 a 85.714287,85.714287 0 1 1 -171.428577,0 85.714287,85.714287 0 1 1 171.428577,0 z"
       transform="matrix(0.26893505,0,0,0.2611111,106.08731,839.99143)" />
    <path
       sodipodi:type="arc"
       style="color:#000000;fill:#ececec;fill-opacity:1;fill-rule:evenodd;stroke:none;stroke-width:3;marker:none;visibility:visible;display:inline;overflow:visible;enable-background:accumulate"
       id="path3064"
       sodipodi:cx="460"
       sodipodi:cy="560.93359"
       sodipodi:rx="48.57143"
       sodipodi:ry="48.57143"
       d="m 508.57143,560.93359 a 48.57143,48.57143 0 1 1 -97.14286,0 48.57143,48.57143 0 1 1 97.14286,0 z"
       transform="matrix(0.34332134,0,0,0.33333332,-63.43169,805.38432)" />
    <path
       sodipodi:type="arc"
       style="color:#000000;fill:#ff6600;fill-opacity:1;fill-rule:evenodd;stroke:none;stroke-width:3;marker:none;visibility:visible;display:inline;overflow:visible;enable-background:accumulate"
       id="path3088"
       sodipodi:cx="460.62955"
       sodipodi:cy="555.87219"
       sodipodi:rx="31.31473"
       sodipodi:ry="31.31473"
       d="m 491.94428,555.87219 a 31.31473,31.31473 0 1 1 -62.62946,0 31.31473,31.31473 0 1 1 62.62946,0 z"
       transform="matrix(0.34332134,0,0,0.33333332,-63.105302,807.33199)" />
    <path
       sodipodi:type="arc"
       style="color:#000000;fill:#000000;fill-opacity:1;fill-rule:evenodd;stroke:none;stroke-width:3;marker:none;visibility:visible;display:inline;overflow:visible;enable-background:accumulate"
       id="path3090"
       sodipodi:cx="430.57751"
       sodipodi:cy="544.508"
       sodipodi:rx="17.425131"
       sodipodi:ry="17.425131"
       d="m 448.00265,544.508 a 17.425131,17.425131 0 1 1 -34.85027,0 17.425131,17.425131 0 1 1 34.85027,0 z"
       transform="matrix(0.34332134,0,0,0.33333332,-52.354287,811.54096)" />
    <path
       sodipodi:type="arc"
       style="color:#000000;fill:#ffffff;fill-opacity:1;fill-rule:evenodd;stroke:none;stroke-width:3;marker:none;visibility:visible;display:inline;overflow:visible;enable-background:accumulate"
       id="path3094"
       sodipodi:cx="358.60416"
       sodipodi:cy="428.59299"
       sodipodi:rx="10.606602"
       sodipodi:ry="10.606602"
       d="m 369.21076,428.59299 a 10.606602,10.606602 0 1 1 -21.21321,0 10.606602,10.606602 0 1 1 21.21321,0 z"
       transform="matrix(0.34332134,0,0,0.33333332,-24.436329,845.54942)" />
    <path
       sodipodi:type="arc"
       style="color:#000000;fill:#008000;fill-opacity:1;fill-rule:evenodd;stroke:none;stroke-width:3;marker:none;visibility:visible;display:inline;overflow:visible;enable-background:accumulate"
       id="path3084"
       sodipodi:cx="34.285713"
       sodipodi:cy="332.36218"
       sodipodi:rx="80"
       sodipodi:ry="68.571426"
       d="m 114.28571,332.36218 a 80,68.571426 0 1 1 -159.999997,0 l 80,0 z"
       sodipodi:start="0"
       sodipodi:end="3.1415927"
       transform="matrix(-0.26848801,0.05650227,-0.07194115,-0.21086935,125.21033,1054.9564)" />
    <path
       style="color:#000000;fill:#00aa00;fill-opacity:1;fill-rule:evenodd;stroke:none;stroke-width:3;marker:none;visibility:visible;display:inline;overflow:visible;enable-background:accumulate"
       d="m 107.17689,977.63878 c 0,2.13859 -5.9935,0.50508 -12.745152,0.50508 -6.751651,0 -14.999397,3.82217 -14.999397,1.68358 0,-2.13858 7.380729,-7.7445 14.13238,-7.7445 6.751649,0 13.612169,3.41726 13.612169,5.55584 z"
       id="path3114"
       inkscape:connector-curvature="0"
       sodipodi:nodetypes="sssss" />
    <path
       sodipodi:type="arc"
       style="color:#000000;fill:#165016;fill-opacity:1;fill-rule:evenodd;stroke:none;stroke-width:3;marker:none;visibility:visible;display:inline;overflow:visible;enable-background:accumulate"
       id="path3008-3"
       sodipodi:cx="-48.57143"
       sodipodi:cy="578.07648"
       sodipodi:rx="85.714287"
       sodipodi:ry="85.714287"
       d="m 37.142857,578.07648 c 0,47.33869 -38.3755938,85.71428 -85.714287,85.71428 -47.338694,0 -85.71429,-38.37559 -85.71429,-85.71428 0,-47.3387 38.375596,-85.71429 85.71429,-85.71429 47.3386932,0 85.714287,38.37559 85.714287,85.71429 z"
       transform="matrix(-0.29754516,0,0,0.28888888,11.051677,826.60412)" />
    <path
       sodipodi:type="arc"
       style="color:#000000;fill:#008000;fill-opacity:1;fill-rule:evenodd;stroke:none;stroke-width:3;marker:none;visibility:visible;display:inline;overflow:visible;enable-background:accumulate"
       id="path3008-53-7"
       sodipodi:cx="-48.57143"
       sodipodi:cy="578.07648"
       sodipodi:rx="85.714287"
       sodipodi:ry="85.714287"
       d="m 37.142857,578.07648 c 0,47.33869 -38.3755938,85.71428 -85.714287,85.71428 -47.338694,0 -85.71429,-38.37559 -85.71429,-85.71428 0,-47.3387 38.375596,-85.71429 85.71429,-85.71429 47.3386932,0 85.714287,38.37559 85.714287,85.71429 z"
       transform="matrix(-0.26893505,0,0,0.2611111,13.912687,840.28084)" />
    <path
       sodipodi:type="arc"
       style="color:#000000;fill:#ececec;fill-opacity:1;fill-rule:evenodd;stroke:none;stroke-width:3;marker:none;visibility:visible;display:inline;overflow:visible;enable-background:accumulate"
       id="path3064-3"
       sodipodi:cx="460"
       sodipodi:cy="560.93359"
       sodipodi:rx="48.57143"
       sodipodi:ry="48.57143"
       d="m 508.57143,560.93359 c 0,26.82526 -21.74617,48.57143 -48.57143,48.57143 -26.82526,0 -48.57143,-21.74617 -48.57143,-48.57143 0,-26.82526 21.74617,-48.57143 48.57143,-48.57143 26.82526,0 48.57143,21.74617 48.57143,48.57143 z"
       transform="matrix(-0.34332134,0,0,0.33333332,183.43169,805.67374)" />
    <path
       sodipodi:type="arc"
       style="color:#000000;fill:#ff6600;fill-opacity:1;fill-rule:evenodd;stroke:none;stroke-width:3;marker:none;visibility:visible;display:inline;overflow:visible;enable-background:accumulate"
       id="path3088-1"
       sodipodi:cx="460.62955"
       sodipodi:cy="555.87219"
       sodipodi:rx="31.31473"
       sodipodi:ry="31.31473"
       d="m 491.94428,555.87219 c 0,17.29465 -14.02009,31.31473 -31.31473,31.31473 -17.29465,0 -31.31473,-14.02008 -31.31473,-31.31473 0,-17.29465 14.02008,-31.31473 31.31473,-31.31473 17.29464,0 31.31473,14.02008 31.31473,31.31473 z"
       transform="matrix(-0.34332134,0,0,0.33333332,183.1053,807.6214)" />
    <path
       sodipodi:type="arc"
       style="color:#000000;fill:#000000;fill-opacity:1;fill-rule:evenodd;stroke:none;stroke-width:3;marker:none;visibility:visible;display:inline;overflow:visible;enable-background:accumulate"
       id="path3090-0"
       sodipodi:cx="430.57751"
       sodipodi:cy="544.508"
       sodipodi:rx="17.425131"
       sodipodi:ry="17.425131"
       d="m 448.00265,544.508 c 0,9.62363 -7.8015,17.42513 -17.42514,17.42513 -9.62363,0 -17.42513,-7.8015 -17.42513,-17.42513 0,-9.62364 7.8015,-17.42514 17.42513,-17.42514 9.62364,0 17.42514,7.8015 17.42514,17.42514 z"
       transform="matrix(-0.34332134,0,0,0.33333332,172.35428,811.83037)" />
    <path
       sodipodi:type="arc"
       style="color:#000000;fill:#ffffff;fill-opacity:1;fill-rule:evenodd;stroke:none;stroke-width:3;marker:none;visibility:visible;display:inline;overflow:visible;enable-background:accumulate"
       id="path3094-3"
       sodipodi:cx="358.60416"
       sodipodi:cy="428.59299"
       sodipodi:rx="10.606602"
       sodipodi:ry="10.606602"
       d="m 369.21076,428.59299 c 0,5.85786 -4.74874,10.6066 -10.6066,10.6066 -5.85787,0 -10.60661,-4.74874 -10.60661,-10.6066 0,-5.85787 4.74874,-10.6066 10.60661,-10.6066 5.85786,0 10.6066,4.74873 10.6066,10.6066 z"
       transform="matrix(-0.34332134,0,0,0.33333332,151.54587,846.17556)" />
    <path
       sodipodi:type="arc"
       style="color:#000000;fill:#008000;fill-opacity:1;fill-rule:evenodd;stroke:none;stroke-width:3;marker:none;visibility:visible;display:inline;overflow:visible;enable-background:accumulate"
       id="path3084-0"
       sodipodi:cx="34.285713"
       sodipodi:cy="332.36218"
       sodipodi:rx="80"
       sodipodi:ry="68.571426"
       d="m 114.28571,332.36218 c 0,37.87096 -35.817217,68.57143 -79.999997,68.57143 -44.1827798,0 -80,-30.70047 -80,-68.57143 0,0 0,0 0,0 l 80,0 z"
       sodipodi:start="0"
       sodipodi:end="3.1415927"
       transform="matrix(0.26848801,0.05650227,0.07194115,-0.21086935,-5.2103428,1055.2458)" />
    <path
       style="color:#000000;fill:#00aa00;fill-opacity:1;fill-rule:evenodd;stroke:none;stroke-width:3;marker:none;visibility:visible;display:inline;overflow:visible;enable-background:accumulate"
       d="m 12.823097,977.9282 c 0,2.13858 5.99351,0.50508 12.74516,0.50508 6.75165,0 14.9994,3.82217 14.9994,1.68358 0,-2.13858 -7.38073,-7.7445 -14.13239,-7.7445 -6.75165,0 -13.61217,3.41725 -13.61217,5.55584 z"
       id="path3114-7"
       inkscape:connector-curvature="0"
       sodipodi:nodetypes="sssss" />
    <path
       style="color:#000000;fill:#00aa00;fill-opacity:1;fill-rule:evenodd;stroke:none;stroke-width:2.57500005;marker:none;visibility:visible;display:inline;overflow:visible;enable-background:accumulate"
       d="m 51.607144,1043.0765 c 0,2.5641 -3.440717,4.4643 -4.821429,4.4643 -1.380712,0 -0.178571,-1.9002 -0.178571,-4.4643 0,-2.5642 1.119288,-4.6429 2.5,-4.6429 1.380712,0 2.5,2.0787 2.5,4.6429 z"
       id="path3098"
       inkscape:connector-curvature="0"
       sodipodi:nodetypes="sssss" />
  </g>
</svg>
