<?xml version="1.0" encoding="UTF-8" standalone="no"?>
<!-- Created with Inkscape (http://www.inkscape.org/) -->

<svg
   xmlns:dc="http://purl.org/dc/elements/1.1/"
   xmlns:cc="http://creativecommons.org/ns#"
   xmlns:rdf="http://www.w3.org/1999/02/22-rdf-syntax-ns#"
   xmlns:svg="http://www.w3.org/2000/svg"
   xmlns="http://www.w3.org/2000/svg"
   xmlns:sodipodi="http://sodipodi.sourceforge.net/DTD/sodipodi-0.dtd"
   xmlns:inkscape="http://www.inkscape.org/namespaces/inkscape"
   width="120"
   height="120"
   id="svg2"
   version="1.1"
   inkscape:version="0.48.2 r9819"
   sodipodi:docname="goombaLevel3.svg"
   inkscape:export-filename="/home/marcin/programs/bomberman/images/goombaLevel3.png"
   inkscape:export-xdpi="90"
   inkscape:export-ydpi="90">
  <defs
     id="defs4">
    <clipPath
       clipPathUnits="userSpaceOnUse"
       id="clipPath3837">
      <path
         style="color:#000000;fill:#000000;fill-opacity:1;fill-rule:evenodd;stroke:none;stroke-width:3;marker:none;visibility:visible;display:inline;overflow:visible;enable-background:accumulate"
         d="m 392.19172,544.06606 c 0,2.47564 -3.9346,0.56821 -9.72273,0.56821 -5.78812,0 -11.23794,1.90743 -11.23794,-0.56821 0,-2.47565 4.69221,-6.25032 10.48033,-6.25032 5.78813,0 10.48034,3.77467 10.48034,6.25032 z"
         id="path3839"
         inkscape:connector-curvature="0"
         sodipodi:nodetypes="sssss" />
    </clipPath>
    <clipPath
       clipPathUnits="userSpaceOnUse"
       id="clipPath3944">
      <path
         style="color:#000000;fill:#000000;fill-opacity:1;fill-rule:evenodd;stroke:none;stroke-width:3;marker:none;visibility:visible;display:inline;overflow:visible;enable-background:accumulate"
         d="m 605.65758,276.51556 c 1.23782,2.14397 -3.12336,2.45938 -8.13603,5.35345 -5.01265,2.89406 -8.77862,7.27085 -10.01644,5.12688 -1.23783,-2.14397 0.93841,-7.75904 5.95107,-10.6531 5.01267,-2.89406 10.96358,-1.97121 12.2014,0.17277 z"
         id="path3946"
         inkscape:connector-curvature="0"
         sodipodi:nodetypes="sssss" />
    </clipPath>
    <clipPath
       clipPathUnits="userSpaceOnUse"
       id="clipPath3948">
      <path
         style="color:#000000;fill:#000000;fill-opacity:1;fill-rule:evenodd;stroke:none;stroke-width:3;marker:none;visibility:visible;display:inline;overflow:visible;enable-background:accumulate"
         d="m 513.45281,423.84924 c 0.64074,2.39128 -3.65347,1.56719 -9.24438,3.06527 -5.59089,1.49808 -10.36133,4.75103 -11.00208,2.35975 -0.64074,-2.3913 2.91463,-7.25178 8.50552,-8.74986 5.59091,-1.49808 11.10019,0.93354 11.74094,3.32484 z"
         id="path3950"
         inkscape:connector-curvature="0"
         sodipodi:nodetypes="sssss" />
    </clipPath>
    <clipPath
       clipPathUnits="userSpaceOnUse"
       id="clipPath3952">
      <path
         style="color:#000000;fill:#000000;fill-opacity:1;fill-rule:evenodd;stroke:none;stroke-width:3;marker:none;visibility:visible;display:inline;overflow:visible;enable-background:accumulate"
         d="m 386.25707,542.29829 c 0,2.47564 -3.9346,0.56821 -9.72273,0.56821 -5.78812,0 -11.23794,1.90743 -11.23794,-0.56821 0,-2.47565 4.69221,-6.25032 10.48033,-6.25032 5.78813,0 10.48034,3.77467 10.48034,6.25032 z"
         id="path3954"
         inkscape:connector-curvature="0"
         sodipodi:nodetypes="sssss" />
    </clipPath>
    <clipPath
       clipPathUnits="userSpaceOnUse"
       id="clipPath3956">
      <path
         style="color:#000000;fill:#000000;fill-opacity:1;fill-rule:evenodd;stroke:none;stroke-width:3;marker:none;visibility:visible;display:inline;overflow:visible;enable-background:accumulate"
         d="m 232.73855,623.79061 c -0.64074,2.39129 -3.94759,-0.4695 -9.5385,-1.96758 -5.59089,-1.49807 -11.34869,-1.06616 -10.70795,-3.45744 0.64074,-2.39129 6.15003,-4.82291 11.74092,-3.32484 5.59091,1.49808 9.14628,6.35857 8.50553,8.74986 z"
         id="path3958"
         inkscape:connector-curvature="0"
         sodipodi:nodetypes="sssss" />
    </clipPath>
    <clipPath
       clipPathUnits="userSpaceOnUse"
       id="clipPath3960">
      <path
         style="color:#000000;fill:#000000;fill-opacity:1;fill-rule:evenodd;stroke:none;stroke-width:3;marker:none;visibility:visible;display:inline;overflow:visible;enable-background:accumulate"
         d="m 63.359289,662.77263 c -1.23782,2.14397 -3.691569,-1.47522 -8.704236,-4.36928 -5.012659,-2.89406 -10.686057,-3.96709 -9.448237,-6.11105 1.237825,-2.14398 7.188733,-3.06684 12.201392,-0.17278 5.012668,2.89407 7.188906,8.50913 5.951081,10.65311 z"
         id="path3962"
         inkscape:connector-curvature="0"
         sodipodi:nodetypes="sssss" />
    </clipPath>
    <clipPath
       clipPathUnits="userSpaceOnUse"
       id="clipPath3249">
      <path
         style="color:#000000;fill:#000000;fill-opacity:1;fill-rule:evenodd;stroke:none;stroke-width:3;marker:none;visibility:visible;display:inline;overflow:visible;enable-background:accumulate"
         d="m -15.662901,136.87813 c 8.2621094,6.40313 15.02753352,-8.70718 34.344769,-23.67804 C 37.999085,98.229247 62.553135,89.066967 54.291026,82.663833 46.028825,76.260627 17.771461,78.633755 -1.5457564,93.604599 -20.863001,108.57546 -23.925102,130.47492 -15.662901,136.87813 z"
         id="path3251"
         inkscape:connector-curvature="0"
         sodipodi:nodetypes="sssss" />
    </clipPath>
    <clipPath
       clipPathUnits="userSpaceOnUse"
       id="clipPath3253">
      <path
         style="color:#000000;fill:#000000;fill-opacity:1;fill-rule:evenodd;stroke:none;stroke-width:3;marker:none;visibility:visible;display:inline;overflow:visible;enable-background:accumulate"
         d="m -25.261636,111.60687 c 3.024142,8.74685 18.6317603,-1.71747 45.019595,-7.19718 26.38781,-5.479711 53.563389,-3.89978 50.539247,-12.646628 C 67.273031,83.016121 41.270385,74.121581 14.882575,79.60129 c -26.387847,5.479717 -43.168386,23.25864 -40.144211,32.00558 z"
         id="path3255"
         inkscape:connector-curvature="0"
         sodipodi:nodetypes="sssss" />
    </clipPath>
    <clipPath
       clipPathUnits="userSpaceOnUse"
       id="clipPath3257">
      <path
         style="color:#000000;fill:#000000;fill-opacity:1;fill-rule:evenodd;stroke:none;stroke-width:3;marker:none;visibility:visible;display:inline;overflow:visible;enable-background:accumulate"
         d="m 54.387998,82.753803 c 8.262109,6.403135 -11.235069,11.646338 -30.552304,26.617197 -19.3172176,14.97084 -31.1395135,34.00023 -39.401623,27.5971 -8.2622,-6.40321 -5.2001,-28.30267 14.1171173,-43.27351 C 17.868433,78.723726 46.125797,76.350597 54.387998,82.753803 z"
         id="path3259"
         inkscape:connector-curvature="0"
         sodipodi:nodetypes="sssss" />
    </clipPath>
    <clipPath
       clipPathUnits="userSpaceOnUse"
       id="clipPath3261">
      <path
         style="color:#000000;fill:#000000;fill-opacity:1;fill-rule:evenodd;stroke:none;stroke-width:3;marker:none;visibility:visible;display:inline;overflow:visible;enable-background:accumulate"
         d="m 70.323145,91.878554 c 3.024142,8.746846 -17.243622,5.732436 -43.631457,11.212146 -26.38780942,5.47971 -48.903243,17.37851 -51.927385,8.63166 -3.024175,-8.74694 13.756364,-26.525861 40.144173,-32.00557 26.387847,-5.479716 52.390493,3.414823 55.414669,12.161764 z"
         id="path3263"
         inkscape:connector-curvature="0"
         sodipodi:nodetypes="sssss" />
    </clipPath>
    <clipPath
       clipPathUnits="userSpaceOnUse"
       id="clipPath3265">
      <path
         style="color:#000000;fill:#000000;fill-opacity:1;fill-rule:evenodd;stroke:none;stroke-width:3;marker:none;visibility:visible;display:inline;overflow:visible;enable-background:accumulate"
         d="m 84.341228,100.11779 c 0,9.0554 -18.570464,2.0783 -45.889161,2.0783 -27.318671,0 -53.040632,6.9771 -53.040632,-2.0783 0,-9.0555 22.1462063,-22.8627 49.464877,-22.8627 27.31871,0 49.464916,13.8072 49.464916,22.8627 z"
         id="path3267"
         inkscape:connector-curvature="0"
         sodipodi:nodetypes="sssss" />
    </clipPath>
  </defs>
  <sodipodi:namedview
     id="base"
     pagecolor="#ffffff"
     bordercolor="#666666"
     borderopacity="1.0"
     inkscape:pageopacity="0.0"
     inkscape:pageshadow="2"
     inkscape:zoom="2.8284271"
     inkscape:cx="109.0468"
     inkscape:cy="58.721387"
     inkscape:document-units="px"
     inkscape:current-layer="layer1"
     showgrid="false"
     showguides="true"
     inkscape:guide-bbox="true"
     inkscape:window-width="1366"
     inkscape:window-height="688"
     inkscape:window-x="0"
     inkscape:window-y="25"
     inkscape:window-maximized="1" />
  <metadata
     id="metadata7">
    <rdf:RDF>
      <cc:Work
         rdf:about="">
        <dc:format>image/svg+xml</dc:format>
        <dc:type
           rdf:resource="http://purl.org/dc/dcmitype/StillImage" />
        <dc:title />
      </cc:Work>
    </rdf:RDF>
  </metadata>
  <g
     inkscape:label="Layer 1"
     inkscape:groupmode="layer"
     id="layer1"
     transform="translate(0,-932.36217)">
    <path
       sodipodi:type="arc"
       style="color:#000000;fill:#008000;fill-opacity:1;fill-rule:evenodd;stroke:none;stroke-width:2;marker:none;visibility:visible;display:inline;overflow:visible;enable-background:accumulate"
       id="path3011-7"
       sodipodi:cx="55.154331"
       sodipodi:cy="92.422836"
       sodipodi:rx="55.507881"
       sodipodi:ry="55.507881"
       d="m 110.66221,92.422836 a 55.507881,55.507881 0 1 1 -111.01575996,0 55.507881,55.507881 0 1 1 111.01575996,0 z"
       transform="matrix(0.44267517,0,0,0.44267517,0.15650833,987.23047)" />
    <path
       sodipodi:type="arc"
       style="color:#000000;fill:#00d400;fill-opacity:1;fill-rule:evenodd;stroke:none;stroke-width:2;marker:none;visibility:visible;display:inline;overflow:visible;enable-background:accumulate"
       id="path3011-9-1"
       sodipodi:cx="55.154331"
       sodipodi:cy="92.422836"
       sodipodi:rx="55.507881"
       sodipodi:ry="55.507881"
       d="m 110.66221,92.422836 a 55.507881,55.507881 0 1 1 -111.01575996,0 55.507881,55.507881 0 1 1 111.01575996,0 z"
       transform="matrix(0.4148423,0,0,0.4148423,1.6180413,989.7293)" />
    <path
       sodipodi:type="arc"
       style="color:#000000;fill:#008000;fill-opacity:1;fill-rule:evenodd;stroke:none;stroke-width:2;marker:none;visibility:visible;display:inline;overflow:visible;enable-background:accumulate"
       id="path3011-7-7"
       sodipodi:cx="55.154331"
       sodipodi:cy="92.422836"
       sodipodi:rx="55.507881"
       sodipodi:ry="55.507881"
       d="m 110.66221,92.422836 a 55.507881,55.507881 0 1 1 -111.01575996,0 55.507881,55.507881 0 1 1 111.01575996,0 z"
       transform="matrix(0.44267517,0,0,0.44267517,0.333285,916.34301)" />
    <path
       sodipodi:type="arc"
       style="color:#000000;fill:#00d400;fill-opacity:1;fill-rule:evenodd;stroke:none;stroke-width:2;marker:none;visibility:visible;display:inline;overflow:visible;enable-background:accumulate"
       id="path3011-9-1-1"
       sodipodi:cx="55.154331"
       sodipodi:cy="92.422836"
       sodipodi:rx="55.507881"
       sodipodi:ry="55.507881"
       d="m 110.66221,92.422836 a 55.507881,55.507881 0 1 1 -111.01575996,0 55.507881,55.507881 0 1 1 111.01575996,0 z"
       transform="matrix(0.4148423,0,0,0.4148423,1.794818,918.84184)" />
    <path
       sodipodi:type="arc"
       style="color:#000000;fill:#008000;fill-opacity:1;fill-rule:evenodd;stroke:none;stroke-width:2;marker:none;visibility:visible;display:inline;overflow:visible;enable-background:accumulate"
       id="path3011-7-7-4"
       sodipodi:cx="55.154331"
       sodipodi:cy="92.422836"
       sodipodi:rx="55.507881"
       sodipodi:ry="55.507881"
       d="m 110.66221,92.422836 a 55.507881,55.507881 0 1 1 -111.01575996,0 55.507881,55.507881 0 1 1 111.01575996,0 z"
       transform="matrix(0.44267517,0,0,0.44267517,71.397517,916.34301)" />
    <path
       sodipodi:type="arc"
       style="color:#000000;fill:#00d400;fill-opacity:1;fill-rule:evenodd;stroke:none;stroke-width:2;marker:none;visibility:visible;display:inline;overflow:visible;enable-background:accumulate"
       id="path3011-9-1-1-5"
       sodipodi:cx="55.154331"
       sodipodi:cy="92.422836"
       sodipodi:rx="55.507881"
       sodipodi:ry="55.507881"
       d="m 110.66221,92.422836 a 55.507881,55.507881 0 1 1 -111.01575996,0 55.507881,55.507881 0 1 1 111.01575996,0 z"
       transform="matrix(0.4148423,0,0,0.4148423,72.85905,918.84184)" />
    <path
       sodipodi:type="arc"
       style="color:#000000;fill:#008000;fill-opacity:1;fill-rule:evenodd;stroke:none;stroke-width:2;marker:none;visibility:visible;display:inline;overflow:visible;enable-background:accumulate"
       id="path3011-7-7-4-0"
       sodipodi:cx="55.154331"
       sodipodi:cy="92.422836"
       sodipodi:rx="55.507881"
       sodipodi:ry="55.507881"
       d="m 110.66221,92.422836 a 55.507881,55.507881 0 1 1 -111.01575996,0 55.507881,55.507881 0 1 1 111.01575996,0 z"
       transform="matrix(0.44267517,0,0,0.44267517,72.104623,987.40725)" />
    <path
       sodipodi:type="arc"
       style="color:#000000;fill:#00d400;fill-opacity:1;fill-rule:evenodd;stroke:none;stroke-width:2;marker:none;visibility:visible;display:inline;overflow:visible;enable-background:accumulate"
       id="path3011-9-1-1-5-5"
       sodipodi:cx="55.154331"
       sodipodi:cy="92.422836"
       sodipodi:rx="55.507881"
       sodipodi:ry="55.507881"
       d="m 110.66221,92.422836 a 55.507881,55.507881 0 1 1 -111.01575996,0 55.507881,55.507881 0 1 1 111.01575996,0 z"
       transform="matrix(0.4148423,0,0,0.4148423,73.566156,989.90608)" />
    <path
       style="color:#000000;fill:#55ff55;fill-opacity:1;fill-rule:evenodd;stroke:none;stroke-width:2;marker:none;visibility:visible;display:inline;overflow:visible;enable-background:accumulate"
       d="m 31.29899,939.92268 c 2.416246,2.41625 -0.773726,9.52373 -7.125,15.87501 -6.351275,6.35127 -13.458755,9.54124 -15.875001,7.125 -2.4162454,-2.41625 0.420172,-10.58439 6.771447,-16.93566 6.351275,-6.35128 13.812308,-8.48059 16.228554,-6.06435 z"
       id="path3269"
       inkscape:connector-curvature="0"
       sodipodi:nodetypes="sssss" />
    <path
       style="color:#000000;fill:#55ff55;fill-opacity:1;fill-rule:evenodd;stroke:none;stroke-width:2;marker:none;visibility:visible;display:inline;overflow:visible;enable-background:accumulate"
       d="m 88.884838,940.18046 c -2.416246,2.41625 0.773726,9.52373 7.125004,15.875 6.351268,6.35128 13.458748,9.54125 15.874998,7.125 2.41624,-2.41624 -0.42017,-10.58438 -6.77145,-16.93566 -6.351268,-6.35127 -13.812306,-8.48058 -16.228552,-6.06434 z"
       id="path3269-9"
       inkscape:connector-curvature="0"
       sodipodi:nodetypes="sssss" />
    <path
       style="color:#000000;fill:#55ff55;fill-opacity:1;fill-rule:evenodd;stroke:none;stroke-width:2;marker:none;visibility:visible;display:inline;overflow:visible;enable-background:accumulate"
       d="m 89.591945,1043.9821 c -2.416246,-2.4163 0.773726,-9.5238 7.125007,-15.875 6.351268,-6.3513 13.458748,-9.5412 15.874998,-7.125 2.41624,2.4162 -0.42017,10.5843 -6.77145,16.9356 -6.351268,6.3513 -13.812309,8.4806 -16.228555,6.0644 z"
       id="path3269-9-2"
       inkscape:connector-curvature="0"
       sodipodi:nodetypes="sssss" />
    <path
       style="color:#000000;fill:#55ff55;fill-opacity:1;fill-rule:evenodd;stroke:none;stroke-width:2;marker:none;visibility:visible;display:inline;overflow:visible;enable-background:accumulate"
       d="m 30.969763,1045.3965 c 2.416246,-2.4163 -0.773726,-9.5238 -7.125007,-15.875 -6.351269,-6.3513 -13.458749,-9.5412 -15.8749995,-7.125 -2.41624,2.4162 0.42017,10.5843 6.7714505,16.9356 6.35127,6.3513 13.81231,8.4806 16.228556,6.0644 z"
       id="path3269-9-2-6"
       inkscape:connector-curvature="0"
       sodipodi:nodetypes="sssss" />
    <path
       sodipodi:type="arc"
       style="color:#000000;fill:#008000;fill-opacity:1;fill-rule:evenodd;stroke:none;stroke-width:2;marker:none;visibility:visible;display:inline;overflow:visible;enable-background:accumulate"
       id="path3011"
       sodipodi:cx="55.154331"
       sodipodi:cy="92.422836"
       sodipodi:rx="55.507881"
       sodipodi:ry="55.507881"
       d="m 110.66221,92.422836 a 55.507881,55.507881 0 1 1 -111.01575996,0 55.507881,55.507881 0 1 1 111.01575996,0 z"
       transform="matrix(1.0636943,0,0,1.0636943,1.4367327,893.94845)" />
    <path
       sodipodi:type="arc"
       style="color:#000000;fill:#00d400;fill-opacity:1;fill-rule:evenodd;stroke:none;stroke-width:2;marker:none;visibility:visible;display:inline;overflow:visible;enable-background:accumulate"
       id="path3011-9"
       sodipodi:cx="55.154331"
       sodipodi:cy="92.422836"
       sodipodi:rx="55.507881"
       sodipodi:ry="55.507881"
       d="m 110.66221,92.422836 a 55.507881,55.507881 0 1 1 -111.01575996,0 55.507881,55.507881 0 1 1 111.01575996,0 z"
       transform="matrix(0.99681532,0,0,0.99681532,4.9486182,899.95282)" />
    <path
       style="color:#000000;fill:#000000;fill-opacity:1;fill-rule:evenodd;stroke:none;stroke-width:3;marker:none;visibility:visible;display:inline;overflow:visible;enable-background:accumulate"
       d="m 99.074499,1025.7519 c 0,9.0554 -14.39211,2.0783 -35.5641,2.0783 -21.17197,0 -41.10649,6.9771 -41.10649,-2.0783 0,-9.0555 17.16331,-22.8627 38.33528,-22.8627 21.172,0 38.33531,13.8072 38.33531,22.8627 z"
       id="path3812"
       inkscape:connector-curvature="0"
       sodipodi:nodetypes="sssss" />
    <path
       style="color:#000000;fill:#008000;fill-opacity:1;fill-rule:evenodd;stroke:none;stroke-width:3;marker:none;visibility:visible;display:inline;overflow:visible;enable-background:accumulate"
       d="m 36.542255,965.3336 c 7.33522,0 13.87659,11.36192 21.21182,11.36192 7.33522,0 17.81083,-14.45511 24.88141,-16.40762 5.84908,-1.61515 11.54446,2.06818 15.50398,5.42088 3.959505,3.35272 6.402015,7.98988 6.402015,13.12789 0,5.13802 -2.44251,9.77522 -6.402015,13.12793 -3.95952,3.35271 -9.436,5.42092 -15.50398,5.42092 -7.07058,0 -12.49852,-4.39144 -28.74314,-1.63923 -6.9713,1.18113 -10.27947,6.68491 -17.35009,6.68491 -6.06795,0 -11.54446,-2.0682 -15.50398,-5.42088 -3.95948,-3.35273 -6.40202,-7.98993 -6.40202,-13.12794 0,-5.13801 2.44254,-9.77518 6.40202,-13.12789 3.95952,-3.35271 9.43603,-5.42089 15.50398,-5.42089 z"
       id="rect2992"
       inkscape:connector-curvature="0"
       sodipodi:nodetypes="sssssssssssss" />
    <path
       style="color:#000000;fill:#005500;fill-opacity:1;fill-rule:evenodd;stroke:none;stroke-width:3;marker:none;visibility:visible;display:inline;overflow:visible;enable-background:accumulate"
       d="m 38.579482,967.70886 c 6.542607,0 12.377145,10.1342 18.919761,10.1342 6.542608,0 15.886268,-12.89315 22.192831,-14.63468 5.217053,-1.44062 10.297015,1.8447 13.828685,4.83512 3.531662,2.99044 5.710245,7.12653 5.710245,11.70935 0,4.58283 -2.178583,8.71895 -5.710245,11.70938 -3.53167,2.99042 -8.416385,4.83512 -13.828685,4.83512 -6.306563,0 -11.147983,-3.91686 -25.637279,-1.4621 -6.218011,1.0535 -9.168714,5.96255 -15.475313,5.96255 -5.412273,0 -10.297015,-1.84467 -13.828686,-4.83505 -3.531635,-2.99046 -5.710245,-7.12659 -5.710245,-11.70941 0,-4.58282 2.17861,-8.71891 5.710245,-11.70934 3.531671,-2.99043 8.416413,-4.83514 13.828686,-4.83514 z"
       id="rect2992-0"
       inkscape:connector-curvature="0"
       sodipodi:nodetypes="sssssssssssss" />
    <path
       style="color:#000000;fill:#ffffff;fill-opacity:1;fill-rule:evenodd;stroke:none;stroke-width:3;marker:none;visibility:visible;display:inline;overflow:visible;enable-background:accumulate"
       d="m 90.606185,967.95559 -22.18808,14.63757 c 0.0534,0.24885 0.10208,0.50538 0.16856,0.75408 2.04377,7.62759 9.8656,12.14346 17.49311,10.09966 7.62752,-2.04377 12.14346,-9.86553 10.09962,-17.49312 -0.90265,-3.3688 -2.92703,-6.13809 -5.57339,-7.99819 z"
       id="path3765"
       inkscape:connector-curvature="0" />
    <path
       inkscape:connector-curvature="0"
       style="color:#000000;fill:#ff6600;fill-opacity:1;fill-rule:evenodd;stroke:none;stroke-width:3;marker:none;visibility:visible;display:inline;overflow:visible;enable-background:accumulate"
       d="m 86.868335,970.34254 -14.81794,9.77543 c 0.0327,0.16674 0.0679,0.33784 0.11225,0.50379 1.36496,5.09391 6.58855,8.10972 11.6825,6.74483 5.09391,-1.36492 8.1098,-6.58855 6.74488,-11.68242 -0.60282,-2.24983 -1.95481,-4.09928 -3.7221,-5.34148 z"
       id="path3765-6" />
    <path
       style="color:#000000;fill:#ffffff;fill-opacity:1;fill-rule:evenodd;stroke:none;stroke-width:3;marker:none;visibility:visible;display:inline;overflow:visible;enable-background:accumulate"
       d="m 50.933535,984.0505 -20.29721,-10.15833 c -0.1613,0.14604 -0.33131,0.29026 -0.48682,0.44556 -4.76791,4.76784 -4.76791,12.47993 -4e-5,17.24776 4.76787,4.7678 12.47996,4.76787 17.24776,0 2.10585,-2.10581 3.28935,-4.78513 3.53504,-7.53619 z"
       id="path3765-4"
       inkscape:connector-curvature="0" />
    <path
       inkscape:connector-curvature="0"
       style="color:#000000;fill:#ff6600;fill-opacity:1;fill-rule:evenodd;stroke:none;stroke-width:3;marker:none;visibility:visible;display:inline;overflow:visible;enable-background:accumulate"
       d="m 47.572575,982.30556 -13.5551,-6.78411 c -0.10753,0.097 -0.22014,0.19472 -0.32404,0.29861 -3.18411,3.18415 -3.18408,8.33445 4e-5,11.5186 3.18415,3.18415 8.33451,3.18418 11.51859,7e-5 1.40634,-1.40634 2.19689,-3.19563 2.36084,-5.03295 z"
       id="path3765-6-6" />
    <path
       inkscape:connector-curvature="0"
       style="color:#000000;fill:#000000;fill-opacity:1;fill-rule:evenodd;stroke:none;stroke-width:3;marker:none;visibility:visible;display:inline;overflow:visible;enable-background:accumulate"
       d="m 85.059355,971.49454 -10.4985,6.92588 c 0.0232,0.11814 0.0481,0.23936 0.0795,0.35694 0.96707,3.60903 4.66799,5.74573 8.27704,4.77871 3.60904,-0.96705 5.74579,-4.66799 4.77875,-8.27699 -0.4271,-1.594 -1.38498,-2.90434 -2.6371,-3.78443 z"
       id="path3765-6-9" />
    <path
       inkscape:connector-curvature="0"
       style="color:#000000;fill:#000000;fill-opacity:1;fill-rule:evenodd;stroke:none;stroke-width:3;marker:none;visibility:visible;display:inline;overflow:visible;enable-background:accumulate"
       d="m 45.305125,981.2314 -8.67195,-4.34017 c -0.0688,0.0621 -0.14084,0.12457 -0.2073,0.19104 -2.03706,2.03708 -2.03704,5.33201 2e-5,7.36909 2.03708,2.03707 5.33205,2.03709 7.36908,4e-5 0.89972,-0.89971 1.40548,-2.04442 1.51036,-3.21986 z"
       id="path3765-6-6-8" />
    <path
       sodipodi:type="arc"
       style="color:#000000;fill:#ffffff;fill-opacity:1;fill-rule:evenodd;stroke:none;stroke-width:3;marker:none;visibility:visible;display:inline;overflow:visible;enable-background:accumulate"
       id="path4029"
       sodipodi:cx="19.887379"
       sodipodi:cy="68.116043"
       sodipodi:rx="2.7400389"
       sodipodi:ry="2.7400389"
       d="m 22.627418,68.116043 a 2.7400389,2.7400389 0 1 1 -5.480078,0 2.7400389,2.7400389 0 1 1 5.480078,0 z"
       transform="matrix(0.58226622,0,0,0.58226622,29.988655,943.74427)" />
    <path
       sodipodi:type="arc"
       style="color:#000000;fill:#ffffff;fill-opacity:1;fill-rule:evenodd;stroke:none;stroke-width:3;marker:none;visibility:visible;display:inline;overflow:visible;enable-background:accumulate"
       id="path4029-5"
       sodipodi:cx="19.887379"
       sodipodi:cy="68.116043"
       sodipodi:rx="2.7400389"
       sodipodi:ry="2.7400389"
       d="m 22.627418,68.116043 a 2.7400389,2.7400389 0 1 1 -5.480078,0 2.7400389,2.7400389 0 1 1 5.480078,0 z"
       transform="matrix(0.74193549,0,0,0.74193549,70.274435,928.63891)" />
    <path
       style="color:#000000;fill:#55ff55;fill-opacity:1;fill-rule:evenodd;stroke:none;stroke-width:2;marker:none;visibility:visible;display:inline;overflow:visible;enable-background:accumulate"
       d="m 91.923883,956.01887 c 0,3.80761 -14.589358,-3.35876 -30.405592,-3.35876 -15.816234,0 -33.587573,6.81282 -33.587573,3.00521 0,-3.80762 17.064232,-17.14734 32.880466,-17.14734 15.816234,0 31.112699,13.69328 31.112699,17.50089 z"
       id="path3115"
       inkscape:connector-curvature="0"
       sodipodi:nodetypes="sssss" />
    <path
       sodipodi:type="arc"
       style="color:#000000;fill:#ffffff;fill-opacity:1;fill-rule:evenodd;stroke:none;stroke-width:2;marker:none;visibility:visible;display:inline;overflow:visible;enable-background:accumulate"
       id="path3136-5-1"
       sodipodi:cx="34.648232"
       sodipodi:cy="82.169785"
       sodipodi:rx="7.0710678"
       sodipodi:ry="12.020816"
       d="m 41.719299,82.169785 a 7.0710678,12.020816 0 1 1 -14.142135,0 7.0710678,12.020816 0 1 1 14.142135,0 z"
       transform="matrix(0.775,0,0,1,33.782027,925.29111)"
       clip-path="url(#clipPath3265)" />
    <path
       sodipodi:type="arc"
       style="color:#000000;fill:#ffffff;fill-opacity:1;fill-rule:evenodd;stroke:none;stroke-width:2;marker:none;visibility:visible;display:inline;overflow:visible;enable-background:accumulate"
       id="path3136-5-1-9"
       sodipodi:cx="34.648232"
       sodipodi:cy="82.169785"
       sodipodi:rx="7.0710678"
       sodipodi:ry="12.020816"
       d="m 41.719299,82.169785 a 7.0710678,12.020816 0 1 1 -14.142135,0 7.0710678,12.020816 0 1 1 14.142135,0 z"
       transform="matrix(0.74859252,0.20058476,-0.25881905,0.96592583,70.283019,922.55528)"
       clip-path="url(#clipPath3261)" />
    <path
       sodipodi:type="arc"
       style="color:#000000;fill:#ffffff;fill-opacity:1;fill-rule:evenodd;stroke:none;stroke-width:2;marker:none;visibility:visible;display:inline;overflow:visible;enable-background:accumulate"
       id="path3136-5-1-9-5"
       sodipodi:cx="34.648232"
       sodipodi:cy="82.169785"
       sodipodi:rx="7.0710678"
       sodipodi:ry="12.020816"
       d="m 41.719299,82.169785 a 7.0710678,12.020816 0 1 1 -14.142135,0 7.0710678,12.020816 0 1 1 14.142135,0 z"
       transform="matrix(0.54800776,0.54800776,-0.70710679,0.70710678,127.85721,937.08808)"
       clip-path="url(#clipPath3257)" />
    <path
       sodipodi:type="arc"
       style="color:#000000;fill:#ffffff;fill-opacity:1;fill-rule:evenodd;stroke:none;stroke-width:2;marker:none;visibility:visible;display:inline;overflow:visible;enable-background:accumulate"
       id="path3136-5-1-9-0"
       sodipodi:cx="34.648232"
       sodipodi:cy="82.169785"
       sodipodi:rx="7.0710678"
       sodipodi:ry="12.020816"
       d="m 41.719299,82.169785 a 7.0710678,12.020816 0 1 1 -14.142135,0 7.0710678,12.020816 0 1 1 14.142135,0 z"
       transform="matrix(-0.74859252,0.20058476,0.25881905,0.96592583,51.349823,922.67204)"
       clip-path="url(#clipPath3253)" />
    <path
       sodipodi:type="arc"
       style="color:#000000;fill:#ffffff;fill-opacity:1;fill-rule:evenodd;stroke:none;stroke-width:2;marker:none;visibility:visible;display:inline;overflow:visible;enable-background:accumulate"
       id="path3136-5-1-9-5-5"
       sodipodi:cx="34.648232"
       sodipodi:cy="82.169785"
       sodipodi:rx="7.0710678"
       sodipodi:ry="12.020816"
       d="m 41.719299,82.169785 a 7.0710678,12.020816 0 1 1 -14.142135,0 7.0710678,12.020816 0 1 1 14.142135,0 z"
       transform="matrix(-0.54800776,0.54800776,0.70710679,0.70710678,-6.2243649,937.20484)"
       clip-path="url(#clipPath3249)" />
  </g>
</svg>
