<?xml version="1.0" encoding="UTF-8" standalone="no"?>
<!-- Created with Inkscape (http://www.inkscape.org/) -->

<svg
   xmlns:dc="http://purl.org/dc/elements/1.1/"
   xmlns:cc="http://creativecommons.org/ns#"
   xmlns:rdf="http://www.w3.org/1999/02/22-rdf-syntax-ns#"
   xmlns:svg="http://www.w3.org/2000/svg"
   xmlns="http://www.w3.org/2000/svg"
   xmlns:sodipodi="http://sodipodi.sourceforge.net/DTD/sodipodi-0.dtd"
   xmlns:inkscape="http://www.inkscape.org/namespaces/inkscape"
   width="120"
   height="120"
   id="svg2"
   version="1.1"
   inkscape:version="0.48.2 r9819"
   sodipodi:docname="goombaLevel4.svg"
   inkscape:export-filename="/home/marcin/programs/bomberman/images/goombaLevel4.png"
   inkscape:export-xdpi="90"
   inkscape:export-ydpi="90">
  <defs
     id="defs4">
    <clipPath
       clipPathUnits="userSpaceOnUse"
       id="clipPath4149">
      <path
         style="color:#000000;fill:#000000;fill-opacity:1;fill-rule:evenodd;stroke:none;stroke-width:2;marker:none;visibility:visible;display:inline;overflow:visible;enable-background:accumulate"
         d="m 439.22897,670.49748 c 0,25.13221 -49.64712,64.16887 -112.47767,64.16887 -62.83054,0 -115.05186,-39.03666 -115.05186,-64.16887 0,-25.13222 52.22132,-6.24931 115.05186,-6.24931 62.83055,0 112.47767,-18.88291 112.47767,6.24931 z"
         id="path4151"
         inkscape:connector-curvature="0"
         sodipodi:nodetypes="sssss" />
    </clipPath>
    <clipPath
       clipPathUnits="userSpaceOnUse"
       id="clipPath4153">
      <path
         style="color:#000000;fill:#000000;fill-opacity:1;fill-rule:evenodd;stroke:none;stroke-width:2;marker:none;visibility:visible;display:inline;overflow:visible;enable-background:accumulate"
         d="m 439.22897,670.49748 c 0,25.13221 -49.64712,64.16887 -112.47767,64.16887 -62.83054,0 -115.05186,-39.03666 -115.05186,-64.16887 0,-25.13222 52.22132,-6.24931 115.05186,-6.24931 62.83055,0 112.47767,-18.88291 112.47767,6.24931 z"
         id="path4155"
         inkscape:connector-curvature="0"
         sodipodi:nodetypes="sssss" />
    </clipPath>
    <clipPath
       clipPathUnits="userSpaceOnUse"
       id="clipPath4107">
      <path
         style="color:#000000;fill:#000000;fill-opacity:1;fill-rule:evenodd;stroke:none;stroke-width:2;marker:none;visibility:visible;display:inline;overflow:visible;enable-background:accumulate"
         d="m 419.89924,669.10344 c 0,5.40226 -39.44565,13.79331 -89.36581,13.79331 -49.92016,0 -91.41107,-8.39105 -91.41107,-13.79331 0,-5.40225 41.49091,-1.34331 91.41107,-1.34331 49.92016,0 89.36581,-4.05894 89.36581,1.34331 z"
         id="path4109"
         inkscape:connector-curvature="0"
         sodipodi:nodetypes="sssss" />
    </clipPath>
  </defs>
  <sodipodi:namedview
     id="base"
     pagecolor="#ffffff"
     bordercolor="#666666"
     borderopacity="1.0"
     inkscape:pageopacity="0.0"
     inkscape:pageshadow="2"
     inkscape:zoom="1.979899"
     inkscape:cx="-38.928369"
     inkscape:cy="54.681911"
     inkscape:document-units="px"
     inkscape:current-layer="layer1"
     showgrid="false"
     inkscape:window-width="1366"
     inkscape:window-height="688"
     inkscape:window-x="0"
     inkscape:window-y="25"
     inkscape:window-maximized="1" />
  <metadata
     id="metadata7">
    <rdf:RDF>
      <cc:Work
         rdf:about="">
        <dc:format>image/svg+xml</dc:format>
        <dc:type
           rdf:resource="http://purl.org/dc/dcmitype/StillImage" />
        <dc:title />
      </cc:Work>
    </rdf:RDF>
  </metadata>
  <g
     inkscape:label="Layer 1"
     inkscape:groupmode="layer"
     id="layer1"
     transform="translate(0,-932.36218)">
    <path
       sodipodi:type="arc"
       style="color:#000000;fill:#d4aa00;fill-opacity:1;fill-rule:evenodd;stroke:none;stroke-width:2;marker:none;visibility:visible;display:inline;overflow:visible;enable-background:accumulate"
       id="path3004-7"
       sodipodi:cx="-84.600273"
       sodipodi:cy="115.20177"
       sodipodi:rx="20.960665"
       sodipodi:ry="20.960665"
       d="m -63.639608,115.20177 a 20.960665,20.960665 0 1 1 -41.921332,0 20.960665,20.960665 0 1 1 41.921332,0 z"
       transform="translate(184.1003,915.94721)" />
    <path
       sodipodi:type="arc"
       style="color:#000000;fill:#d4aa00;fill-opacity:1;fill-rule:evenodd;stroke:none;stroke-width:2;marker:none;visibility:visible;display:inline;overflow:visible;enable-background:accumulate"
       id="path3004"
       sodipodi:cx="-84.600273"
       sodipodi:cy="115.20177"
       sodipodi:rx="20.960665"
       sodipodi:ry="20.960665"
       d="m -63.639608,115.20177 a 20.960665,20.960665 0 1 1 -41.921332,0 20.960665,20.960665 0 1 1 41.921332,0 z"
       transform="translate(105.05586,916.19974)" />
    <path
       sodipodi:type="arc"
       style="color:#000000;fill:#ffcc00;fill-opacity:1;fill-rule:evenodd;stroke:none;stroke-width:2;marker:none;visibility:visible;display:inline;overflow:visible;enable-background:accumulate"
       id="path3004-7-1"
       sodipodi:cx="-84.600273"
       sodipodi:cy="115.20177"
       sodipodi:rx="20.960665"
       sodipodi:ry="20.960665"
       d="m -63.639608,115.20177 a 20.960665,20.960665 0 1 1 -41.921332,0 20.960665,20.960665 0 1 1 41.921332,0 z"
       transform="matrix(0.80722891,0,0,0.98271346,168.29688,914.15058)" />
    <path
       sodipodi:type="arc"
       style="color:#000000;fill:#ffcc00;fill-opacity:1;fill-rule:evenodd;stroke:none;stroke-width:2;marker:none;visibility:visible;display:inline;overflow:visible;enable-background:accumulate"
       id="path3004-2"
       sodipodi:cx="-84.600273"
       sodipodi:cy="115.20177"
       sodipodi:rx="20.960665"
       sodipodi:ry="20.960665"
       d="m -63.639608,115.20177 a 20.960665,20.960665 0 1 1 -41.921332,0 20.960665,20.960665 0 1 1 41.921332,0 z"
       transform="matrix(0.8313253,0,0,1.0120482,91.038474,910.77116)" />
    <path
       sodipodi:type="arc"
       style="color:#000000;fill:#ffe680;fill-opacity:1;fill-rule:evenodd;stroke:none;stroke-width:2;marker:none;visibility:visible;display:inline;overflow:visible;enable-background:accumulate"
       id="path3004-7-1-6"
       sodipodi:cx="-84.600273"
       sodipodi:cy="115.20177"
       sodipodi:rx="20.960665"
       sodipodi:ry="20.960665"
       d="m -63.639608,115.20177 a 20.960665,20.960665 0 1 1 -41.921332,0 20.960665,20.960665 0 1 1 41.921332,0 z"
       transform="matrix(0.44949802,-0.54721498,0.37783891,0.45997781,94.215004,927.91338)" />
    <path
       sodipodi:type="arc"
       style="color:#000000;fill:#ffe680;fill-opacity:1;fill-rule:evenodd;stroke:none;stroke-width:2;marker:none;visibility:visible;display:inline;overflow:visible;enable-background:accumulate"
       id="path3004-7-1-6-5"
       sodipodi:cx="-84.600273"
       sodipodi:cy="115.20177"
       sodipodi:rx="20.960665"
       sodipodi:ry="20.960665"
       d="m -63.639608,115.20177 a 20.960665,20.960665 0 1 1 -41.921332,0 20.960665,20.960665 0 1 1 41.921332,0 z"
       transform="matrix(-0.44949802,-0.54721498,-0.37783891,0.45997781,25.703109,928.69098)" />
    <path
       style="color:#000000;fill:#d4aa00;fill-opacity:1;fill-rule:evenodd;stroke:none;stroke-width:2;marker:none;visibility:visible;display:inline;overflow:visible;enable-background:accumulate"
       d="m 120,980.46568 c 0,-39.7074 -27.481465,-48.1035 -60.618561,-48.1035 C 26.244355,932.36218 0,940.75828 0,980.46568 c 0,39.70732 26.862916,71.89652 60,71.89652 33.137096,0 60,-32.1892 60,-71.89652 z"
       id="path3001"
       inkscape:connector-curvature="0"
       sodipodi:nodetypes="sssss" />
    <path
       style="color:#000000;fill:#ffcc00;fill-opacity:1;fill-rule:evenodd;stroke:none;stroke-width:2;marker:none;visibility:visible;display:inline;overflow:visible;enable-background:accumulate"
       d="m 116.56855,980.75999 c 0,-37.53475 -25.977785,-45.47144 -57.301727,-45.47144 -31.323936,0 -56.1322889,7.93669 -56.1322889,45.47144 0,37.53471 25.3930689,67.96261 56.7170039,67.96261 31.323947,0 56.717012,-30.4279 56.717012,-67.96261 z"
       id="path3001-5"
       inkscape:connector-curvature="0"
       sodipodi:nodetypes="sssss" />
    <path
       sodipodi:type="arc"
       style="color:#000000;fill:#d4aa00;fill-opacity:1;fill-rule:evenodd;stroke:none;stroke-width:2;marker:none;visibility:visible;display:inline;overflow:visible;enable-background:accumulate"
       id="path3980"
       sodipodi:cx="-91.921921"
       sodipodi:cy="427.11111"
       sodipodi:rx="141.0683"
       sodipodi:ry="141.0683"
       d="m 49.146378,427.11111 a 141.0683,141.0683 0 1 1 -282.136598,0 141.0683,141.0683 0 1 1 282.136598,0 z"
       transform="matrix(-0.20226377,0,0,0.16888306,42.259688,912.22745)" />
    <path
       sodipodi:type="arc"
       style="color:#000000;fill:#aa8800;fill-opacity:1;fill-rule:evenodd;stroke:none;stroke-width:2;marker:none;visibility:visible;display:inline;overflow:visible;enable-background:accumulate"
       id="path3980-4"
       sodipodi:cx="-91.921921"
       sodipodi:cy="427.11111"
       sodipodi:rx="141.0683"
       sodipodi:ry="141.0683"
       d="m 49.146378,427.11111 a 141.0683,141.0683 0 1 1 -282.136598,0 141.0683,141.0683 0 1 1 282.136598,0 z"
       transform="matrix(-0.17390904,0,0,0.14520786,44.866108,920.33549)" />
    <path
       sodipodi:type="arc"
       style="color:#000000;fill:#ffffff;fill-opacity:1;fill-rule:evenodd;stroke:none;stroke-width:2;marker:none;visibility:visible;display:inline;overflow:visible;enable-background:accumulate"
       id="path4002"
       sodipodi:cx="-2.7303541"
       sodipodi:cy="641.89893"
       sodipodi:rx="86.461212"
       sodipodi:ry="86.461212"
       d="m 83.730858,641.89893 a 86.461212,86.461212 0 1 1 -172.922424,0 86.461212,86.461212 0 1 1 172.922424,0 z"
       transform="matrix(0.24056753,0,0,0.20086534,61.242328,851.63889)" />
    <path
       sodipodi:type="arc"
       style="color:#000000;fill:#0000d4;fill-opacity:1;fill-rule:evenodd;stroke:none;stroke-width:2;marker:none;visibility:visible;display:inline;overflow:visible;enable-background:accumulate"
       id="path4002-1"
       sodipodi:cx="-2.7303541"
       sodipodi:cy="641.89893"
       sodipodi:rx="86.461212"
       sodipodi:ry="86.461212"
       d="m 83.730858,641.89893 a 86.461212,86.461212 0 1 1 -172.922424,0 86.461212,86.461212 0 1 1 172.922424,0 z"
       transform="matrix(0.16963095,0,0,0.14163582,61.848638,889.43562)" />
    <path
       sodipodi:type="arc"
       style="color:#000000;fill:#000000;fill-opacity:1;fill-rule:evenodd;stroke:none;stroke-width:2;marker:none;visibility:visible;display:inline;overflow:visible;enable-background:accumulate"
       id="path4002-1-6"
       sodipodi:cx="-2.7303541"
       sodipodi:cy="641.89893"
       sodipodi:rx="86.461212"
       sodipodi:ry="86.461212"
       d="m 83.730858,641.89893 a 86.461212,86.461212 0 1 1 -172.922424,0 86.461212,86.461212 0 1 1 172.922424,0 z"
       transform="matrix(0.10486277,0,0,0.08755669,62.205128,924.59426)" />
    <path
       sodipodi:type="arc"
       style="color:#000000;fill:#ffffff;fill-opacity:1;fill-rule:evenodd;stroke:none;stroke-width:2;marker:none;visibility:visible;display:inline;overflow:visible;enable-background:accumulate"
       id="path4002-1-6-4"
       sodipodi:cx="-2.7303541"
       sodipodi:cy="641.89893"
       sodipodi:rx="86.461212"
       sodipodi:ry="86.461212"
       d="m 83.730858,641.89893 a 86.461212,86.461212 0 1 1 -172.922424,0 86.461212,86.461212 0 1 1 172.922424,0 z"
       transform="matrix(0.04317879,0,0,0.03605276,64.970008,955.65069)" />
    <path
       style="color:#000000;fill:#000000;fill-opacity:1;fill-rule:evenodd;stroke:none;stroke-width:2;marker:none;visibility:visible;display:inline;overflow:visible;enable-background:accumulate"
       d="m 93.689574,1017.9695 c 0,7.4851 -14.546562,19.1115 -32.95584,19.1115 -18.409279,0 -33.710076,-11.6264 -33.710076,-19.1115 0,-7.4849 15.300797,-1.8612 33.710076,-1.8612 18.409278,0 32.95584,-5.6237 32.95584,1.8612 z"
       id="path4076"
       inkscape:connector-curvature="0"
       sodipodi:nodetypes="sssss" />
    <path
       sodipodi:type="arc"
       style="color:#000000;fill:#ffffff;fill-opacity:1;fill-rule:evenodd;stroke:none;stroke-width:2;marker:none;visibility:visible;display:inline;overflow:visible;enable-background:accumulate"
       id="path4079"
       sodipodi:cx="332.71567"
       sodipodi:cy="667.8407"
       sodipodi:rx="37.325935"
       sodipodi:ry="7.4008322"
       d="m 370.0416,667.8407 a 37.325935,7.4008322 0 1 1 -74.65187,0 37.325935,7.4008322 0 1 1 74.65187,0 z"
       transform="matrix(0.36877452,0,0,1.3855434,-61.158568,90.897716)"
       clip-path="url(#clipPath4107)" />
    <path
       style="fill:#ffffff;stroke:none"
       d="m 371.97226,648.21239 43.76144,1.93367 c -3.75098,25.52453 -22.71427,66.58735 -27.19461,43.70108 -4.48034,-22.88626 0.20839,-18.04764 -16.56683,-45.63475 z"
       id="path4111"
       inkscape:connector-curvature="0"
       sodipodi:nodetypes="cczc"
       clip-path="url(#clipPath4153)"
       transform="matrix(0.29299892,0,0,0.29782709,-35.004047,818.27725)" />
    <path
       style="fill:#ffffff;stroke:none"
       d="m 287.02358,648.43186 -43.76144,1.93367 c 3.75098,25.52453 22.71427,66.58735 27.19461,43.70108 4.48034,-22.88626 -0.20839,-18.04764 16.56683,-45.63475 z"
       id="path4111-9"
       inkscape:connector-curvature="0"
       sodipodi:nodetypes="cczc"
       clip-path="url(#clipPath4149)"
       transform="matrix(0.29299892,0,0,0.29782709,-35.004047,818.27725)" />
    <path
       style="color:#000000;fill:#ffe680;fill-opacity:1;fill-rule:evenodd;stroke:none;stroke-width:2;marker:none;visibility:visible;display:inline;overflow:visible;enable-background:accumulate"
       d="m 107.58124,958.44658 c 0,9.01898 -14.291738,-6.29202 -46.376097,-6.29202 -32.084361,0 -49.083313,14.2181 -49.083313,5.19911 0,-9.01899 16.190829,-20.65395 48.27519,-20.65395 32.08436,0 47.18422,12.72787 47.18422,21.74686 z"
       id="path3078"
       inkscape:connector-curvature="0"
       sodipodi:nodetypes="sssss" />
  </g>
</svg>
