<?xml version="1.0" encoding="UTF-8" standalone="no"?>
<!-- Created with Inkscape (http://www.inkscape.org/) -->

<svg
   xmlns:dc="http://purl.org/dc/elements/1.1/"
   xmlns:cc="http://creativecommons.org/ns#"
   xmlns:rdf="http://www.w3.org/1999/02/22-rdf-syntax-ns#"
   xmlns:svg="http://www.w3.org/2000/svg"
   xmlns="http://www.w3.org/2000/svg"
   xmlns:sodipodi="http://sodipodi.sourceforge.net/DTD/sodipodi-0.dtd"
   xmlns:inkscape="http://www.inkscape.org/namespaces/inkscape"
   width="200"
   height="51"
   id="svg2"
   version="1.1"
   inkscape:version="0.48.3.1 r9886"
   sodipodi:docname="name.svg">
  <defs
     id="defs4">
    <linearGradient
       id="linearGradient4299">
      <stop
         style="stop-color:#ff5600;stop-opacity:0.70748299;"
         offset="0"
         id="stop4301" />
      <stop
         style="stop-color:#ff8200;stop-opacity:0;"
         offset="1"
         id="stop4303" />
    </linearGradient>
    <linearGradient
       id="linearGradient4347">
      <stop
         style="stop-color:#908a8a;stop-opacity:1;"
         offset="0"
         id="stop4349" />
      <stop
         style="stop-color:#000000;stop-opacity:0;"
         offset="1"
         id="stop4351" />
    </linearGradient>
    <linearGradient
       id="linearGradient4768">
      <stop
         style="stop-color:#ffffff;stop-opacity:1;"
         offset="0"
         id="stop4770" />
      <stop
         style="stop-color:#ffffff;stop-opacity:0;"
         offset="1"
         id="stop4772" />
    </linearGradient>
  </defs>
  <sodipodi:namedview
     id="base"
     pagecolor="#ffffff"
     bordercolor="#666666"
     borderopacity="1.0"
     inkscape:pageopacity="0.0"
     inkscape:pageshadow="2"
     inkscape:zoom="2.8"
     inkscape:cx="32.831425"
     inkscape:cy="46.052665"
     inkscape:document-units="px"
     inkscape:current-layer="text3014"
     showgrid="false"
     inkscape:window-width="1366"
     inkscape:window-height="744"
     inkscape:window-x="0"
     inkscape:window-y="24"
     inkscape:window-maximized="1"
     showguides="true"
     inkscape:guide-bbox="true" />
  <metadata
     id="metadata7">
    <rdf:RDF>
      <cc:Work
         rdf:about="">
        <dc:format>image/svg+xml</dc:format>
        <dc:type
           rdf:resource="http://purl.org/dc/dcmitype/StillImage" />
        <dc:title />
      </cc:Work>
    </rdf:RDF>
  </metadata>
  <g
     inkscape:label="Layer 1"
     inkscape:groupmode="layer"
     id="layer1"
     transform="translate(0,-1001.3622)">
    <g
       style="font-size:40px;font-style:normal;font-variant:normal;font-weight:bold;font-stretch:normal;line-height:125%;letter-spacing:0px;word-spacing:0px;fill:#000000;fill-opacity:1;stroke:none;font-family:Peralta;-inkscape-font-specification:Peralta Bold"
       id="flowRoot2985">
      <flowRoot
         xml:space="preserve"
         id="flowRoot3103"
         style="font-size:40px;font-style:normal;font-variant:normal;font-weight:900;font-stretch:normal;line-height:125%;letter-spacing:0px;word-spacing:0px;fill:#000000;fill-opacity:1;stroke:none;font-family:Neo Tech Pro;-inkscape-font-specification:Neo Tech Pro Heavy"><flowRegion
           id="flowRegion3105"><rect
             id="rect3107"
             width="272.5"
             height="81.785713"
             x="195.71428"
             y="169.14789"
             style="font-style:normal;font-variant:normal;font-weight:900;font-stretch:normal;font-family:Neo Tech Pro;-inkscape-font-specification:Neo Tech Pro Heavy" /></flowRegion><flowPara
           id="flowPara3109" /></flowRoot>      <g
         style="font-weight:900;line-height:125%;fill:#000000;font-family:Neo Tech Pro;-inkscape-font-specification:Neo Tech Pro Heavy"
         id="text3014">
        <g
           id="g3126">
          <g
             style="font-size:40px;font-style:normal;font-variant:normal;font-weight:bold;font-stretch:normal;line-height:125%;letter-spacing:0px;word-spacing:0px;fill:#000000;fill-opacity:1;stroke:none;font-family:Peralta;-inkscape-font-specification:Peralta Bold"
             transform="matrix(0.24066607,-0.41684584,0.41664202,0.24054837,-226.23916,68.973852)"
             id="g4833" />
        </g>
        <path
           transform="matrix(1.0187788,0,0,1.0187788,-176.12139,720.0118)"
           style="font-size:40px;font-style:normal;font-variant:normal;font-weight:900;font-stretch:normal;line-height:125%;letter-spacing:0px;word-spacing:0px;fill:#749a02;fill-opacity:1;stroke:none;font-family:Neo Tech Pro;-inkscape-font-specification:Neo Tech Pro Heavy"
           sodipodi:type="inkscape:offset"
           inkscape:radius="2.7893748"
           inkscape:original="M 200.75 281.53125 L 201.40625 284.5625 L 198.90625 283.625 C 199.50343 284.26539 199.5863 284.48771 199.8125 284.8125 C 200.22351 284.88599 200.40248 285.30538 200.34375 285.53125 C 200.36494 285.39593 199.94784 285.00682 199.8125 284.8125 C 198.53575 284.68085 197.23993 285.50547 196.625 286.875 C 196.01009 288.24453 196.06492 290.02716 197.4375 292.09375 C 197.63889 291.93126 197.74846 291.77294 197.96875 291.625 L 198.1875 291.4375 C 196.90498 289.50653 196.66636 288.28567 197.1875 287.125 C 197.70863 285.96431 198.78086 285.30632 199.75 285.40625 C 199.9176 285.56815 200.02642 285.60363 200.125 285.625 C 200.14056 285.59521 200.30628 285.56286 200.3125 285.53125 C 200.28358 285.61419 200.23444 285.64873 200.125 285.625 C 199.96629 285.9289 199.48452 286.17094 198.21875 286.59375 L 200.65625 286.75 L 199.28125 289.09375 L 201.46875 287.53125 L 200.78125 290.4375 L 202.96875 288.03125 L 203.71875 291.34375 L 203.9375 288.25 L 206.125 289.4375 L 204.78125 287.65625 L 207.375 287.34375 L 205.3125 286.0625 L 207.46875 284.9375 L 204.78125 284.9375 L 205.96875 282.75 L 203.375 284.4375 L 203.34375 281.875 L 202.53125 284.6875 L 200.75 281.53125 z M 197.96875 291.625 L 197.4375 292.09375 C 196.83863 292.57695 196.22373 293.07993 195.9375 293.5625 L 197.65625 296.09375 C 197.25643 296.51479 196.84753 296.9292 196.5 297.40625 C 197.99336 299.19455 198.84375 301.5879 198.84375 304.53125 L 198.84375 307.625 C 198.84375 310.25155 198.06622 312.27055 196.9375 313.9375 C 198.22261 315.53409 199.85196 316.87316 201.84375 317.78125 C 206.953 320.11063 212.75331 319.03036 216.65625 315.46875 L 216.65625 302.84375 C 216.65625 300.4034 217.33694 298.68672 218.34375 297.3125 C 217.02126 295.53751 215.28113 294.01426 213.125 293.03125 C 209.47056 291.36514 205.50772 291.51145 202.09375 293 L 200.4375 290.53125 C 199.64602 290.65578 198.76209 291.09222 197.96875 291.625 z M 218.34375 297.3125 C 221.21139 301.16132 222.00798 306.38519 219.875 311.0625 C 219.08932 312.7854 217.97179 314.26826 216.65625 315.46875 L 216.65625 316.84375 C 216.65625 317.28375 216.98875 317.71875 217.46875 317.71875 L 223.5 317.71875 C 223.98 317.71875 224.34375 317.28375 224.34375 316.84375 L 224.34375 302.84375 C 224.34375 301.04375 224.73875 300.3125 226.21875 300.3125 L 226.8125 300.3125 C 228.4925 300.3125 228.625 301.32375 228.625 302.84375 L 228.625 316.84375 C 228.625 317.28375 228.98875 317.71875 229.46875 317.71875 L 235.5 317.71875 C 235.98 317.71875 236.34375 317.28375 236.34375 316.84375 L 236.34375 302.84375 C 236.34375 301.32375 236.51625 300.3125 238.15625 300.3125 L 238.75 300.3125 C 240.23 300.3125 240.625 301.04375 240.625 302.84375 L 240.625 316.84375 C 240.625 317.28375 240.98875 317.71875 241.46875 317.71875 L 247.5 317.71875 C 247.98 317.71875 248.3125 317.28375 248.3125 316.84375 L 248.3125 312.0625 L 249.375 317.59375 C 249.50356 318.2615 249.79998 318.54566 251.03125 318.59375 C 253.15693 318.63265 256.49618 318.55554 260.03125 317.875 C 262.42864 317.41347 264.1915 316.38134 265.625 315.09375 C 267.01372 316.43485 268.69713 317.49793 270.6875 318.03125 C 273.93302 318.90088 276.71607 319.2113 279.40625 319.0625 C 280.0762 319.035 280.30311 318.80569 280.46875 318.1875 L 281.40625 314.71875 C 281.56154 314.1392 281.34727 313.97076 280.71875 313.84375 C 279.18085 313.55591 275.32901 312.70495 273.28125 312.15625 C 270.46074 311.4005 269.9513 309.92276 270.5 307.875 L 270.53125 307.78125 L 282.5625 311 C 282.6084 311.0123 282.64232 310.995 282.6875 311 L 282.6875 318.28125 C 282.6875 318.72125 283.15375 319.15625 283.59375 319.15625 L 289.59375 319.15625 C 290.03375 319.15625 290.375 318.72125 290.375 318.28125 L 290.375 302.03125 C 290.90416 301.94306 292.28489 301.9239 293.40625 301.90625 C 293.25743 302.67189 293.03125 303.35591 293.03125 304.28125 L 293.03125 318.28125 C 293.03125 318.72125 293.36375 319.15625 293.84375 319.15625 L 299.875 319.15625 C 300.355 319.15625 300.71875 318.72125 300.71875 318.28125 L 300.71875 304.28125 C 300.71875 302.48125 301.11375 301.75 302.59375 301.75 L 303.21875 301.75 C 304.89875 301.75 305 302.76125 305 304.28125 L 305 318.28125 C 305 318.72125 305.36375 319.15625 305.84375 319.15625 L 311.875 319.15625 C 312.355 319.15625 312.71875 318.72125 312.71875 318.28125 L 312.71875 304.28125 C 312.71875 302.76125 312.89125 301.75 314.53125 301.75 L 315.125 301.75 C 316.605 301.75 317 302.48125 317 304.28125 L 317 318.28125 C 317 318.72125 317.36375 319.15625 317.84375 319.15625 L 323.875 319.15625 C 324.355 319.15625 324.6875 318.72125 324.6875 318.28125 L 324.6875 315.96875 C 326.03737 317.7256 327.98914 319.10398 330.75 319.84375 C 334.22733 320.77549 337.53325 321.07416 339.65625 321.1875 C 340.88783 321.2276 341.16776 320.96933 341.34375 320.3125 L 342.625 315.5 L 343.90625 320.25 C 344.02013 320.675 344.50511 320.99924 344.96875 320.875 L 350.75 319.3125 C 351.21364 319.18826 351.45763 318.67501 351.34375 318.25 L 347.71875 304.8125 C 347.32535 303.34429 347.18406 302.26783 349 301.78125 L 350.46875 301.375 C 352.28469 300.88842 352.6691 301.90679 353.0625 303.375 L 356.65625 316.8125 C 356.77014 317.23751 357.25511 317.59298 357.71875 317.46875 L 363.5 315.90625 C 363.96364 315.78201 364.20763 315.26876 364.09375 314.84375 L 360.46875 301.40625 C 358.87443 295.45615 354.94841 293.77051 348.84375 295.40625 L 347.375 295.78125 C 345.10555 296.38935 343.50875 297.36045 342.25 298.5 C 340.69053 297.83677 338.94548 297.18591 336.96875 296.65625 C 330.97949 295.05143 326.45549 297.36572 324.5 303.09375 C 324.03104 297.8222 320.79066 295.5 315.125 295.5 L 314.53125 295.5 C 312.17125 295.5 310.315 296.1825 308.875 297.0625 C 307.435 296.1825 305.57875 295.5 303.21875 295.5 L 302.59375 295.5 C 299.48128 295.5 297.0949 296.19481 295.46875 297.65625 L 295.46875 296.3125 C 295.46875 295.7925 294.98 295.5 294.5 295.5 C 290.34 295.5 286.71625 295.81625 284.15625 296.65625 C 283.03625 297.01625 282.6875 297.36 282.6875 298 L 282.6875 298.4375 C 281.4369 296.88818 279.72329 295.60246 277.125 294.90625 C 272.45119 293.65391 268.58699 294.81854 266.125 298.21875 C 264.09084 294.91059 260.56352 293.3377 255.5 294.3125 C 254.87154 294.43348 253.67717 294.81713 252.875 295.09375 L 251.59375 288.46875 C 251.51055 288.03667 251.08832 287.72932 250.65625 287.8125 L 244.78125 288.96875 C 244.34916 289.05195 243.97933 289.47418 244.0625 289.90625 L 245.1875 295.8125 C 243.58954 294.69116 241.49397 294.09375 238.75 294.09375 L 238.15625 294.09375 C 235.79625 294.09375 233.94 294.745 232.5 295.625 C 231.06 294.745 229.1725 294.09375 226.8125 294.09375 L 226.21875 294.09375 C 222.49218 294.09375 219.91135 295.17284 218.34375 297.3125 z M 196.9375 313.9375 C 193.81499 310.05817 192.91706 304.62296 195.125 299.78125 C 195.51458 298.92695 195.96787 298.13669 196.5 297.40625 C 194.76651 295.33039 192.11593 294.09375 188.3125 294.09375 C 187.67251 294.09375 186.43375 294.22375 185.59375 294.34375 L 185.59375 287.59375 C 185.59375 287.15375 185.22125 286.8125 184.78125 286.8125 L 178.78125 286.8125 C 178.34125 286.8125 177.90625 287.15375 177.90625 287.59375 L 177.90625 315.8125 C 177.90625 316.4925 178.14376 316.81375 179.34375 317.09375 C 181.42375 317.53375 184.71251 318.09375 188.3125 318.09375 C 192.30848 318.09375 195.1784 316.53542 196.9375 313.9375 z M 188.3125 300.4375 C 190.5525 300.4375 191.15625 302.21125 191.15625 304.53125 L 191.15625 307.625 C 191.15625 310.025 190.5525 311.75 188.3125 311.75 C 187.11251 311.75 186.35375 311.6425 185.59375 311.5625 L 185.59375 300.59375 C 186.39375 300.51375 187.35251 300.4375 188.3125 300.4375 z M 256.6875 300.5625 C 258.88712 300.13903 259.81143 301.75308 260.25 304.03125 L 260.84375 307.09375 C 261.29746 309.45047 261.04337 311.23279 258.84375 311.65625 C 257.6654 311.8831 256.88643 311.93488 256.125 312 L 254.0625 301.21875 C 254.83292 300.98897 255.74482 300.74398 256.6875 300.5625 z M 274.21875 300.5625 C 274.61837 300.49099 275.06761 300.50077 275.53125 300.625 C 277.4631 301.14263 277.99617 302.77552 277.375 305.09375 L 277.34375 305.21875 L 271.625 303.6875 L 271.65625 303.5625 C 272.12213 301.82384 273.01988 300.77702 274.21875 300.5625 z M 333.90625 302.71875 C 334.31894 302.62745 334.77158 302.63631 335.3125 302.78125 C 336.47161 303.09184 337.19286 303.38228 337.90625 303.65625 L 335.0625 314.25 C 334.29735 314.1692 333.52673 314.01898 332.40625 313.71875 C 330.24259 313.139 330.06633 311.31822 330.6875 309 L 331.5 306 C 331.96587 304.26134 332.66818 302.99265 333.90625 302.71875 z "
           id="path3135-7-6"
           d="M 200.625,278.75 A 2.7896538,2.7896538 0 0 0 198,281 a 2.7896538,2.7896538 0 0 0 -1.84375,2.1875 c -0.87473,0.65402 -1.60306,1.50802 -2.0625,2.53125 -0.74634,1.66225 -0.80142,3.74338 -0.0625,5.78125 -0.17017,0.21248 -0.33183,0.34148 -0.5,0.625 a 2.7896538,2.7896538 0 0 0 -0.0313,0.0625 c -1.54698,-0.5449 -3.25364,-0.86839 -5.125,-0.875 l 0,-3.71875 c 0,-2.01431 -1.71152,-3.5625 -3.59375,-3.5625 l -6,0 c -1.88223,0 -3.65625,1.28405 -3.65625,3.5625 l 0,28.21875 c 0,0.66476 0.26725,1.99188 1.125,2.8125 0.85775,0.82062 1.67853,1.00311 2.46875,1.1875 a 2.7896538,2.7896538 0 0 0 0.0625,0 c 2.19361,0.46403 5.64199,1.0625 9.53125,1.0625 3.42655,0 6.42381,-1.10242 8.6875,-2.96875 1.10071,0.93839 2.29648,1.77206 3.6875,2.40625 4.86784,2.21932 10.23959,1.79857 14.625,-0.59375 0.58576,0.46162 1.29624,0.78125 2.15625,0.78125 l 6.03125,0 c 1.34813,0 2.37852,-0.68538 3,-1.65625 0.62289,0.96292 1.6273,1.65625 2.96875,1.65625 l 6.03125,0 c 1.34813,0 2.37852,-0.68538 3,-1.65625 0.62289,0.96292 1.6273,1.65625 2.96875,1.65625 l 6.03125,0 c 0.19669,0 0.34711,-0.0963 0.53125,-0.125 0.0929,0.0793 0.11538,0.21327 0.21875,0.28125 0.99108,0.65178 1.86649,0.68668 2.6875,0.71875 a 2.7896538,2.7896538 0 0 0 0.0313,0 c 2.24654,0.0411 5.77689,-0.0152 9.59375,-0.75 1.96604,-0.37849 3.5481,-1.20998 4.96875,-2.125 1.31196,0.9369 2.75156,1.767 4.4375,2.21875 3.45858,0.92672 6.56225,1.28738 9.5625,1.125 0.009,-3.5e-4 0.0225,4.1e-4 0.0313,0 0.52738,-0.0245 1.24629,-0.20112 1.9375,-0.625 0.55056,0.41143 1.19,0.71875 2.09375,0.71875 l 6,0 c 0.87794,0 1.55743,-0.31703 2.125,-0.75 0.58044,0.44598 1.28167,0.75 2.125,0.75 l 6.03125,0 c 1.34813,0 2.37852,-0.68538 3,-1.65625 0.62289,0.96292 1.6273,1.65625 2.96875,1.65625 l 6.03125,0 c 1.34813,0 2.37852,-0.68538 3,-1.65625 0.62289,0.96292 1.6273,1.65625 2.96875,1.65625 l 6.03125,0 c 1.0228,0 1.87699,-0.40842 2.5,-1.03125 1.11039,0.64593 2.28483,1.25753 3.65625,1.625 3.7603,1.00756 7.23919,1.31847 9.46875,1.4375 a 2.7896538,2.7896538 0 0 0 0.0625,0 c 0.81733,0.0266 1.67029,0.0727 2.71875,-0.53125 0.17474,-0.10065 0.25909,-0.27836 0.40625,-0.40625 0.82301,0.5823 1.84586,0.84052 3,0.53125 L 351.46875,322 c 2.02634,-0.54299 2.98619,-2.43295 2.5625,-4.3125 0.57824,1.86383 2.25272,3.04578 4.40625,2.46875 l 5.78125,-1.5625 c 2.08251,-0.55804 3.07947,-2.53936 2.5625,-4.46875 l -3.625,-13.4375 c -0.92826,-3.46434 -2.77299,-6.24637 -5.5625,-7.625 -2.7809,-1.37438 -6.02111,-1.2545 -9.4375,-0.34375 -0.0106,0.003 -0.0207,-0.003 -0.0313,0 l -1.4375,0.375 a 2.7896538,2.7896538 0 0 0 -0.0313,0 c -1.963,0.52599 -3.5028,1.36775 -4.84375,2.3125 -1.29168,-0.50359 -2.56988,-1.02081 -4.125,-1.4375 -3.48802,-0.93461 -6.90232,-0.77914 -9.75,0.6875 -1.07118,0.55169 -1.96642,1.31586 -2.8125,2.1875 -0.47416,-0.63834 -0.99771,-1.22569 -1.625,-1.71875 -2.24714,-1.7663 -5.16107,-2.40625 -8.375,-2.40625 l -0.59375,0 c -2.22323,0 -4.06119,0.57657 -5.65625,1.3125 -1.59506,-0.73593 -3.43302,-1.3125 -5.65625,-1.3125 l -0.625,0 c -2.0453,0 -3.92301,0.30814 -5.625,0.9375 -0.0476,-0.0412 -0.0765,-0.11948 -0.125,-0.15625 -0.75285,-0.57077 -1.53716,-0.78125 -2.34375,-0.78125 -4.28884,0 -8.08861,0.27007 -11.1875,1.28125 -0.009,0.003 -0.0222,-0.003 -0.0313,0 -0.2783,0.0896 -0.56556,0.34983 -0.84375,0.46875 -1.28594,-0.95353 -2.7639,-1.75969 -4.59375,-2.25 -4.25398,-1.13985 -8.4366,-0.4135 -11.5625,1.96875 -2.79213,-2.40287 -6.80156,-3.46401 -11.25,-2.625 l -0.6875,-3.625 c -0.36808,-1.91152 -2.20289,-3.26308 -4.21875,-2.875 l -5.875,1.15625 c -1.86248,0.35863 -3.37455,1.94829 -2.9375,4.21875 l 0.21875,1.21875 c -0.90651,-0.14478 -1.78711,-0.34375 -2.78125,-0.34375 l -0.59375,0 c -2.20983,0 -4.04864,0.54812 -5.65625,1.28125 -1.61893,-0.73483 -3.47767,-1.28125 -5.6875,-1.28125 l -0.59375,0 c -2.95932,0 -5.59767,0.7238 -7.6875,2.125 -1.22749,-1.15768 -2.60976,-2.18969 -4.25,-2.9375 -1.58515,-0.72269 -3.23545,-1.06672 -4.875,-1.25 a 2.7896538,2.7896538 0 0 0 0.53125,-3 2.7896538,2.7896538 0 0 0 -1.1875,-3.78125 2.7896538,2.7896538 0 0 0 -3.3125,-2.4375 2.7896538,2.7896538 0 0 0 -3.0625,-0.78125 2.7896538,2.7896538 0 0 0 -1.75,-0.5 z m 133.5625,27.96875 -0.84375,3.15625 c 0.0195,-0.0877 0.006,-0.0616 0.0313,-0.15625 l 0.8125,-3 z" />
        <path
           sodipodi:type="inkscape:offset"
           inkscape:radius="0"
           inkscape:original="M 200.75 281.53125 L 201.40625 284.5625 L 198.90625 283.625 C 199.50343 284.26539 199.5863 284.48771 199.8125 284.8125 C 200.22351 284.88599 200.40248 285.30538 200.34375 285.53125 C 200.36494 285.39593 199.94784 285.00682 199.8125 284.8125 C 198.53575 284.68085 197.23993 285.50547 196.625 286.875 C 196.01009 288.24453 196.06492 290.02716 197.4375 292.09375 C 197.63889 291.93126 197.74846 291.77294 197.96875 291.625 L 198.1875 291.4375 C 196.90498 289.50653 196.66636 288.28567 197.1875 287.125 C 197.70863 285.96431 198.78086 285.30632 199.75 285.40625 C 199.9176 285.56815 200.02642 285.60363 200.125 285.625 C 200.14056 285.59521 200.30628 285.56286 200.3125 285.53125 C 200.28358 285.61419 200.23444 285.64873 200.125 285.625 C 199.96629 285.9289 199.48452 286.17094 198.21875 286.59375 L 200.65625 286.75 L 199.28125 289.09375 L 201.46875 287.53125 L 200.78125 290.4375 L 202.96875 288.03125 L 203.71875 291.34375 L 203.9375 288.25 L 206.125 289.4375 L 204.78125 287.65625 L 207.375 287.34375 L 205.3125 286.0625 L 207.46875 284.9375 L 204.78125 284.9375 L 205.96875 282.75 L 203.375 284.4375 L 203.34375 281.875 L 202.53125 284.6875 L 200.75 281.53125 z M 197.96875 291.625 L 197.4375 292.09375 C 196.83863 292.57695 196.22373 293.07993 195.9375 293.5625 L 197.65625 296.09375 C 197.25643 296.51479 196.84753 296.9292 196.5 297.40625 C 197.99336 299.19455 198.84375 301.5879 198.84375 304.53125 L 198.84375 307.625 C 198.84375 310.25155 198.06622 312.27055 196.9375 313.9375 C 198.22261 315.53409 199.85196 316.87316 201.84375 317.78125 C 206.953 320.11063 212.75331 319.03036 216.65625 315.46875 L 216.65625 302.84375 C 216.65625 300.4034 217.33694 298.68672 218.34375 297.3125 C 217.02126 295.53751 215.28113 294.01426 213.125 293.03125 C 209.47056 291.36514 205.50772 291.51145 202.09375 293 L 200.4375 290.53125 C 199.64602 290.65578 198.76209 291.09222 197.96875 291.625 z M 218.34375 297.3125 C 221.21139 301.16132 222.00798 306.38519 219.875 311.0625 C 219.08932 312.7854 217.97179 314.26826 216.65625 315.46875 L 216.65625 316.84375 C 216.65625 317.28375 216.98875 317.71875 217.46875 317.71875 L 223.5 317.71875 C 223.98 317.71875 224.34375 317.28375 224.34375 316.84375 L 224.34375 302.84375 C 224.34375 301.04375 224.73875 300.3125 226.21875 300.3125 L 226.8125 300.3125 C 228.4925 300.3125 228.625 301.32375 228.625 302.84375 L 228.625 316.84375 C 228.625 317.28375 228.98875 317.71875 229.46875 317.71875 L 235.5 317.71875 C 235.98 317.71875 236.34375 317.28375 236.34375 316.84375 L 236.34375 302.84375 C 236.34375 301.32375 236.51625 300.3125 238.15625 300.3125 L 238.75 300.3125 C 240.23 300.3125 240.625 301.04375 240.625 302.84375 L 240.625 316.84375 C 240.625 317.28375 240.98875 317.71875 241.46875 317.71875 L 247.5 317.71875 C 247.98 317.71875 248.3125 317.28375 248.3125 316.84375 L 248.3125 312.0625 L 249.375 317.59375 C 249.50356 318.2615 249.79998 318.54566 251.03125 318.59375 C 253.15693 318.63265 256.49618 318.55554 260.03125 317.875 C 262.42864 317.41347 264.1915 316.38134 265.625 315.09375 C 267.01372 316.43485 268.69713 317.49793 270.6875 318.03125 C 273.93302 318.90088 276.71607 319.2113 279.40625 319.0625 C 280.0762 319.035 280.30311 318.80569 280.46875 318.1875 L 281.40625 314.71875 C 281.56154 314.1392 281.34727 313.97076 280.71875 313.84375 C 279.18085 313.55591 275.32901 312.70495 273.28125 312.15625 C 270.46074 311.4005 269.9513 309.92276 270.5 307.875 L 270.53125 307.78125 L 282.5625 311 C 282.6084 311.0123 282.64232 310.995 282.6875 311 L 282.6875 318.28125 C 282.6875 318.72125 283.15375 319.15625 283.59375 319.15625 L 289.59375 319.15625 C 290.03375 319.15625 290.375 318.72125 290.375 318.28125 L 290.375 302.03125 C 290.90416 301.94306 292.28489 301.9239 293.40625 301.90625 C 293.25743 302.67189 293.03125 303.35591 293.03125 304.28125 L 293.03125 318.28125 C 293.03125 318.72125 293.36375 319.15625 293.84375 319.15625 L 299.875 319.15625 C 300.355 319.15625 300.71875 318.72125 300.71875 318.28125 L 300.71875 304.28125 C 300.71875 302.48125 301.11375 301.75 302.59375 301.75 L 303.21875 301.75 C 304.89875 301.75 305 302.76125 305 304.28125 L 305 318.28125 C 305 318.72125 305.36375 319.15625 305.84375 319.15625 L 311.875 319.15625 C 312.355 319.15625 312.71875 318.72125 312.71875 318.28125 L 312.71875 304.28125 C 312.71875 302.76125 312.89125 301.75 314.53125 301.75 L 315.125 301.75 C 316.605 301.75 317 302.48125 317 304.28125 L 317 318.28125 C 317 318.72125 317.36375 319.15625 317.84375 319.15625 L 323.875 319.15625 C 324.355 319.15625 324.6875 318.72125 324.6875 318.28125 L 324.6875 315.96875 C 326.03737 317.7256 327.98914 319.10398 330.75 319.84375 C 334.22733 320.77549 337.53325 321.07416 339.65625 321.1875 C 340.88783 321.2276 341.16776 320.96933 341.34375 320.3125 L 342.625 315.5 L 343.90625 320.25 C 344.02013 320.675 344.50511 320.99924 344.96875 320.875 L 350.75 319.3125 C 351.21364 319.18826 351.45763 318.67501 351.34375 318.25 L 347.71875 304.8125 C 347.32535 303.34429 347.18406 302.26783 349 301.78125 L 350.46875 301.375 C 352.28469 300.88842 352.6691 301.90679 353.0625 303.375 L 356.65625 316.8125 C 356.77014 317.23751 357.25511 317.59298 357.71875 317.46875 L 363.5 315.90625 C 363.96364 315.78201 364.20763 315.26876 364.09375 314.84375 L 360.46875 301.40625 C 358.87443 295.45615 354.94841 293.77051 348.84375 295.40625 L 347.375 295.78125 C 345.10555 296.38935 343.50875 297.36045 342.25 298.5 C 340.69053 297.83677 338.94548 297.18591 336.96875 296.65625 C 330.97949 295.05143 326.45549 297.36572 324.5 303.09375 C 324.03104 297.8222 320.79066 295.5 315.125 295.5 L 314.53125 295.5 C 312.17125 295.5 310.315 296.1825 308.875 297.0625 C 307.435 296.1825 305.57875 295.5 303.21875 295.5 L 302.59375 295.5 C 299.48128 295.5 297.0949 296.19481 295.46875 297.65625 L 295.46875 296.3125 C 295.46875 295.7925 294.98 295.5 294.5 295.5 C 290.34 295.5 286.71625 295.81625 284.15625 296.65625 C 283.03625 297.01625 282.6875 297.36 282.6875 298 L 282.6875 298.4375 C 281.4369 296.88818 279.72329 295.60246 277.125 294.90625 C 272.45119 293.65391 268.58699 294.81854 266.125 298.21875 C 264.09084 294.91059 260.56352 293.3377 255.5 294.3125 C 254.87154 294.43348 253.67717 294.81713 252.875 295.09375 L 251.59375 288.46875 C 251.51055 288.03667 251.08832 287.72932 250.65625 287.8125 L 244.78125 288.96875 C 244.34916 289.05195 243.97933 289.47418 244.0625 289.90625 L 245.1875 295.8125 C 243.58954 294.69116 241.49397 294.09375 238.75 294.09375 L 238.15625 294.09375 C 235.79625 294.09375 233.94 294.745 232.5 295.625 C 231.06 294.745 229.1725 294.09375 226.8125 294.09375 L 226.21875 294.09375 C 222.49218 294.09375 219.91135 295.17284 218.34375 297.3125 z M 196.9375 313.9375 C 193.81499 310.05817 192.91706 304.62296 195.125 299.78125 C 195.51458 298.92695 195.96787 298.13669 196.5 297.40625 C 194.76651 295.33039 192.11593 294.09375 188.3125 294.09375 C 187.67251 294.09375 186.43375 294.22375 185.59375 294.34375 L 185.59375 287.59375 C 185.59375 287.15375 185.22125 286.8125 184.78125 286.8125 L 178.78125 286.8125 C 178.34125 286.8125 177.90625 287.15375 177.90625 287.59375 L 177.90625 315.8125 C 177.90625 316.4925 178.14376 316.81375 179.34375 317.09375 C 181.42375 317.53375 184.71251 318.09375 188.3125 318.09375 C 192.30848 318.09375 195.1784 316.53542 196.9375 313.9375 z M 188.3125 300.4375 C 190.5525 300.4375 191.15625 302.21125 191.15625 304.53125 L 191.15625 307.625 C 191.15625 310.025 190.5525 311.75 188.3125 311.75 C 187.11251 311.75 186.35375 311.6425 185.59375 311.5625 L 185.59375 300.59375 C 186.39375 300.51375 187.35251 300.4375 188.3125 300.4375 z M 256.6875 300.5625 C 258.88712 300.13903 259.81143 301.75308 260.25 304.03125 L 260.84375 307.09375 C 261.29746 309.45047 261.04337 311.23279 258.84375 311.65625 C 257.6654 311.8831 256.88643 311.93488 256.125 312 L 254.0625 301.21875 C 254.83292 300.98897 255.74482 300.74398 256.6875 300.5625 z M 274.21875 300.5625 C 274.61837 300.49099 275.06761 300.50077 275.53125 300.625 C 277.4631 301.14263 277.99617 302.77552 277.375 305.09375 L 277.34375 305.21875 L 271.625 303.6875 L 271.65625 303.5625 C 272.12213 301.82384 273.01988 300.77702 274.21875 300.5625 z M 333.90625 302.71875 C 334.31894 302.62745 334.77158 302.63631 335.3125 302.78125 C 336.47161 303.09184 337.19286 303.38228 337.90625 303.65625 L 335.0625 314.25 C 334.29735 314.1692 333.52673 314.01898 332.40625 313.71875 C 330.24259 313.139 330.06633 311.31822 330.6875 309 L 331.5 306 C 331.96587 304.26134 332.66818 302.99265 333.90625 302.71875 z "
           id="path3135"
           d="m 200.75,281.53125 0.65625,3.03125 -2.5,-0.9375 c 0.59718,0.64039 0.68005,0.86271 0.90625,1.1875 0.41101,0.0735 0.58998,0.49288 0.53125,0.71875 0.0212,-0.13532 -0.39591,-0.52443 -0.53125,-0.71875 -1.27675,-0.13165 -2.57257,0.69297 -3.1875,2.0625 -0.61491,1.36953 -0.56008,3.15216 0.8125,5.21875 0.20139,-0.16249 0.31096,-0.32081 0.53125,-0.46875 l 0.21875,-0.1875 c -1.28252,-1.93097 -1.52114,-3.15183 -1,-4.3125 0.52113,-1.16069 1.59336,-1.81868 2.5625,-1.71875 0.1676,0.1619 0.27642,0.19738 0.375,0.21875 0.0156,-0.0298 0.18128,-0.0621 0.1875,-0.0937 -0.0289,0.0829 -0.0781,0.11748 -0.1875,0.0937 -0.15871,0.3039 -0.64048,0.54594 -1.90625,0.96875 l 2.4375,0.15625 -1.375,2.34375 2.1875,-1.5625 -0.6875,2.90625 2.1875,-2.40625 0.75,3.3125 0.21875,-3.09375 2.1875,1.1875 -1.34375,-1.78125 2.59375,-0.3125 -2.0625,-1.28125 2.15625,-1.125 -2.6875,0 1.1875,-2.1875 -2.59375,1.6875 -0.0313,-2.5625 -0.8125,2.8125 -1.78125,-3.15625 z m -2.78125,10.09375 -0.53125,0.46875 c -0.59887,0.4832 -1.21377,0.98618 -1.5,1.46875 l 1.71875,2.53125 c -0.39982,0.42104 -0.80872,0.83545 -1.15625,1.3125 1.49336,1.7883 2.34375,4.18165 2.34375,7.125 l 0,3.09375 c 0,2.62655 -0.77753,4.64555 -1.90625,6.3125 1.28511,1.59659 2.91446,2.93566 4.90625,3.84375 5.10925,2.32938 10.90956,1.24911 14.8125,-2.3125 l 0,-12.625 c 0,-2.44035 0.68069,-4.15703 1.6875,-5.53125 -1.32249,-1.77499 -3.06262,-3.29824 -5.21875,-4.28125 -3.65444,-1.66611 -7.61728,-1.5198 -11.03125,-0.0313 l -1.65625,-2.46875 c -0.79148,0.12453 -1.67541,0.56097 -2.46875,1.09375 z m 20.375,5.6875 c 2.86764,3.84882 3.66423,9.07269 1.53125,13.75 -0.78568,1.7229 -1.90321,3.20576 -3.21875,4.40625 l 0,1.375 c 0,0.44 0.3325,0.875 0.8125,0.875 l 6.03125,0 c 0.48,0 0.84375,-0.435 0.84375,-0.875 l 0,-14 c 0,-1.8 0.395,-2.53125 1.875,-2.53125 l 0.59375,0 c 1.68,0 1.8125,1.01125 1.8125,2.53125 l 0,14 c 0,0.44 0.36375,0.875 0.84375,0.875 l 6.03125,0 c 0.48,0 0.84375,-0.435 0.84375,-0.875 l 0,-14 c 0,-1.52 0.1725,-2.53125 1.8125,-2.53125 l 0.59375,0 c 1.48,0 1.875,0.73125 1.875,2.53125 l 0,14 c 0,0.44 0.36375,0.875 0.84375,0.875 l 6.03125,0 c 0.48,0 0.8125,-0.435 0.8125,-0.875 l 0,-4.78125 1.0625,5.53125 c 0.12856,0.66775 0.42498,0.95191 1.65625,1 2.12568,0.0389 5.46493,-0.0382 9,-0.71875 2.39739,-0.46153 4.16025,-1.49366 5.59375,-2.78125 1.38872,1.3411 3.07213,2.40418 5.0625,2.9375 3.24552,0.86963 6.02857,1.18005 8.71875,1.03125 0.66995,-0.0275 0.89686,-0.25681 1.0625,-0.875 l 0.9375,-3.46875 c 0.15529,-0.57955 -0.059,-0.74799 -0.6875,-0.875 -1.5379,-0.28784 -5.38974,-1.1388 -7.4375,-1.6875 -2.82051,-0.75575 -3.32995,-2.23349 -2.78125,-4.28125 l 0.0313,-0.0937 L 282.5625,311 c 0.0459,0.0123 0.0798,-0.005 0.125,0 l 0,7.28125 c 0,0.44 0.46625,0.875 0.90625,0.875 l 6,0 c 0.44,0 0.78125,-0.435 0.78125,-0.875 l 0,-16.25 c 0.52916,-0.0882 1.90989,-0.10735 3.03125,-0.125 -0.14882,0.76564 -0.375,1.44966 -0.375,2.375 l 0,14 c 0,0.44 0.3325,0.875 0.8125,0.875 l 6.03125,0 c 0.48,0 0.84375,-0.435 0.84375,-0.875 l 0,-14 c 0,-1.8 0.395,-2.53125 1.875,-2.53125 l 0.625,0 c 1.68,0 1.78125,1.01125 1.78125,2.53125 l 0,14 c 0,0.44 0.36375,0.875 0.84375,0.875 l 6.03125,0 c 0.48,0 0.84375,-0.435 0.84375,-0.875 l 0,-14 c 0,-1.52 0.1725,-2.53125 1.8125,-2.53125 l 0.59375,0 c 1.48,0 1.875,0.73125 1.875,2.53125 l 0,14 c 0,0.44 0.36375,0.875 0.84375,0.875 l 6.03125,0 c 0.48,0 0.8125,-0.435 0.8125,-0.875 l 0,-2.3125 c 1.34987,1.75685 3.30164,3.13523 6.0625,3.875 3.47733,0.93174 6.78325,1.23041 8.90625,1.34375 1.23158,0.0401 1.51151,-0.21817 1.6875,-0.875 l 1.28125,-4.8125 1.28125,4.75 c 0.11388,0.425 0.59886,0.74924 1.0625,0.625 l 5.78125,-1.5625 c 0.46364,-0.12424 0.70763,-0.63749 0.59375,-1.0625 l -3.625,-13.4375 c -0.3934,-1.46821 -0.53469,-2.54467 1.28125,-3.03125 l 1.46875,-0.40625 c 1.81594,-0.48658 2.20035,0.53179 2.59375,2 l 3.59375,13.4375 c 0.11389,0.42501 0.59886,0.78048 1.0625,0.65625 l 5.78125,-1.5625 c 0.46364,-0.12424 0.70763,-0.63749 0.59375,-1.0625 l -3.625,-13.4375 c -1.59432,-5.9501 -5.52034,-7.63574 -11.625,-6 l -1.46875,0.375 c -2.26945,0.6081 -3.86625,1.5792 -5.125,2.71875 -1.55947,-0.66323 -3.30452,-1.31409 -5.28125,-1.84375 -5.98926,-1.60482 -10.51326,0.70947 -12.46875,6.4375 C 324.03104,297.8222 320.79066,295.5 315.125,295.5 l -0.59375,0 c -2.36,0 -4.21625,0.6825 -5.65625,1.5625 -1.44,-0.88 -3.29625,-1.5625 -5.65625,-1.5625 l -0.625,0 c -3.11247,0 -5.49885,0.69481 -7.125,2.15625 l 0,-1.34375 c 0,-0.52 -0.48875,-0.8125 -0.96875,-0.8125 -4.16,0 -7.78375,0.31625 -10.34375,1.15625 -1.12,0.36 -1.46875,0.70375 -1.46875,1.34375 l 0,0.4375 c -1.2506,-1.54932 -2.96421,-2.83504 -5.5625,-3.53125 -4.67381,-1.25234 -8.53801,-0.0877 -11,3.3125 -2.03416,-3.30816 -5.56148,-4.88105 -10.625,-3.90625 -0.62846,0.12098 -1.82283,0.50463 -2.625,0.78125 l -1.28125,-6.625 c -0.0832,-0.43208 -0.50543,-0.73943 -0.9375,-0.65625 l -5.875,1.15625 c -0.43209,0.0832 -0.80192,0.50543 -0.71875,0.9375 l 1.125,5.90625 c -1.59796,-1.12134 -3.69353,-1.71875 -6.4375,-1.71875 l -0.59375,0 c -2.36,0 -4.21625,0.65125 -5.65625,1.53125 -1.44,-0.88 -3.3275,-1.53125 -5.6875,-1.53125 l -0.59375,0 c -3.72657,0 -6.3074,1.07909 -7.875,3.21875 z m -21.40625,16.625 c -3.12251,-3.87933 -4.02044,-9.31454 -1.8125,-14.15625 0.38958,-0.8543 0.84287,-1.64456 1.375,-2.375 -1.73349,-2.07586 -4.38407,-3.3125 -8.1875,-3.3125 -0.63999,0 -1.87875,0.13 -2.71875,0.25 l 0,-6.75 c 0,-0.44 -0.3725,-0.78125 -0.8125,-0.78125 l -6,0 c -0.44,0 -0.875,0.34125 -0.875,0.78125 l 0,28.21875 c 0,0.68 0.23751,1.00125 1.4375,1.28125 2.08,0.44 5.36876,1 8.96875,1 3.99598,0 6.8659,-1.55833 8.625,-4.15625 z m -8.625,-13.5 c 2.24,0 2.84375,1.77375 2.84375,4.09375 l 0,3.09375 c 0,2.4 -0.60375,4.125 -2.84375,4.125 -1.19999,0 -1.95875,-0.1075 -2.71875,-0.1875 l 0,-10.96875 c 0.8,-0.08 1.75876,-0.15625 2.71875,-0.15625 z m 68.375,0.125 c 2.19962,-0.42347 3.12393,1.19058 3.5625,3.46875 l 0.59375,3.0625 c 0.45371,2.35672 0.19962,4.13904 -2,4.5625 -1.17835,0.22685 -1.95732,0.27863 -2.71875,0.34375 l -2.0625,-10.78125 c 0.77042,-0.22978 1.68232,-0.47477 2.625,-0.65625 z m 17.53125,0 c 0.39962,-0.0715 0.84886,-0.0617 1.3125,0.0625 1.93185,0.51763 2.46492,2.15052 1.84375,4.46875 l -0.0313,0.125 -5.71875,-1.53125 0.0313,-0.125 c 0.46588,-1.73866 1.36363,-2.78548 2.5625,-3 z m 59.6875,2.15625 c 0.41269,-0.0913 0.86533,-0.0824 1.40625,0.0625 1.15911,0.31059 1.88036,0.60103 2.59375,0.875 L 335.0625,314.25 c -0.76515,-0.0808 -1.53577,-0.23102 -2.65625,-0.53125 C 330.24259,313.139 330.06633,311.31822 330.6875,309 l 0.8125,-3 c 0.46587,-1.73866 1.16818,-3.00735 2.40625,-3.28125 z"
           transform="matrix(1.0187788,0,0,1.0187788,-176.12139,720.0118)"
           style="fill:#00bd02;fill-opacity:1" />
        <path
           style="fill:#000000;fill-opacity:1;stroke:none"
           d="m 28.407515,1006.8405 0.6875,3.0938 -2.5625,-0.9688 c 0.608394,0.6524 0.707052,0.8879 0.9375,1.2188 0.418728,0.075 0.591083,0.4886 0.53125,0.7187 0.02159,-0.1378 -0.393368,-0.5208 -0.53125,-0.7187 -1.300726,-0.1342 -2.623522,0.6985 -3.25,2.0937 -0.626457,1.3953 -0.585855,3.2071 0.8125,5.3125 -0.610116,0.4923 -1.208395,1.0084 -1.5,1.5 l 1.75,2.5938 c -0.407328,0.4289 -0.833444,0.8577 -1.1875,1.3437 1.521404,1.8219 2.375,4.2514 2.375,7.25 l 0,3.1563 c 0,2.5481 -0.719715,4.5371 -1.78125,6.1875 l 0.03125,0.4375 c 1.282389,1.5364 2.868894,2.8326 4.8125,3.7187 5.191157,2.3667 11.086612,1.2614 15.0625,-2.3437 l 0.03125,-0.1563 0,-12.7187 c 0,-2.4862 0.693033,-4.225 1.71875,-5.625 -1.347325,-1.8084 -3.11588,-3.3736 -5.3125,-4.375 -3.723066,-1.6974 -7.77192,-1.5478 -11.25,-0.031 l -1.6875,-2.5312 c -0.806343,0.1268 -1.691762,0.5822 -2.5,1.125 l 0.21875,-0.1875 c -1.306604,-1.9673 -1.562176,-3.2238 -1.03125,-4.4063 0.530916,-1.1825 1.637661,-1.8518 2.625,-1.75 0.170747,0.165 0.274569,0.2282 0.375,0.25 0.01585,-0.03 0.181163,-0.093 0.1875,-0.125 -0.02946,0.085 -0.076,0.1492 -0.1875,0.125 -0.16169,0.3096 -0.64796,0.538 -1.9375,0.9688 l 2.46875,0.1562 -1.375,2.4063 2.21875,-1.5938 -0.71875,2.9375 2.25,-2.4375 0.75,3.375 0.21875,-3.1562 2.25,1.2187 -1.375,-1.8125 2.625,-0.3125 -2.09375,-1.3125 2.1875,-1.1562 -2.71875,0 1.21875,-2.2188 -2.65625,1.7188 -0.03125,-2.625 -0.8125,2.875 -1.84375,-3.2188 z m 17.9375,16.0938 c 0.01372,0.018 0.01762,0.044 0.03125,0.063 l 0.03125,-0.125 c -0.01747,0.023 -0.04527,0.039 -0.0625,0.063 z m -22.25,0.094 c -0.0094,-0.011 -0.02181,-0.02 -0.03125,-0.031 l 0,0.063 c 0.0085,-0.012 0.02275,-0.02 0.03125,-0.031 z"
           id="path3789"
           inkscape:connector-curvature="0" />
        <path
           style="font-size:40px;font-style:normal;font-variant:normal;font-weight:900;font-stretch:normal;line-height:125%;letter-spacing:0px;word-spacing:0px;fill:#ffffff;fill-opacity:0.34177214;stroke:none;font-family:Neo Tech Pro;-inkscape-font-specification:Neo Tech Pro Heavy"
           d="m 28.409713,1006.8166 0.66857,3.0882 -2.54695,-0.9551 c 0.6084,0.6524 0.69283,0.8789 0.92327,1.2098 0.41873,0.075 0.60106,0.5021 0.54123,0.7323 0.0216,-0.1379 -0.40335,-0.5343 -0.54123,-0.7323 -1.30072,-0.1341 -2.62088,0.706 -3.24735,2.1012 -0.62646,1.3953 -0.5706,3.2114 0.82775,5.3168 -0.61011,0.4923 -1.23656,1.0047 -1.52816,1.4963 l 1.75102,2.5788 c -0.40733,0.4289 -0.82391,0.8511 -1.17796,1.3372 1.5214,1.8218 2.38776,4.2601 2.38776,7.2587 l 0,3.1519 c 0,0.032 2.4e-4,0.063 0,0.095 5.98856,-0.5061 12.04517,-0.9341 18.147,-1.2735 l 0,-3.693 c 0,-2.4862 0.69347,-4.2351 1.71919,-5.6352 -1.34733,-1.8083 -3.12013,-3.3601 -5.31675,-4.3616 -3.72307,-1.6974 -7.76033,-1.5484 -11.23841,-0.032 l -1.68735,-2.5151 c -0.80634,0.1268 -1.70687,0.5715 -2.51511,1.1143 l 0.22286,-0.1911 c -1.30661,-1.9672 -1.54971,-3.211 -1.01878,-4.3934 0.53091,-1.1825 1.62328,-1.8529 2.61062,-1.7511 0.17075,0.165 0.28161,0.2011 0.38204,0.2229 0.0159,-0.03 0.18469,-0.063 0.19102,-0.096 -0.0295,0.085 -0.0795,0.1197 -0.19102,0.096 -0.16169,0.3096 -0.65251,0.5562 -1.94205,0.9869 l 2.48328,0.1592 -1.40082,2.3878 2.22858,-1.5919 -0.70041,2.9609 2.22857,-2.4515 0.76409,3.3747 0.22286,-3.1518 2.22857,1.2098 -1.36898,-1.8147 2.64246,-0.3184 -2.10123,-1.3053 2.19674,-1.1461 -2.73797,0 1.2098,-2.2286 -2.64246,1.7192 -0.0318,-2.6106 -0.82776,2.8653 -1.8147,-3.2155 z m 17.92414,16.0776 c 1.93306,2.5945 2.90576,5.8196 2.73797,9.0735 1.12277,-0.055 2.25034,-0.077 3.3747,-0.1273 l 0,-3.311 c 0,-1.8338 0.40242,-2.5788 1.91021,-2.5788 l 0.6049,0 c 1.71155,0 1.84654,1.0302 1.84654,2.5788 l 0,3.12 c 2.62313,-0.1025 5.23983,-0.1778 7.8637,-0.2547 l 0,-2.8653 c 0,-1.5486 0.17574,-2.5788 1.84653,-2.5788 l 0.6049,0 c 1.5078,0 1.91021,0.745 1.91021,2.5788 l 0,2.7379 c 4.84584,-0.1171 9.67937,-0.1825 14.48577,-0.2228 l -0.79593,-4.1707 c 0.78489,-0.2341 1.71392,-0.4836 2.6743,-0.6685 2.24093,-0.4315 3.18259,1.2129 3.6294,3.5339 l 0.25469,1.2734 c 10.39168,-0.027 20.599027,0.1049 30.436017,0.3502 l 0,-3.6612 c 0.5391,-0.09 1.94576,-0.1094 3.08817,-0.1273 -0.15161,0.78 -0.38204,1.4768 -0.38204,2.4196 l 0,1.4326 c 2.63795,0.072 5.25575,0.1367 7.83186,0.2229 l 0,-1.6555 c 0,-1.8338 0.40242,-2.5788 1.91022,-2.5788 l 0.63673,0 c 1.71155,0 1.8147,1.0302 1.8147,2.5788 l 0,1.8147 c 2.68823,0.099 5.25915,0.2382 7.8637,0.3502 l 0,-2.1649 c 0,-1.5486 0.17574,-2.5788 1.84654,-2.5788 l 0.6049,0 c 1.50779,0 1.91021,0.745 1.91021,2.5788 l 0,2.3559 c 5.01448,0.2322 9.80522,0.4692 14.42209,0.7322 l 0.3502,-1.3371 c 0.47462,-1.7713 1.19012,-3.0638 2.45144,-3.3429 0.42044,-0.093 0.88158,-0.084 1.43266,0.064 1.18087,0.3164 1.91567,0.6123 2.64245,0.8914 l -1.08245,4.0433 c 4.26562,0.2607 8.26242,0.5616 12.06616,0.8278 l -0.98694,-3.6931 c -0.40079,-1.4958 -0.54473,-2.5924 1.30531,-3.0882 l 1.49633,-0.4138 c 1.85004,-0.4958 2.24167,0.5417 2.64246,2.0375 l 1.49633,5.5715 c 2.90203,0.2161 5.75219,0.4325 8.27758,0.6367 l -2.22858,-8.2139 c -1.62426,-6.0618 -5.62401,-7.7791 -11.8433,-6.1127 l -1.49634,0.3821 c -2.31206,0.6195 -3.93885,1.6088 -5.22124,2.7698 -1.58875,-0.6757 -3.36657,-1.3388 -5.38042,-1.8784 -6.10173,-1.635 -10.71069,0.7228 -12.7029,6.5584 -0.47777,-5.3706 -3.779,-7.7364 -9.55105,-7.7364 l -0.6049,0 c -2.40432,0 -4.29543,0.6953 -5.76247,1.5919 -1.46704,-0.8966 -3.35815,-1.5919 -5.76247,-1.5919 l -0.63673,0 c -3.17092,0 -5.60212,0.7079 -7.2588,2.1968 l 0,-1.369 c 0,-0.5298 -0.49793,-0.8278 -0.98695,-0.8278 -4.23812,0 -7.92992,0.3222 -10.53799,1.178 -1.14103,0.3668 -1.49633,0.717 -1.49633,1.369 l 0,0.4457 c -1.27409,-1.5784 -3.01988,-2.8883 -5.66696,-3.5976 -4.76158,-1.2758 -8.698337,-0.089 -11.206567,3.3747 -2.07235,-3.3702 -5.66591,-4.9727 -10.82452,-3.9796 -0.64026,0.1233 -1.85706,0.5141 -2.67429,0.796 l -1.30532,-6.7495 c -0.0848,-0.4401 -0.51492,-0.7533 -0.9551,-0.6685 l -5.98533,1.1779 c -0.4402,0.085 -0.81698,0.515 -0.73224,0.9551 l 1.14612,6.0172 c -1.62797,-1.1424 -3.76289,-1.751 -6.55839,-1.751 l -0.6049,0 c -2.40431,0 -4.29542,0.6635 -5.76246,1.56 -1.46705,-0.8965 -3.38999,-1.56 -5.79431,-1.56 l -0.6049,0 c -3.79655,0 -6.42584,1.0993 -8.02288,3.2792 z m -22.25395,0.096 c -1.76604,-2.1148 -4.4664,-3.3747 -8.34125,-3.3747 -0.65201,0 -1.91403,0.1325 -2.76981,0.2547 l 0,-6.8767 c 0,-0.4483 -0.37949,-0.7959 -0.82776,-0.7959 l -6.1126701,0 c -0.44826,0 -0.89143,0.3476 -0.89143,0.7959 l 0,22.7633 c 2.5934,-0.3314 5.1913801,-0.6318 7.8318601,-0.9233 l 0,-8.5959 c 0.81502,-0.082 1.79179,-0.1592 2.76981,-0.1592 2.28206,0 2.89715,1.8071 2.89715,4.1706 l 0,3.1519 c 0,0.2838 -0.0136,0.5641 -0.0318,0.8277 1.0403,-0.103 2.07412,-0.221 3.12001,-0.3183 -0.56913,-2.759 -0.30562,-5.7359 0.95511,-8.5005 0.39689,-0.8703 0.8587,-1.6754 1.40082,-2.4196 z m 79.814947,3.1837 c 0.22436,0.01 0.46424,0.032 0.70041,0.096 1.96813,0.5274 2.51121,2.1909 1.87838,4.5527 l -0.0318,0.1273 -5.82614,-1.56 0.0318,-0.1273 c 0.47462,-1.7713 1.38923,-2.8378 2.61062,-3.0563 0.20356,-0.036 0.41238,-0.041 0.63673,-0.032 z"
           id="path3135-2"
           inkscape:connector-curvature="0" />
        <path
           style="font-size:40px;font-style:normal;font-variant:normal;font-weight:900;font-stretch:normal;line-height:125%;letter-spacing:0px;word-spacing:0px;fill:#ffff00;fill-opacity:1;stroke:none;font-family:Neo Tech Pro;-inkscape-font-specification:Neo Tech Pro Heavy"
           d="m 28.4375,1006.8443 0.6875,3.0937 -2.5625,-0.9687 c 0.608394,0.6524 0.707052,0.8878 0.9375,1.2187 0.133856,0.024 0.228535,0.08 0.3125,0.1563 8.65e-4,4e-4 0.03125,0 0.03125,0 0.0062,0.01 -0.0059,0.025 0,0.031 0.127212,0.1334 0.192736,0.2984 0.1875,0.4375 l 0.09375,0.2187 -0.34375,0.063 c -0.189677,0.2834 -0.692565,0.5008 -1.90625,0.9063 l 2.46875,0.1562 -1.375,2.4063 2.21875,-1.5938 -0.71875,2.9375 2.25,-2.4375 0.75,3.375 0.21875,-3.1562 2.25,1.2187 -1.375,-1.8125 2.625,-0.3125 -2.09375,-1.3125 2.1875,-1.1562 -2.71875,0 1.21875,-2.2188 -2.65625,1.7188 -0.03125,-2.625 -0.8125,2.875 -1.84375,-3.2188 z"
           id="path3789-6"
           inkscape:connector-curvature="0" />
      </g>
    </g>
  </g>
</svg>
