<?xml version="1.0" encoding="UTF-8" standalone="no"?>
<!-- Created with Inkscape (http://www.inkscape.org/) -->

<svg
   xmlns:dc="http://purl.org/dc/elements/1.1/"
   xmlns:cc="http://creativecommons.org/ns#"
   xmlns:rdf="http://www.w3.org/1999/02/22-rdf-syntax-ns#"
   xmlns:svg="http://www.w3.org/2000/svg"
   xmlns="http://www.w3.org/2000/svg"
   xmlns:sodipodi="http://sodipodi.sourceforge.net/DTD/sodipodi-0.dtd"
   xmlns:inkscape="http://www.inkscape.org/namespaces/inkscape"
   width="60"
   height="60"
   id="svg2"
   version="1.1"
   inkscape:version="0.48.2 r9819"
   sodipodi:docname="speed.svg"
   inkscape:export-filename="/home/marcin/programs/bomberman/images/speed.png"
   inkscape:export-xdpi="90"
   inkscape:export-ydpi="90">
  <defs
     id="defs4" />
  <sodipodi:namedview
     id="base"
     pagecolor="#ffffff"
     bordercolor="#666666"
     borderopacity="1.0"
     inkscape:pageopacity="0.0"
     inkscape:pageshadow="2"
     inkscape:zoom="8.5833333"
     inkscape:cx="30"
     inkscape:cy="30"
     inkscape:document-units="px"
     inkscape:current-layer="g3828"
     showgrid="false"
     inkscape:window-width="1366"
     inkscape:window-height="688"
     inkscape:window-x="0"
     inkscape:window-y="25"
     inkscape:window-maximized="1" />
  <metadata
     id="metadata7">
    <rdf:RDF>
      <cc:Work
         rdf:about="">
        <dc:format>image/svg+xml</dc:format>
        <dc:type
           rdf:resource="http://purl.org/dc/dcmitype/StillImage" />
        <dc:title></dc:title>
      </cc:Work>
    </rdf:RDF>
  </metadata>
  <g
     inkscape:label="Layer 1"
     inkscape:groupmode="layer"
     id="layer1"
     transform="translate(0,-992.36218)">
    <rect
       style="fill:#ffff00;fill-opacity:1;fill-rule:evenodd;stroke:#ffb60d;stroke-width:3.07504582000000015;stroke-linecap:round;stroke-linejoin:round;stroke-miterlimit:4;stroke-opacity:1;stroke-dasharray:none"
       id="rect2985"
       width="56.924953"
       height="56.924953"
       x="1.5375229"
       y="993.89972" />
    <g
       id="g3828"
       transform="translate(0,3.1456311)">
      <rect
         y="1021.388"
         x="10.853774"
         height="2.474015"
         width="39.355804"
         id="rect3015"
         style="fill:#ffb60d;fill-opacity:1;fill-rule:evenodd;stroke:#ffb60d;stroke-width:8.95030975;stroke-linecap:round;stroke-linejoin:round;stroke-miterlimit:4;stroke-opacity:1;stroke-dasharray:none" />
      <path
         sodipodi:nodetypes="cccccc"
         inkscape:connector-curvature="0"
         id="path3785"
         d="m 50.330097,998.53688 2.213592,20.73792 0,0 -33.902912,0.1165 24.263377,-20.77095 z"
         style="fill:#ffb60d;fill-opacity:1;stroke:#ffb60d;stroke-width:3.9000001;stroke-linecap:butt;stroke-linejoin:round;stroke-miterlimit:4;stroke-opacity:1;stroke-dasharray:none" />
      <path
         transform="matrix(0.53595363,0,0,0.53595363,18.994408,1007.9826)"
         d="m 11.300971,13.980582 a 0.46601942,0.46601942 0 1 1 -0.932039,0 0.46601942,0.46601942 0 1 1 0.932039,0 z"
         sodipodi:ry="0.46601942"
         sodipodi:rx="0.46601942"
         sodipodi:cy="13.980582"
         sodipodi:cx="10.834951"
         id="path3787"
         style="fill:#917c6f;fill-opacity:1;fill-rule:evenodd;stroke:#ffff00;stroke-width:3.9000001;stroke-linecap:round;stroke-linejoin:round;stroke-miterlimit:4;stroke-opacity:1;stroke-dasharray:none"
         sodipodi:type="arc" />
      <path
         transform="matrix(0.53595363,0,0,0.53595363,34.270639,995.12163)"
         d="m 11.300971,13.980582 a 0.46601942,0.46601942 0 1 1 -0.932039,0 0.46601942,0.46601942 0 1 1 0.932039,0 z"
         sodipodi:ry="0.46601942"
         sodipodi:rx="0.46601942"
         sodipodi:cy="13.980582"
         sodipodi:cx="10.834951"
         id="path3787-6"
         style="fill:#917c6f;fill-opacity:1;fill-rule:evenodd;stroke:#ffff00;stroke-width:3.9000001;stroke-linecap:round;stroke-linejoin:round;stroke-miterlimit:4;stroke-opacity:1;stroke-dasharray:none"
         sodipodi:type="arc" />
      <path
         transform="matrix(0.53595363,0,0,0.53595363,29.26093,999.08282)"
         d="m 11.300971,13.980582 a 0.46601942,0.46601942 0 1 1 -0.932039,0 0.46601942,0.46601942 0 1 1 0.932039,0 z"
         sodipodi:ry="0.46601942"
         sodipodi:rx="0.46601942"
         sodipodi:cy="13.980582"
         sodipodi:cx="10.834951"
         id="path3787-9"
         style="fill:#917c6f;fill-opacity:1;fill-rule:evenodd;stroke:#ffff00;stroke-width:3.9000001;stroke-linecap:round;stroke-linejoin:round;stroke-miterlimit:4;stroke-opacity:1;stroke-dasharray:none"
         sodipodi:type="arc" />
      <path
         transform="matrix(0.53595363,0,0,0.53595363,24.25122,1003.743)"
         d="m 11.300971,13.980582 a 0.46601942,0.46601942 0 1 1 -0.932039,0 0.46601942,0.46601942 0 1 1 0.932039,0 z"
         sodipodi:ry="0.46601942"
         sodipodi:rx="0.46601942"
         sodipodi:cy="13.980582"
         sodipodi:cx="10.834951"
         id="path3787-2"
         style="fill:#917c6f;fill-opacity:1;fill-rule:evenodd;stroke:#ffff00;stroke-width:3.9000001;stroke-linecap:round;stroke-linejoin:round;stroke-miterlimit:4;stroke-opacity:1;stroke-dasharray:none"
         sodipodi:type="arc" />
    </g>
    <path
       sodipodi:type="arc"
       style="fill:#ffb60d;fill-opacity:1;fill-rule:evenodd;stroke:#ffb60d;stroke-width:3.9000001;stroke-linecap:round;stroke-linejoin:round;stroke-miterlimit:4;stroke-opacity:1;stroke-dasharray:none"
       id="path3837"
       sodipodi:cx="-1.3398058"
       sodipodi:cy="21.495146"
       sodipodi:rx="6.2330098"
       sodipodi:ry="6.2330098"
       d="m 4.893204,21.495146 a 6.2330098,6.2330098 0 1 1 -12.4660197,0 6.2330098,6.2330098 0 1 1 12.4660197,0 z"
       transform="matrix(0.72948924,0,0,0.72948924,16.297762,1022.6429)" />
    <path
       sodipodi:type="arc"
       style="fill:#ffb60d;fill-opacity:1;fill-rule:evenodd;stroke:#ffb60d;stroke-width:3.9000001;stroke-linecap:round;stroke-linejoin:round;stroke-miterlimit:4;stroke-opacity:1;stroke-dasharray:none"
       id="path3837-4"
       sodipodi:cx="-1.3398058"
       sodipodi:cy="21.495146"
       sodipodi:rx="6.2330098"
       sodipodi:ry="6.2330098"
       d="m 4.893204,21.495146 a 6.2330098,6.2330098 0 1 1 -12.4660197,0 6.2330098,6.2330098 0 1 1 12.4660197,0 z"
       transform="matrix(0.72948924,0,0,0.72948924,48.62786,1022.8177)" />
    <path
       sodipodi:type="arc"
       style="fill:#ffb60d;fill-opacity:1;fill-rule:evenodd;stroke:#ffb60d;stroke-width:3.9000001;stroke-linecap:round;stroke-linejoin:round;stroke-miterlimit:4;stroke-opacity:1;stroke-dasharray:none"
       id="path3837-49"
       sodipodi:cx="-1.3398058"
       sodipodi:cy="21.495146"
       sodipodi:rx="6.2330098"
       sodipodi:ry="6.2330098"
       d="m 4.893204,21.495146 a 6.2330098,6.2330098 0 1 1 -12.4660197,0 6.2330098,6.2330098 0 1 1 12.4660197,0 z"
       transform="matrix(0.72948924,0,0,0.72948924,32.31718,1023.0507)" />
  </g>
</svg>
